<mxfile host="app.diagrams.net" agent="Mozilla/5.0 (Windows NT 10.0; Win64; x64) AppleWebKit/537.36 (KHTML, like Gecko) Chrome/130.0.0.0 Safari/537.36" version="24.8.4" pages="2">
  <diagram name="customer" id="4hIow677ptiUEjIvBrIE">
    <mxGraphModel dx="2523" dy="837" grid="1" gridSize="10" guides="1" tooltips="1" connect="1" arrows="1" fold="1" page="1" pageScale="1" pageWidth="850" pageHeight="1100" math="0" shadow="0">
      <root>
        <mxCell id="0" />
        <mxCell id="1" parent="0" />
        <UserObject label="" plantUmlData="{&quot;data&quot;:&quot;@startuml\ntitle Request Return - UC7\n\n|Customer|\nstart\n:Contacts via WhatsApp;\n:Send Return Reason and Photos;\n\n|Admin|\n:Reviews Return Request;\n:Approves or Rejects Return;\n\n|Customer|\nnote right: If Approved\n:Sends Item Back;\n\n|Admin|\n:Verifies Return Item;\n:Initiates Refund or Replacement;\n\nstop\n@enduml\n\n&quot;,&quot;format&quot;:&quot;svg&quot;}" id="OlcV61gdzetprrhdvR_Y-2">
          <mxCell style="shape=image;noLabel=1;verticalAlign=top;aspect=fixed;imageAspect=0;image=data:image/svg+xml,PD94bWwgdmVyc2lvbj0iMS4wIiBlbmNvZGluZz0idXMtYXNjaWkiIHN0YW5kYWxvbmU9Im5vIj8+PHN2ZyB4bWxucz0iaHR0cDovL3d3dy53My5vcmcvMjAwMC9zdmciIHhtbG5zOnhsaW5rPSJodHRwOi8vd3d3LnczLm9yZy8xOTk5L3hsaW5rIiBjb250ZW50U3R5bGVUeXBlPSJ0ZXh0L2NzcyIgaGVpZ2h0PSI1MTVweCIgcHJlc2VydmVBc3BlY3RSYXRpbz0ibm9uZSIgc3R5bGU9IndpZHRoOjYwM3B4O2hlaWdodDo1MTVweDtiYWNrZ3JvdW5kOiNGRkZGRkY7IiB2ZXJzaW9uPSIxLjEiIHZpZXdCb3g9IjAgMCA2MDMgNTE1IiB3aWR0aD0iNjAzcHgiIHpvb21BbmRQYW49Im1hZ25pZnkiPjxkZWZzLz48Zz48dGV4dCBmaWxsPSIjMDAwMDAwIiBmb250LWZhbWlseT0ic2Fucy1zZXJpZiIgZm9udC1zaXplPSIxNCIgZm9udC13ZWlnaHQ9ImJvbGQiIGxlbmd0aEFkanVzdD0ic3BhY2luZyIgdGV4dExlbmd0aD0iMTQwIiB4PSIyMzAuMjUiIHk9IjMzLjIzNDQiPlJlcXVlc3QgUmV0dXJuIC0gVUM3PC90ZXh0PjxyZWN0IGZpbGw9Im5vbmUiIGhlaWdodD0iMTkuMjY1NiIgc3R5bGU9InN0cm9rZTpub25lO3N0cm9rZS13aWR0aDoxLjA7IiB3aWR0aD0iNTcwLjUiIHg9IjE1IiB5PSI0Ni45ODQ0Ii8+PGVsbGlwc2UgY3g9IjEyOS41IiBjeT0iODEuMjUiIGZpbGw9IiMyMjIyMjIiIHJ4PSIxMCIgcnk9IjEwIiBzdHlsZT0ic3Ryb2tlOiMyMjIyMjI7c3Ryb2tlLXdpZHRoOjEuMDsiLz48cmVjdCBmaWxsPSIjRjFGMUYxIiBoZWlnaHQ9IjMyLjg0MzgiIHJ4PSIxMi41IiByeT0iMTIuNSIgc3R5bGU9InN0cm9rZTojMTgxODE4O3N0cm9rZS13aWR0aDowLjU7IiB3aWR0aD0iMTYwIiB4PSI0OS41IiB5PSIxMTEuMjUiLz48dGV4dCBmaWxsPSIjMDAwMDAwIiBmb250LWZhbWlseT0ic2Fucy1zZXJpZiIgZm9udC1zaXplPSIxMiIgbGVuZ3RoQWRqdXN0PSJzcGFjaW5nIiB0ZXh0TGVuZ3RoPSIxNDAiIHg9IjU5LjUiIHk9IjEzMi41OTM4Ij5Db250YWN0cyB2aWEgV2hhdHNBcHA8L3RleHQ+PHJlY3QgZmlsbD0iI0YxRjFGMSIgaGVpZ2h0PSIzMi44NDM4IiByeD0iMTIuNSIgcnk9IjEyLjUiIHN0eWxlPSJzdHJva2U6IzE4MTgxODtzdHJva2Utd2lkdGg6MC41OyIgd2lkdGg9IjIxNyIgeD0iMjEiIHk9IjE2NC4wOTM4Ii8+PHRleHQgZmlsbD0iIzAwMDAwMCIgZm9udC1mYW1pbHk9InNhbnMtc2VyaWYiIGZvbnQtc2l6ZT0iMTIiIGxlbmd0aEFkanVzdD0ic3BhY2luZyIgdGV4dExlbmd0aD0iMTk3IiB4PSIzMSIgeT0iMTg1LjQzNzUiPlNlbmQgUmV0dXJuIFJlYXNvbiBhbmQgUGhvdG9zPC90ZXh0PjxwYXRoIGQ9Ik0yNDcsMjc0LjI0NjEgTDI0NywyODIuMjAzMSBMMjI3LDI4Ni4yMDMxIEwyNDcsMjkwLjIwMzEgTDI0NywyOTguMTYwMiBBMCwwIDAgMCAwIDI0NywyOTguMTYwMiBMMzQzLDI5OC4xNjAyIEEwLDAgMCAwIDAgMzQzLDI5OC4xNjAyIEwzNDMsMjg0LjI0NjEgTDMzMywyNzQuMjQ2MSBMMjQ3LDI3NC4yNDYxIEEwLDAgMCAwIDAgMjQ3LDI3NC4yNDYxICIgZmlsbD0iI0ZFRkZERCIgc3R5bGU9InN0cm9rZTojMTgxODE4O3N0cm9rZS13aWR0aDowLjU7Ii8+PHBhdGggZD0iTTMzMywyNzQuMjQ2MSBMMzMzLDI4NC4yNDYxIEwzNDMsMjg0LjI0NjEgTDMzMywyNzQuMjQ2MSAiIGZpbGw9IiNGRUZGREQiIHN0eWxlPSJzdHJva2U6IzE4MTgxODtzdHJva2Utd2lkdGg6MC41OyIvPjx0ZXh0IGZpbGw9IiMwMDAwMDAiIGZvbnQtZmFtaWx5PSJzYW5zLXNlcmlmIiBmb250LXNpemU9IjEzIiBsZW5ndGhBZGp1c3Q9InNwYWNpbmciIHRleHRMZW5ndGg9Ijc1IiB4PSIyNTMiIHk9IjI5MS41MzUyIj5JZiBBcHByb3ZlZDwvdGV4dD48cmVjdCBmaWxsPSIjRjFGMUYxIiBoZWlnaHQ9IjMyLjg0MzgiIHJ4PSIxMi41IiByeT0iMTIuNSIgc3R5bGU9InN0cm9rZTojMTgxODE4O3N0cm9rZS13aWR0aDowLjU7IiB3aWR0aD0iMTE4IiB4PSI3MC41IiB5PSIzMjIuNjI1Ii8+PHRleHQgZmlsbD0iIzAwMDAwMCIgZm9udC1mYW1pbHk9InNhbnMtc2VyaWYiIGZvbnQtc2l6ZT0iMTIiIGxlbmd0aEFkanVzdD0ic3BhY2luZyIgdGV4dExlbmd0aD0iOTgiIHg9IjgwLjUiIHk9IjM0My45Njg4Ij5TZW5kcyBJdGVtIEJhY2s8L3RleHQ+PGxpbmUgc3R5bGU9InN0cm9rZTojMDAwMDAwO3N0cm9rZS13aWR0aDoxLjU7IiB4MT0iMTUiIHgyPSIxNSIgeTE9IjQ2Ljk4NDQiIHkyPSI1MDMuMTU2MyIvPjxyZWN0IGZpbGw9IiNGMUYxRjEiIGhlaWdodD0iMzIuODQzOCIgcng9IjEyLjUiIHJ5PSIxMi41IiBzdHlsZT0ic3Ryb2tlOiMxODE4MTg7c3Ryb2tlLXdpZHRoOjAuNTsiIHdpZHRoPSIxNjgiIHg9IjM4MiIgeT0iMjE2LjkzNzUiLz48dGV4dCBmaWxsPSIjMDAwMDAwIiBmb250LWZhbWlseT0ic2Fucy1zZXJpZiIgZm9udC1zaXplPSIxMiIgbGVuZ3RoQWRqdXN0PSJzcGFjaW5nIiB0ZXh0TGVuZ3RoPSIxNDgiIHg9IjM5MiIgeT0iMjM4LjI4MTMiPlJldmlld3MgUmV0dXJuIFJlcXVlc3Q8L3RleHQ+PHJlY3QgZmlsbD0iI0YxRjFGMSIgaGVpZ2h0PSIzMi44NDM4IiByeD0iMTIuNSIgcnk9IjEyLjUiIHN0eWxlPSJzdHJva2U6IzE4MTgxODtzdHJva2Utd2lkdGg6MC41OyIgd2lkdGg9IjE5NSIgeD0iMzY4LjUiIHk9IjI2OS43ODEzIi8+PHRleHQgZmlsbD0iIzAwMDAwMCIgZm9udC1mYW1pbHk9InNhbnMtc2VyaWYiIGZvbnQtc2l6ZT0iMTIiIGxlbmd0aEFkanVzdD0ic3BhY2luZyIgdGV4dExlbmd0aD0iMTc1IiB4PSIzNzguNSIgeT0iMjkxLjEyNSI+QXBwcm92ZXMgb3IgUmVqZWN0cyBSZXR1cm48L3RleHQ+PHJlY3QgZmlsbD0iI0YxRjFGMSIgaGVpZ2h0PSIzMi44NDM4IiByeD0iMTIuNSIgcnk9IjEyLjUiIHN0eWxlPSJzdHJva2U6IzE4MTgxODtzdHJva2Utd2lkdGg6MC41OyIgd2lkdGg9IjE1MSIgeD0iMzkwLjUiIHk9IjM3NS40Njg4Ii8+PHRleHQgZmlsbD0iIzAwMDAwMCIgZm9udC1mYW1pbHk9InNhbnMtc2VyaWYiIGZvbnQtc2l6ZT0iMTIiIGxlbmd0aEFkanVzdD0ic3BhY2luZyIgdGV4dExlbmd0aD0iMTMxIiB4PSI0MDAuNSIgeT0iMzk2LjgxMjUiPlZlcmlmaWVzIFJldHVybiBJdGVtPC90ZXh0PjxyZWN0IGZpbGw9IiNGMUYxRjEiIGhlaWdodD0iMzIuODQzOCIgcng9IjEyLjUiIHJ5PSIxMi41IiBzdHlsZT0ic3Ryb2tlOiMxODE4MTg7c3Ryb2tlLXdpZHRoOjAuNTsiIHdpZHRoPSIyMjQiIHg9IjM1NCIgeT0iNDI4LjMxMjUiLz48dGV4dCBmaWxsPSIjMDAwMDAwIiBmb250LWZhbWlseT0ic2Fucy1zZXJpZiIgZm9udC1zaXplPSIxMiIgbGVuZ3RoQWRqdXN0PSJzcGFjaW5nIiB0ZXh0TGVuZ3RoPSIyMDQiIHg9IjM2NCIgeT0iNDQ5LjY1NjMiPkluaXRpYXRlcyBSZWZ1bmQgb3IgUmVwbGFjZW1lbnQ8L3RleHQ+PGVsbGlwc2UgY3g9IjQ2NiIgY3k9IjQ5Mi4xNTYzIiBmaWxsPSJub25lIiByeD0iMTEiIHJ5PSIxMSIgc3R5bGU9InN0cm9rZTojMjIyMjIyO3N0cm9rZS13aWR0aDoxLjA7Ii8+PGVsbGlwc2UgY3g9IjQ2NiIgY3k9IjQ5Mi4xNTYzIiBmaWxsPSIjMjIyMjIyIiByeD0iNiIgcnk9IjYiIHN0eWxlPSJzdHJva2U6IzIyMjIyMjtzdHJva2Utd2lkdGg6MS4wOyIvPjxsaW5lIHN0eWxlPSJzdHJva2U6IzAwMDAwMDtzdHJva2Utd2lkdGg6MS41OyIgeDE9IjM0OCIgeDI9IjM0OCIgeTE9IjQ2Ljk4NDQiIHkyPSI1MDMuMTU2MyIvPjxsaW5lIHN0eWxlPSJzdHJva2U6IzAwMDAwMDtzdHJva2Utd2lkdGg6MS41OyIgeDE9IjU4MiIgeDI9IjU4MiIgeTE9IjQ2Ljk4NDQiIHkyPSI1MDMuMTU2MyIvPjxsaW5lIHN0eWxlPSJzdHJva2U6IzE4MTgxODtzdHJva2Utd2lkdGg6MS4wOyIgeDE9IjEyOS41IiB4Mj0iMTI5LjUiIHkxPSI5MS4yNSIgeTI9IjExMS4yNSIvPjxwb2x5Z29uIGZpbGw9IiMxODE4MTgiIHBvaW50cz0iMTI1LjUsMTAxLjI1LDEyOS41LDExMS4yNSwxMzMuNSwxMDEuMjUsMTI5LjUsMTA1LjI1IiBzdHlsZT0ic3Ryb2tlOiMxODE4MTg7c3Ryb2tlLXdpZHRoOjEuMDsiLz48bGluZSBzdHlsZT0ic3Ryb2tlOiMxODE4MTg7c3Ryb2tlLXdpZHRoOjEuMDsiIHgxPSIxMjkuNSIgeDI9IjEyOS41IiB5MT0iMTQ0LjA5MzgiIHkyPSIxNjQuMDkzOCIvPjxwb2x5Z29uIGZpbGw9IiMxODE4MTgiIHBvaW50cz0iMTI1LjUsMTU0LjA5MzgsMTI5LjUsMTY0LjA5MzgsMTMzLjUsMTU0LjA5MzgsMTI5LjUsMTU4LjA5MzgiIHN0eWxlPSJzdHJva2U6IzE4MTgxODtzdHJva2Utd2lkdGg6MS4wOyIvPjxsaW5lIHN0eWxlPSJzdHJva2U6IzE4MTgxODtzdHJva2Utd2lkdGg6MS4wOyIgeDE9IjQ2NiIgeDI9IjQ2NiIgeTE9IjI0OS43ODEzIiB5Mj0iMjY5Ljc4MTMiLz48cG9seWdvbiBmaWxsPSIjMTgxODE4IiBwb2ludHM9IjQ2MiwyNTkuNzgxMyw0NjYsMjY5Ljc4MTMsNDcwLDI1OS43ODEzLDQ2NiwyNjMuNzgxMyIgc3R5bGU9InN0cm9rZTojMTgxODE4O3N0cm9rZS13aWR0aDoxLjA7Ii8+PGxpbmUgc3R5bGU9InN0cm9rZTojMTgxODE4O3N0cm9rZS13aWR0aDoxLjA7IiB4MT0iNDY2IiB4Mj0iNDY2IiB5MT0iNDA4LjMxMjUiIHkyPSI0MjguMzEyNSIvPjxwb2x5Z29uIGZpbGw9IiMxODE4MTgiIHBvaW50cz0iNDYyLDQxOC4zMTI1LDQ2Niw0MjguMzEyNSw0NzAsNDE4LjMxMjUsNDY2LDQyMi4zMTI1IiBzdHlsZT0ic3Ryb2tlOiMxODE4MTg7c3Ryb2tlLXdpZHRoOjEuMDsiLz48bGluZSBzdHlsZT0ic3Ryb2tlOiMxODE4MTg7c3Ryb2tlLXdpZHRoOjEuMDsiIHgxPSI0NjYiIHgyPSI0NjYiIHkxPSI0NjEuMTU2MyIgeTI9IjQ4MS4xNTYzIi8+PHBvbHlnb24gZmlsbD0iIzE4MTgxOCIgcG9pbnRzPSI0NjIsNDcxLjE1NjMsNDY2LDQ4MS4xNTYzLDQ3MCw0NzEuMTU2Myw0NjYsNDc1LjE1NjMiIHN0eWxlPSJzdHJva2U6IzE4MTgxODtzdHJva2Utd2lkdGg6MS4wOyIvPjxsaW5lIHN0eWxlPSJzdHJva2U6IzE4MTgxODtzdHJva2Utd2lkdGg6MS4wOyIgeDE9IjEyOS41IiB4Mj0iMTI5LjUiIHkxPSIxOTYuOTM3NSIgeTI9IjIwMS45Mzc1Ii8+PGxpbmUgc3R5bGU9InN0cm9rZTojMTgxODE4O3N0cm9rZS13aWR0aDoxLjA7IiB4MT0iMTI5LjUiIHgyPSI0NjYiIHkxPSIyMDEuOTM3NSIgeTI9IjIwMS45Mzc1Ii8+PGxpbmUgc3R5bGU9InN0cm9rZTojMTgxODE4O3N0cm9rZS13aWR0aDoxLjA7IiB4MT0iNDY2IiB4Mj0iNDY2IiB5MT0iMjAxLjkzNzUiIHkyPSIyMTYuOTM3NSIvPjxwb2x5Z29uIGZpbGw9IiMxODE4MTgiIHBvaW50cz0iNDYyLDIwNi45Mzc1LDQ2NiwyMTYuOTM3NSw0NzAsMjA2LjkzNzUsNDY2LDIxMC45Mzc1IiBzdHlsZT0ic3Ryb2tlOiMxODE4MTg7c3Ryb2tlLXdpZHRoOjEuMDsiLz48bGluZSBzdHlsZT0ic3Ryb2tlOiMxODE4MTg7c3Ryb2tlLXdpZHRoOjEuMDsiIHgxPSI0NjYiIHgyPSI0NjYiIHkxPSIzMDIuNjI1IiB5Mj0iMzA3LjYyNSIvPjxsaW5lIHN0eWxlPSJzdHJva2U6IzE4MTgxODtzdHJva2Utd2lkdGg6MS4wOyIgeDE9IjQ2NiIgeDI9IjEyOS41IiB5MT0iMzA3LjYyNSIgeTI9IjMwNy42MjUiLz48bGluZSBzdHlsZT0ic3Ryb2tlOiMxODE4MTg7c3Ryb2tlLXdpZHRoOjEuMDsiIHgxPSIxMjkuNSIgeDI9IjEyOS41IiB5MT0iMzA3LjYyNSIgeTI9IjMyMi42MjUiLz48cG9seWdvbiBmaWxsPSIjMTgxODE4IiBwb2ludHM9IjEyNS41LDMxMi42MjUsMTI5LjUsMzIyLjYyNSwxMzMuNSwzMTIuNjI1LDEyOS41LDMxNi42MjUiIHN0eWxlPSJzdHJva2U6IzE4MTgxODtzdHJva2Utd2lkdGg6MS4wOyIvPjxsaW5lIHN0eWxlPSJzdHJva2U6IzE4MTgxODtzdHJva2Utd2lkdGg6MS4wOyIgeDE9IjEyOS41IiB4Mj0iMTI5LjUiIHkxPSIzNTUuNDY4OCIgeTI9IjM2MC40Njg4Ii8+PGxpbmUgc3R5bGU9InN0cm9rZTojMTgxODE4O3N0cm9rZS13aWR0aDoxLjA7IiB4MT0iMTI5LjUiIHgyPSI0NjYiIHkxPSIzNjAuNDY4OCIgeTI9IjM2MC40Njg4Ii8+PGxpbmUgc3R5bGU9InN0cm9rZTojMTgxODE4O3N0cm9rZS13aWR0aDoxLjA7IiB4MT0iNDY2IiB4Mj0iNDY2IiB5MT0iMzYwLjQ2ODgiIHkyPSIzNzUuNDY4OCIvPjxwb2x5Z29uIGZpbGw9IiMxODE4MTgiIHBvaW50cz0iNDYyLDM2NS40Njg4LDQ2NiwzNzUuNDY4OCw0NzAsMzY1LjQ2ODgsNDY2LDM2OS40Njg4IiBzdHlsZT0ic3Ryb2tlOiMxODE4MTg7c3Ryb2tlLXdpZHRoOjEuMDsiLz48dGV4dCBmaWxsPSIjMDAwMDAwIiBmb250LWZhbWlseT0ic2Fucy1zZXJpZiIgZm9udC1zaXplPSIxOCIgbGVuZ3RoQWRqdXN0PSJzcGFjaW5nIiB0ZXh0TGVuZ3RoPSI3MiIgeD0iMTQ1LjUiIHk9IjY0Ij5DdXN0b21lcjwvdGV4dD48dGV4dCBmaWxsPSIjMDAwMDAwIiBmb250LWZhbWlseT0ic2Fucy1zZXJpZiIgZm9udC1zaXplPSIxOCIgbGVuZ3RoQWRqdXN0PSJzcGFjaW5nIiB0ZXh0TGVuZ3RoPSI0NSIgeD0iNDQyLjUiIHk9IjY0Ij5BZG1pbjwvdGV4dD48IS0tU1JDPVtMTy16UmVIMDM4SnhWR2dfbURNSGJlZkdxS0w0a1RHTWNFMHhNOUVyOEdxRjdtRnZoSW9EUGtPUjZ6ajhxRDN4R2NmLVJTYTlCbDFJRk9JbUxPa1FKOUl0ZThSUEdnbWE2UlFjaTNCMnd1MmN2Sm1OOEp2SndoeDMzUTVBMGRKYlFIMEpCUm9meDJQRU11V0RoS21WLWtpemtEeFdGTGJNS2YzaXdlcnNvNmFnX1dyOU9XSVB0bVFCS0ZWbTVVbEUyR2dycUdJRnNEeF9HZy1La01Wd2VVdWNIelE5WlQ0RWxMenl4ZTZVSHNuZmVrSVpfNmtQRm00MF0tLT48L2c+PC9zdmc+;" parent="1" vertex="1">
            <mxGeometry x="1190" y="1300" width="603" height="515" as="geometry" />
          </mxCell>
        </UserObject>
        <UserObject label="" plantUmlData="{&quot;data&quot;:&quot;@startuml\ntitle Track Order Delivery - UC13\n|Customer|\nstart\n:Contacts via WhatsApp;\n:Provide Order Details;\n\n|Admin|\n:Checks Delivery Status;\n:Communicates Status to Customer;\n\nstop\n@enduml\n&quot;,&quot;format&quot;:&quot;svg&quot;}" id="OlcV61gdzetprrhdvR_Y-3">
          <mxCell style="shape=image;noLabel=1;verticalAlign=top;aspect=fixed;imageAspect=0;image=data:image/svg+xml,PD94bWwgdmVyc2lvbj0iMS4wIiBlbmNvZGluZz0idXMtYXNjaWkiIHN0YW5kYWxvbmU9Im5vIj8+PHN2ZyB4bWxucz0iaHR0cDovL3d3dy53My5vcmcvMjAwMC9zdmciIHhtbG5zOnhsaW5rPSJodHRwOi8vd3d3LnczLm9yZy8xOTk5L3hsaW5rIiBjb250ZW50U3R5bGVUeXBlPSJ0ZXh0L2NzcyIgaGVpZ2h0PSIzNTZweCIgcHJlc2VydmVBc3BlY3RSYXRpbz0ibm9uZSIgc3R5bGU9IndpZHRoOjQ0MXB4O2hlaWdodDozNTZweDtiYWNrZ3JvdW5kOiNGRkZGRkY7IiB2ZXJzaW9uPSIxLjEiIHZpZXdCb3g9IjAgMCA0NDEgMzU2IiB3aWR0aD0iNDQxcHgiIHpvb21BbmRQYW49Im1hZ25pZnkiPjxkZWZzLz48Zz48dGV4dCBmaWxsPSIjMDAwMDAwIiBmb250LWZhbWlseT0ic2Fucy1zZXJpZiIgZm9udC1zaXplPSIxNCIgZm9udC13ZWlnaHQ9ImJvbGQiIGxlbmd0aEFkanVzdD0ic3BhY2luZyIgdGV4dExlbmd0aD0iMTg5IiB4PSIxMjQuNzUiIHk9IjMzLjIzNDQiPlRyYWNrIE9yZGVyIERlbGl2ZXJ5IC0gVUMxMzwvdGV4dD48cmVjdCBmaWxsPSJub25lIiBoZWlnaHQ9IjE5LjI2NTYiIHN0eWxlPSJzdHJva2U6bm9uZTtzdHJva2Utd2lkdGg6MS4wOyIgd2lkdGg9IjQwOC41IiB4PSIxNSIgeT0iNDYuOTg0NCIvPjxlbGxpcHNlIGN4PSIxMDEuNSIgY3k9IjgxLjI1IiBmaWxsPSIjMjIyMjIyIiByeD0iMTAiIHJ5PSIxMCIgc3R5bGU9InN0cm9rZTojMjIyMjIyO3N0cm9rZS13aWR0aDoxLjA7Ii8+PHJlY3QgZmlsbD0iI0YxRjFGMSIgaGVpZ2h0PSIzMi44NDM4IiByeD0iMTIuNSIgcnk9IjEyLjUiIHN0eWxlPSJzdHJva2U6IzE4MTgxODtzdHJva2Utd2lkdGg6MC41OyIgd2lkdGg9IjE2MCIgeD0iMjEuNSIgeT0iMTExLjI1Ii8+PHRleHQgZmlsbD0iIzAwMDAwMCIgZm9udC1mYW1pbHk9InNhbnMtc2VyaWYiIGZvbnQtc2l6ZT0iMTIiIGxlbmd0aEFkanVzdD0ic3BhY2luZyIgdGV4dExlbmd0aD0iMTQwIiB4PSIzMS41IiB5PSIxMzIuNTkzOCI+Q29udGFjdHMgdmlhIFdoYXRzQXBwPC90ZXh0PjxyZWN0IGZpbGw9IiNGMUYxRjEiIGhlaWdodD0iMzIuODQzOCIgcng9IjEyLjUiIHJ5PSIxMi41IiBzdHlsZT0ic3Ryb2tlOiMxODE4MTg7c3Ryb2tlLXdpZHRoOjAuNTsiIHdpZHRoPSIxNjEiIHg9IjIxIiB5PSIxNjQuMDkzOCIvPjx0ZXh0IGZpbGw9IiMwMDAwMDAiIGZvbnQtZmFtaWx5PSJzYW5zLXNlcmlmIiBmb250LXNpemU9IjEyIiBsZW5ndGhBZGp1c3Q9InNwYWNpbmciIHRleHRMZW5ndGg9IjE0MSIgeD0iMzEiIHk9IjE4NS40Mzc1Ij5Qcm92aWRlIE9yZGVyIERldGFpbHM8L3RleHQ+PGxpbmUgc3R5bGU9InN0cm9rZTojMDAwMDAwO3N0cm9rZS13aWR0aDoxLjU7IiB4MT0iMTUiIHgyPSIxNSIgeTE9IjQ2Ljk4NDQiIHkyPSIzNDQuNjI1Ii8+PHJlY3QgZmlsbD0iI0YxRjFGMSIgaGVpZ2h0PSIzMi44NDM4IiByeD0iMTIuNSIgcnk9IjEyLjUiIHN0eWxlPSJzdHJva2U6IzE4MTgxODtzdHJva2Utd2lkdGg6MC41OyIgd2lkdGg9IjE2NiIgeD0iMjIxIiB5PSIyMTYuOTM3NSIvPjx0ZXh0IGZpbGw9IiMwMDAwMDAiIGZvbnQtZmFtaWx5PSJzYW5zLXNlcmlmIiBmb250LXNpemU9IjEyIiBsZW5ndGhBZGp1c3Q9InNwYWNpbmciIHRleHRMZW5ndGg9IjE0NiIgeD0iMjMxIiB5PSIyMzguMjgxMyI+Q2hlY2tzIERlbGl2ZXJ5IFN0YXR1czwvdGV4dD48cmVjdCBmaWxsPSIjRjFGMUYxIiBoZWlnaHQ9IjMyLjg0MzgiIHJ4PSIxMi41IiByeT0iMTIuNSIgc3R5bGU9InN0cm9rZTojMTgxODE4O3N0cm9rZS13aWR0aDowLjU7IiB3aWR0aD0iMjI0IiB4PSIxOTIiIHk9IjI2OS43ODEzIi8+PHRleHQgZmlsbD0iIzAwMDAwMCIgZm9udC1mYW1pbHk9InNhbnMtc2VyaWYiIGZvbnQtc2l6ZT0iMTIiIGxlbmd0aEFkanVzdD0ic3BhY2luZyIgdGV4dExlbmd0aD0iMjA0IiB4PSIyMDIiIHk9IjI5MS4xMjUiPkNvbW11bmljYXRlcyBTdGF0dXMgdG8gQ3VzdG9tZXI8L3RleHQ+PGVsbGlwc2UgY3g9IjMwNCIgY3k9IjMzMy42MjUiIGZpbGw9Im5vbmUiIHJ4PSIxMSIgcnk9IjExIiBzdHlsZT0ic3Ryb2tlOiMyMjIyMjI7c3Ryb2tlLXdpZHRoOjEuMDsiLz48ZWxsaXBzZSBjeD0iMzA0IiBjeT0iMzMzLjYyNSIgZmlsbD0iIzIyMjIyMiIgcng9IjYiIHJ5PSI2IiBzdHlsZT0ic3Ryb2tlOiMyMjIyMjI7c3Ryb2tlLXdpZHRoOjEuMDsiLz48bGluZSBzdHlsZT0ic3Ryb2tlOiMwMDAwMDA7c3Ryb2tlLXdpZHRoOjEuNTsiIHgxPSIxODYiIHgyPSIxODYiIHkxPSI0Ni45ODQ0IiB5Mj0iMzQ0LjYyNSIvPjxsaW5lIHN0eWxlPSJzdHJva2U6IzAwMDAwMDtzdHJva2Utd2lkdGg6MS41OyIgeDE9IjQyMCIgeDI9IjQyMCIgeTE9IjQ2Ljk4NDQiIHkyPSIzNDQuNjI1Ii8+PGxpbmUgc3R5bGU9InN0cm9rZTojMTgxODE4O3N0cm9rZS13aWR0aDoxLjA7IiB4MT0iMTAxLjUiIHgyPSIxMDEuNSIgeTE9IjkxLjI1IiB5Mj0iMTExLjI1Ii8+PHBvbHlnb24gZmlsbD0iIzE4MTgxOCIgcG9pbnRzPSI5Ny41LDEwMS4yNSwxMDEuNSwxMTEuMjUsMTA1LjUsMTAxLjI1LDEwMS41LDEwNS4yNSIgc3R5bGU9InN0cm9rZTojMTgxODE4O3N0cm9rZS13aWR0aDoxLjA7Ii8+PGxpbmUgc3R5bGU9InN0cm9rZTojMTgxODE4O3N0cm9rZS13aWR0aDoxLjA7IiB4MT0iMTAxLjUiIHgyPSIxMDEuNSIgeTE9IjE0NC4wOTM4IiB5Mj0iMTY0LjA5MzgiLz48cG9seWdvbiBmaWxsPSIjMTgxODE4IiBwb2ludHM9Ijk3LjUsMTU0LjA5MzgsMTAxLjUsMTY0LjA5MzgsMTA1LjUsMTU0LjA5MzgsMTAxLjUsMTU4LjA5MzgiIHN0eWxlPSJzdHJva2U6IzE4MTgxODtzdHJva2Utd2lkdGg6MS4wOyIvPjxsaW5lIHN0eWxlPSJzdHJva2U6IzE4MTgxODtzdHJva2Utd2lkdGg6MS4wOyIgeDE9IjMwNCIgeDI9IjMwNCIgeTE9IjI0OS43ODEzIiB5Mj0iMjY5Ljc4MTMiLz48cG9seWdvbiBmaWxsPSIjMTgxODE4IiBwb2ludHM9IjMwMCwyNTkuNzgxMywzMDQsMjY5Ljc4MTMsMzA4LDI1OS43ODEzLDMwNCwyNjMuNzgxMyIgc3R5bGU9InN0cm9rZTojMTgxODE4O3N0cm9rZS13aWR0aDoxLjA7Ii8+PGxpbmUgc3R5bGU9InN0cm9rZTojMTgxODE4O3N0cm9rZS13aWR0aDoxLjA7IiB4MT0iMzA0IiB4Mj0iMzA0IiB5MT0iMzAyLjYyNSIgeTI9IjMyMi42MjUiLz48cG9seWdvbiBmaWxsPSIjMTgxODE4IiBwb2ludHM9IjMwMCwzMTIuNjI1LDMwNCwzMjIuNjI1LDMwOCwzMTIuNjI1LDMwNCwzMTYuNjI1IiBzdHlsZT0ic3Ryb2tlOiMxODE4MTg7c3Ryb2tlLXdpZHRoOjEuMDsiLz48bGluZSBzdHlsZT0ic3Ryb2tlOiMxODE4MTg7c3Ryb2tlLXdpZHRoOjEuMDsiIHgxPSIxMDEuNSIgeDI9IjEwMS41IiB5MT0iMTk2LjkzNzUiIHkyPSIyMDEuOTM3NSIvPjxsaW5lIHN0eWxlPSJzdHJva2U6IzE4MTgxODtzdHJva2Utd2lkdGg6MS4wOyIgeDE9IjEwMS41IiB4Mj0iMzA0IiB5MT0iMjAxLjkzNzUiIHkyPSIyMDEuOTM3NSIvPjxsaW5lIHN0eWxlPSJzdHJva2U6IzE4MTgxODtzdHJva2Utd2lkdGg6MS4wOyIgeDE9IjMwNCIgeDI9IjMwNCIgeTE9IjIwMS45Mzc1IiB5Mj0iMjE2LjkzNzUiLz48cG9seWdvbiBmaWxsPSIjMTgxODE4IiBwb2ludHM9IjMwMCwyMDYuOTM3NSwzMDQsMjE2LjkzNzUsMzA4LDIwNi45Mzc1LDMwNCwyMTAuOTM3NSIgc3R5bGU9InN0cm9rZTojMTgxODE4O3N0cm9rZS13aWR0aDoxLjA7Ii8+PHRleHQgZmlsbD0iIzAwMDAwMCIgZm9udC1mYW1pbHk9InNhbnMtc2VyaWYiIGZvbnQtc2l6ZT0iMTgiIGxlbmd0aEFkanVzdD0ic3BhY2luZyIgdGV4dExlbmd0aD0iNzIiIHg9IjY0LjUiIHk9IjY0Ij5DdXN0b21lcjwvdGV4dD48dGV4dCBmaWxsPSIjMDAwMDAwIiBmb250LWZhbWlseT0ic2Fucy1zZXJpZiIgZm9udC1zaXplPSIxOCIgbGVuZ3RoQWRqdXN0PSJzcGFjaW5nIiB0ZXh0TGVuZ3RoPSI0NSIgeD0iMjgwLjUiIHk9IjY0Ij5BZG1pbjwvdGV4dD48IS0tU1JDPVtIT3N6Mmk5MDQ4SnhVdWZ6MEdrbkl3ZUdVbUtMdy1Nb2EyTXZORFlUMThIeFVBX21mbms2Y1UtM09YUXc2eVU5QlpROHFMYmN0U0xVVEExN1ZwbzVxYy1FZENIQVNCMFhEN3JVbTE1RWtwOHpIdVB0d3pnNnZjZnZycTUtN0IzRXRlUEdrWTdmS2tmbmIzWnZ0dDAzT3drQklhbmZNcEdvbjN5ajhURk5OMWFyaDZ5MF0tLT48L2c+PC9zdmc+;" parent="1" vertex="1">
            <mxGeometry x="-561" y="1790" width="441" height="356" as="geometry" />
          </mxCell>
        </UserObject>
        <UserObject label="" plantUmlData="{&quot;data&quot;:&quot;@startuml\ntitle View Product Details - UC2\n\n|Customer|\nstart\n:Access WhatsApp Group;\n\n|Admin|\n:Provide Product Details including Images, Descriptions, and Prices;\n\n|Customer|\n:Review Product Details;\n\n:Make Purchasing Decision;\n\nstop\n@enduml\n&quot;,&quot;format&quot;:&quot;svg&quot;}" id="OlcV61gdzetprrhdvR_Y-4">
          <mxCell style="shape=image;noLabel=1;verticalAlign=top;aspect=fixed;imageAspect=0;image=data:image/svg+xml,PD94bWwgdmVyc2lvbj0iMS4wIiBlbmNvZGluZz0idXMtYXNjaWkiIHN0YW5kYWxvbmU9Im5vIj8+PHN2ZyB4bWxucz0iaHR0cDovL3d3dy53My5vcmcvMjAwMC9zdmciIHhtbG5zOnhsaW5rPSJodHRwOi8vd3d3LnczLm9yZy8xOTk5L3hsaW5rIiBjb250ZW50U3R5bGVUeXBlPSJ0ZXh0L2NzcyIgaGVpZ2h0PSIzNTZweCIgcHJlc2VydmVBc3BlY3RSYXRpbz0ibm9uZSIgc3R5bGU9IndpZHRoOjY5MXB4O2hlaWdodDozNTZweDtiYWNrZ3JvdW5kOiNGRkZGRkY7IiB2ZXJzaW9uPSIxLjEiIHZpZXdCb3g9IjAgMCA2OTEgMzU2IiB3aWR0aD0iNjkxcHgiIHpvb21BbmRQYW49Im1hZ25pZnkiPjxkZWZzLz48Zz48dGV4dCBmaWxsPSIjMDAwMDAwIiBmb250LWZhbWlseT0ic2Fucy1zZXJpZiIgZm9udC1zaXplPSIxNCIgZm9udC13ZWlnaHQ9ImJvbGQiIGxlbmd0aEFkanVzdD0ic3BhY2luZyIgdGV4dExlbmd0aD0iMTgzIiB4PSIyNTIuNzUiIHk9IjMzLjIzNDQiPlZpZXcgUHJvZHVjdCBEZXRhaWxzIC0gVUMyPC90ZXh0PjxyZWN0IGZpbGw9Im5vbmUiIGhlaWdodD0iMTkuMjY1NiIgc3R5bGU9InN0cm9rZTpub25lO3N0cm9rZS13aWR0aDoxLjA7IiB3aWR0aD0iNjU4LjUiIHg9IjE1IiB5PSI0Ni45ODQ0Ii8+PGVsbGlwc2UgY3g9IjExMSIgY3k9IjgxLjI1IiBmaWxsPSIjMjIyMjIyIiByeD0iMTAiIHJ5PSIxMCIgc3R5bGU9InN0cm9rZTojMjIyMjIyO3N0cm9rZS13aWR0aDoxLjA7Ii8+PHJlY3QgZmlsbD0iI0YxRjFGMSIgaGVpZ2h0PSIzMi44NDM4IiByeD0iMTIuNSIgcnk9IjEyLjUiIHN0eWxlPSJzdHJva2U6IzE4MTgxODtzdHJva2Utd2lkdGg6MC41OyIgd2lkdGg9IjE2MiIgeD0iMzAiIHk9IjExMS4yNSIvPjx0ZXh0IGZpbGw9IiMwMDAwMDAiIGZvbnQtZmFtaWx5PSJzYW5zLXNlcmlmIiBmb250LXNpemU9IjEyIiBsZW5ndGhBZGp1c3Q9InNwYWNpbmciIHRleHRMZW5ndGg9IjE0MiIgeD0iNDAiIHk9IjEzMi41OTM4Ij5BY2Nlc3MgV2hhdHNBcHAgR3JvdXA8L3RleHQ+PHJlY3QgZmlsbD0iI0YxRjFGMSIgaGVpZ2h0PSIzMi44NDM4IiByeD0iMTIuNSIgcnk9IjEyLjUiIHN0eWxlPSJzdHJva2U6IzE4MTgxODtzdHJva2Utd2lkdGg6MC41OyIgd2lkdGg9IjE2NSIgeD0iMjguNSIgeT0iMjE2LjkzNzUiLz48dGV4dCBmaWxsPSIjMDAwMDAwIiBmb250LWZhbWlseT0ic2Fucy1zZXJpZiIgZm9udC1zaXplPSIxMiIgbGVuZ3RoQWRqdXN0PSJzcGFjaW5nIiB0ZXh0TGVuZ3RoPSIxNDUiIHg9IjM4LjUiIHk9IjIzOC4yODEzIj5SZXZpZXcgUHJvZHVjdCBEZXRhaWxzPC90ZXh0PjxyZWN0IGZpbGw9IiNGMUYxRjEiIGhlaWdodD0iMzIuODQzOCIgcng9IjEyLjUiIHJ5PSIxMi41IiBzdHlsZT0ic3Ryb2tlOiMxODE4MTg7c3Ryb2tlLXdpZHRoOjAuNTsiIHdpZHRoPSIxODAiIHg9IjIxIiB5PSIyNjkuNzgxMyIvPjx0ZXh0IGZpbGw9IiMwMDAwMDAiIGZvbnQtZmFtaWx5PSJzYW5zLXNlcmlmIiBmb250LXNpemU9IjEyIiBsZW5ndGhBZGp1c3Q9InNwYWNpbmciIHRleHRMZW5ndGg9IjE2MCIgeD0iMzEiIHk9IjI5MS4xMjUiPk1ha2UgUHVyY2hhc2luZyBEZWNpc2lvbjwvdGV4dD48ZWxsaXBzZSBjeD0iMTExIiBjeT0iMzMzLjYyNSIgZmlsbD0ibm9uZSIgcng9IjExIiByeT0iMTEiIHN0eWxlPSJzdHJva2U6IzIyMjIyMjtzdHJva2Utd2lkdGg6MS4wOyIvPjxlbGxpcHNlIGN4PSIxMTEiIGN5PSIzMzMuNjI1IiBmaWxsPSIjMjIyMjIyIiByeD0iNiIgcnk9IjYiIHN0eWxlPSJzdHJva2U6IzIyMjIyMjtzdHJva2Utd2lkdGg6MS4wOyIvPjxsaW5lIHN0eWxlPSJzdHJva2U6IzAwMDAwMDtzdHJva2Utd2lkdGg6MS41OyIgeDE9IjE1IiB4Mj0iMTUiIHkxPSI0Ni45ODQ0IiB5Mj0iMzQ0LjYyNSIvPjxyZWN0IGZpbGw9IiNGMUYxRjEiIGhlaWdodD0iMzIuODQzOCIgcng9IjEyLjUiIHJ5PSIxMi41IiBzdHlsZT0ic3Ryb2tlOiMxODE4MTg7c3Ryb2tlLXdpZHRoOjAuNTsiIHdpZHRoPSI0NTUiIHg9IjIxMSIgeT0iMTY0LjA5MzgiLz48dGV4dCBmaWxsPSIjMDAwMDAwIiBmb250LWZhbWlseT0ic2Fucy1zZXJpZiIgZm9udC1zaXplPSIxMiIgbGVuZ3RoQWRqdXN0PSJzcGFjaW5nIiB0ZXh0TGVuZ3RoPSI0MzUiIHg9IjIyMSIgeT0iMTg1LjQzNzUiPlByb3ZpZGUgUHJvZHVjdCBEZXRhaWxzIGluY2x1ZGluZyBJbWFnZXMsIERlc2NyaXB0aW9ucywgYW5kIFByaWNlczwvdGV4dD48bGluZSBzdHlsZT0ic3Ryb2tlOiMwMDAwMDA7c3Ryb2tlLXdpZHRoOjEuNTsiIHgxPSIyMDUiIHgyPSIyMDUiIHkxPSI0Ni45ODQ0IiB5Mj0iMzQ0LjYyNSIvPjxsaW5lIHN0eWxlPSJzdHJva2U6IzAwMDAwMDtzdHJva2Utd2lkdGg6MS41OyIgeDE9IjY3MCIgeDI9IjY3MCIgeTE9IjQ2Ljk4NDQiIHkyPSIzNDQuNjI1Ii8+PGxpbmUgc3R5bGU9InN0cm9rZTojMTgxODE4O3N0cm9rZS13aWR0aDoxLjA7IiB4MT0iMTExIiB4Mj0iMTExIiB5MT0iOTEuMjUiIHkyPSIxMTEuMjUiLz48cG9seWdvbiBmaWxsPSIjMTgxODE4IiBwb2ludHM9IjEwNywxMDEuMjUsMTExLDExMS4yNSwxMTUsMTAxLjI1LDExMSwxMDUuMjUiIHN0eWxlPSJzdHJva2U6IzE4MTgxODtzdHJva2Utd2lkdGg6MS4wOyIvPjxsaW5lIHN0eWxlPSJzdHJva2U6IzE4MTgxODtzdHJva2Utd2lkdGg6MS4wOyIgeDE9IjExMSIgeDI9IjExMSIgeTE9IjI0OS43ODEzIiB5Mj0iMjY5Ljc4MTMiLz48cG9seWdvbiBmaWxsPSIjMTgxODE4IiBwb2ludHM9IjEwNywyNTkuNzgxMywxMTEsMjY5Ljc4MTMsMTE1LDI1OS43ODEzLDExMSwyNjMuNzgxMyIgc3R5bGU9InN0cm9rZTojMTgxODE4O3N0cm9rZS13aWR0aDoxLjA7Ii8+PGxpbmUgc3R5bGU9InN0cm9rZTojMTgxODE4O3N0cm9rZS13aWR0aDoxLjA7IiB4MT0iMTExIiB4Mj0iMTExIiB5MT0iMzAyLjYyNSIgeTI9IjMyMi42MjUiLz48cG9seWdvbiBmaWxsPSIjMTgxODE4IiBwb2ludHM9IjEwNywzMTIuNjI1LDExMSwzMjIuNjI1LDExNSwzMTIuNjI1LDExMSwzMTYuNjI1IiBzdHlsZT0ic3Ryb2tlOiMxODE4MTg7c3Ryb2tlLXdpZHRoOjEuMDsiLz48bGluZSBzdHlsZT0ic3Ryb2tlOiMxODE4MTg7c3Ryb2tlLXdpZHRoOjEuMDsiIHgxPSIxMTEiIHgyPSIxMTEiIHkxPSIxNDQuMDkzOCIgeTI9IjE0OS4wOTM4Ii8+PGxpbmUgc3R5bGU9InN0cm9rZTojMTgxODE4O3N0cm9rZS13aWR0aDoxLjA7IiB4MT0iMTExIiB4Mj0iNDM4LjUiIHkxPSIxNDkuMDkzOCIgeTI9IjE0OS4wOTM4Ii8+PGxpbmUgc3R5bGU9InN0cm9rZTojMTgxODE4O3N0cm9rZS13aWR0aDoxLjA7IiB4MT0iNDM4LjUiIHgyPSI0MzguNSIgeTE9IjE0OS4wOTM4IiB5Mj0iMTY0LjA5MzgiLz48cG9seWdvbiBmaWxsPSIjMTgxODE4IiBwb2ludHM9IjQzNC41LDE1NC4wOTM4LDQzOC41LDE2NC4wOTM4LDQ0Mi41LDE1NC4wOTM4LDQzOC41LDE1OC4wOTM4IiBzdHlsZT0ic3Ryb2tlOiMxODE4MTg7c3Ryb2tlLXdpZHRoOjEuMDsiLz48bGluZSBzdHlsZT0ic3Ryb2tlOiMxODE4MTg7c3Ryb2tlLXdpZHRoOjEuMDsiIHgxPSI0MzguNSIgeDI9IjQzOC41IiB5MT0iMTk2LjkzNzUiIHkyPSIyMDEuOTM3NSIvPjxsaW5lIHN0eWxlPSJzdHJva2U6IzE4MTgxODtzdHJva2Utd2lkdGg6MS4wOyIgeDE9IjQzOC41IiB4Mj0iMTExIiB5MT0iMjAxLjkzNzUiIHkyPSIyMDEuOTM3NSIvPjxsaW5lIHN0eWxlPSJzdHJva2U6IzE4MTgxODtzdHJva2Utd2lkdGg6MS4wOyIgeDE9IjExMSIgeDI9IjExMSIgeTE9IjIwMS45Mzc1IiB5Mj0iMjE2LjkzNzUiLz48cG9seWdvbiBmaWxsPSIjMTgxODE4IiBwb2ludHM9IjEwNywyMDYuOTM3NSwxMTEsMjE2LjkzNzUsMTE1LDIwNi45Mzc1LDExMSwyMTAuOTM3NSIgc3R5bGU9InN0cm9rZTojMTgxODE4O3N0cm9rZS13aWR0aDoxLjA7Ii8+PHRleHQgZmlsbD0iIzAwMDAwMCIgZm9udC1mYW1pbHk9InNhbnMtc2VyaWYiIGZvbnQtc2l6ZT0iMTgiIGxlbmd0aEFkanVzdD0ic3BhY2luZyIgdGV4dExlbmd0aD0iNzIiIHg9Ijc0IiB5PSI2NCI+Q3VzdG9tZXI8L3RleHQ+PHRleHQgZmlsbD0iIzAwMDAwMCIgZm9udC1mYW1pbHk9InNhbnMtc2VyaWYiIGZvbnQtc2l6ZT0iMTgiIGxlbmd0aEFkanVzdD0ic3BhY2luZyIgdGV4dExlbmd0aD0iNDUiIHg9IjQxNSIgeT0iNjQiPkFkbWluPC90ZXh0PjwhLS1TUkM9W1JPd24zaThtMzRKdFY4S18wMVI2VDhmUTJKNFc4SUhXWlhBaGpNWUpBN1JBcWVfN1owWjZxenN6RW82UDRVdzRCeFpLNzVpRzY1MHlwR254a0ZLN094US1pVUc1d3NQT1YxTFpOR1o4MzhfOTJ4akl1NVhwQXZxY05MbWVSU09nUVFNOEZxSEFPTXdIcVdZZG5PXzhFdEt1TDJmMkVRZG9BTWc3YkR2enhUZWhoZHlVUWlZVV9MRHRNV3NKdm16dW00MmlERk1xTlR1MF0tLT48L2c+PC9zdmc+;" parent="1" vertex="1">
            <mxGeometry x="-1280" y="838" width="691" height="356" as="geometry" />
          </mxCell>
        </UserObject>
        <mxCell id="IBJdU9s1SxhIxIOT5llA-2" value="&lt;font style=&quot;font-size: 48px;&quot;&gt;&lt;b&gt;Customer&lt;/b&gt;&lt;/font&gt;" style="text;html=1;align=center;verticalAlign=middle;resizable=0;points=[];autosize=1;strokeColor=none;fillColor=none;" parent="1" vertex="1">
          <mxGeometry x="-474" y="325" width="250" height="70" as="geometry" />
        </mxCell>
        <mxCell id="IBJdU9s1SxhIxIOT5llA-4" value="&lt;font style=&quot;font-size: 48px;&quot;&gt;&lt;b&gt;Shop Owner/Admin&lt;/b&gt;&lt;/font&gt;" style="text;html=1;align=center;verticalAlign=middle;resizable=0;points=[];autosize=1;strokeColor=none;fillColor=none;" parent="1" vertex="1">
          <mxGeometry x="850" y="395" width="470" height="70" as="geometry" />
        </mxCell>
        <UserObject label="" plantUmlData="{&quot;data&quot;:&quot;@startuml\ntitle Verify Payment Manually - UC5\n\n|Customer|\nstart\n:Initiate Payment;\n:Notify Admin of Payment;\n:Send Bank Payment receipt to Admin;\n\n\n|Admin|\n:Check whatsapp to patment receipt;\n:Check Bank Records;\n:Verify Payment;\n:Update customer about payment;\n\nstop\n@enduml\n&quot;,&quot;format&quot;:&quot;svg&quot;}" id="IBJdU9s1SxhIxIOT5llA-7">
          <mxCell style="shape=image;noLabel=1;verticalAlign=top;aspect=fixed;imageAspect=0;image=data:image/svg+xml,PD94bWwgdmVyc2lvbj0iMS4wIiBlbmNvZGluZz0idXMtYXNjaWkiIHN0YW5kYWxvbmU9Im5vIj8+PHN2ZyB4bWxucz0iaHR0cDovL3d3dy53My5vcmcvMjAwMC9zdmciIHhtbG5zOnhsaW5rPSJodHRwOi8vd3d3LnczLm9yZy8xOTk5L3hsaW5rIiBjb250ZW50U3R5bGVUeXBlPSJ0ZXh0L2NzcyIgaGVpZ2h0PSI1MTVweCIgcHJlc2VydmVBc3BlY3RSYXRpbz0ibm9uZSIgc3R5bGU9IndpZHRoOjUzNnB4O2hlaWdodDo1MTVweDtiYWNrZ3JvdW5kOiNGRkZGRkY7IiB2ZXJzaW9uPSIxLjEiIHZpZXdCb3g9IjAgMCA1MzYgNTE1IiB3aWR0aD0iNTM2cHgiIHpvb21BbmRQYW49Im1hZ25pZnkiPjxkZWZzLz48Zz48dGV4dCBmaWxsPSIjMDAwMDAwIiBmb250LWZhbWlseT0ic2Fucy1zZXJpZiIgZm9udC1zaXplPSIxNCIgZm9udC13ZWlnaHQ9ImJvbGQiIGxlbmd0aEFkanVzdD0ic3BhY2luZyIgdGV4dExlbmd0aD0iMjA0IiB4PSIxNjQuNzUiIHk9IjMzLjIzNDQiPlZlcmlmeSBQYXltZW50IE1hbnVhbGx5IC0gVUM1PC90ZXh0PjxyZWN0IGZpbGw9Im5vbmUiIGhlaWdodD0iMTkuMjY1NiIgc3R5bGU9InN0cm9rZTpub25lO3N0cm9rZS13aWR0aDoxLjA7IiB3aWR0aD0iNTAzLjUiIHg9IjE1IiB5PSI0Ni45ODQ0Ii8+PGVsbGlwc2UgY3g9IjE0MyIgY3k9IjgxLjI1IiBmaWxsPSIjMjIyMjIyIiByeD0iMTAiIHJ5PSIxMCIgc3R5bGU9InN0cm9rZTojMjIyMjIyO3N0cm9rZS13aWR0aDoxLjA7Ii8+PHJlY3QgZmlsbD0iI0YxRjFGMSIgaGVpZ2h0PSIzMi44NDM4IiByeD0iMTIuNSIgcnk9IjEyLjUiIHN0eWxlPSJzdHJva2U6IzE4MTgxODtzdHJva2Utd2lkdGg6MC41OyIgd2lkdGg9IjEyNCIgeD0iODEiIHk9IjExMS4yNSIvPjx0ZXh0IGZpbGw9IiMwMDAwMDAiIGZvbnQtZmFtaWx5PSJzYW5zLXNlcmlmIiBmb250LXNpemU9IjEyIiBsZW5ndGhBZGp1c3Q9InNwYWNpbmciIHRleHRMZW5ndGg9IjEwNCIgeD0iOTEiIHk9IjEzMi41OTM4Ij5Jbml0aWF0ZSBQYXltZW50PC90ZXh0PjxyZWN0IGZpbGw9IiNGMUYxRjEiIGhlaWdodD0iMzIuODQzOCIgcng9IjEyLjUiIHJ5PSIxMi41IiBzdHlsZT0ic3Ryb2tlOiMxODE4MTg7c3Ryb2tlLXdpZHRoOjAuNTsiIHdpZHRoPSIxNzAiIHg9IjU4IiB5PSIxNjQuMDkzOCIvPjx0ZXh0IGZpbGw9IiMwMDAwMDAiIGZvbnQtZmFtaWx5PSJzYW5zLXNlcmlmIiBmb250LXNpemU9IjEyIiBsZW5ndGhBZGp1c3Q9InNwYWNpbmciIHRleHRMZW5ndGg9IjE1MCIgeD0iNjgiIHk9IjE4NS40Mzc1Ij5Ob3RpZnkgQWRtaW4gb2YgUGF5bWVudDwvdGV4dD48cmVjdCBmaWxsPSIjRjFGMUYxIiBoZWlnaHQ9IjMyLjg0MzgiIHJ4PSIxMi41IiByeT0iMTIuNSIgc3R5bGU9InN0cm9rZTojMTgxODE4O3N0cm9rZS13aWR0aDowLjU7IiB3aWR0aD0iMjQ0IiB4PSIyMSIgeT0iMjE2LjkzNzUiLz48dGV4dCBmaWxsPSIjMDAwMDAwIiBmb250LWZhbWlseT0ic2Fucy1zZXJpZiIgZm9udC1zaXplPSIxMiIgbGVuZ3RoQWRqdXN0PSJzcGFjaW5nIiB0ZXh0TGVuZ3RoPSIyMjQiIHg9IjMxIiB5PSIyMzguMjgxMyI+U2VuZCBCYW5rIFBheW1lbnQgcmVjZWlwdCB0byBBZG1pbjwvdGV4dD48bGluZSBzdHlsZT0ic3Ryb2tlOiMwMDAwMDA7c3Ryb2tlLXdpZHRoOjEuNTsiIHgxPSIxNSIgeDI9IjE1IiB5MT0iNDYuOTg0NCIgeTI9IjUwMy4xNTYzIi8+PHJlY3QgZmlsbD0iI0YxRjFGMSIgaGVpZ2h0PSIzMi44NDM4IiByeD0iMTIuNSIgcnk9IjEyLjUiIHN0eWxlPSJzdHJva2U6IzE4MTgxODtzdHJva2Utd2lkdGg6MC41OyIgd2lkdGg9IjIzNiIgeD0iMjc1IiB5PSIyNjkuNzgxMyIvPjx0ZXh0IGZpbGw9IiMwMDAwMDAiIGZvbnQtZmFtaWx5PSJzYW5zLXNlcmlmIiBmb250LXNpemU9IjEyIiBsZW5ndGhBZGp1c3Q9InNwYWNpbmciIHRleHRMZW5ndGg9IjIxNiIgeD0iMjg1IiB5PSIyOTEuMTI1Ij5DaGVjayB3aGF0c2FwcCB0byBwYXRtZW50IHJlY2VpcHQ8L3RleHQ+PHJlY3QgZmlsbD0iI0YxRjFGMSIgaGVpZ2h0PSIzMi44NDM4IiByeD0iMTIuNSIgcnk9IjEyLjUiIHN0eWxlPSJzdHJva2U6IzE4MTgxODtzdHJva2Utd2lkdGg6MC41OyIgd2lkdGg9IjE0MCIgeD0iMzIzIiB5PSIzMjIuNjI1Ii8+PHRleHQgZmlsbD0iIzAwMDAwMCIgZm9udC1mYW1pbHk9InNhbnMtc2VyaWYiIGZvbnQtc2l6ZT0iMTIiIGxlbmd0aEFkanVzdD0ic3BhY2luZyIgdGV4dExlbmd0aD0iMTIwIiB4PSIzMzMiIHk9IjM0My45Njg4Ij5DaGVjayBCYW5rIFJlY29yZHM8L3RleHQ+PHJlY3QgZmlsbD0iI0YxRjFGMSIgaGVpZ2h0PSIzMi44NDM4IiByeD0iMTIuNSIgcnk9IjEyLjUiIHN0eWxlPSJzdHJva2U6IzE4MTgxODtzdHJva2Utd2lkdGg6MC41OyIgd2lkdGg9IjExMyIgeD0iMzM2LjUiIHk9IjM3NS40Njg4Ii8+PHRleHQgZmlsbD0iIzAwMDAwMCIgZm9udC1mYW1pbHk9InNhbnMtc2VyaWYiIGZvbnQtc2l6ZT0iMTIiIGxlbmd0aEFkanVzdD0ic3BhY2luZyIgdGV4dExlbmd0aD0iOTMiIHg9IjM0Ni41IiB5PSIzOTYuODEyNSI+VmVyaWZ5IFBheW1lbnQ8L3RleHQ+PHJlY3QgZmlsbD0iI0YxRjFGMSIgaGVpZ2h0PSIzMi44NDM4IiByeD0iMTIuNSIgcnk9IjEyLjUiIHN0eWxlPSJzdHJva2U6IzE4MTgxODtzdHJva2Utd2lkdGg6MC41OyIgd2lkdGg9IjIxMyIgeD0iMjg2LjUiIHk9IjQyOC4zMTI1Ii8+PHRleHQgZmlsbD0iIzAwMDAwMCIgZm9udC1mYW1pbHk9InNhbnMtc2VyaWYiIGZvbnQtc2l6ZT0iMTIiIGxlbmd0aEFkanVzdD0ic3BhY2luZyIgdGV4dExlbmd0aD0iMTkzIiB4PSIyOTYuNSIgeT0iNDQ5LjY1NjMiPlVwZGF0ZSBjdXN0b21lciBhYm91dCBwYXltZW50PC90ZXh0PjxlbGxpcHNlIGN4PSIzOTMiIGN5PSI0OTIuMTU2MyIgZmlsbD0ibm9uZSIgcng9IjExIiByeT0iMTEiIHN0eWxlPSJzdHJva2U6IzIyMjIyMjtzdHJva2Utd2lkdGg6MS4wOyIvPjxlbGxpcHNlIGN4PSIzOTMiIGN5PSI0OTIuMTU2MyIgZmlsbD0iIzIyMjIyMiIgcng9IjYiIHJ5PSI2IiBzdHlsZT0ic3Ryb2tlOiMyMjIyMjI7c3Ryb2tlLXdpZHRoOjEuMDsiLz48bGluZSBzdHlsZT0ic3Ryb2tlOiMwMDAwMDA7c3Ryb2tlLXdpZHRoOjEuNTsiIHgxPSIyNjkiIHgyPSIyNjkiIHkxPSI0Ni45ODQ0IiB5Mj0iNTAzLjE1NjMiLz48bGluZSBzdHlsZT0ic3Ryb2tlOiMwMDAwMDA7c3Ryb2tlLXdpZHRoOjEuNTsiIHgxPSI1MTUiIHgyPSI1MTUiIHkxPSI0Ni45ODQ0IiB5Mj0iNTAzLjE1NjMiLz48bGluZSBzdHlsZT0ic3Ryb2tlOiMxODE4MTg7c3Ryb2tlLXdpZHRoOjEuMDsiIHgxPSIxNDMiIHgyPSIxNDMiIHkxPSI5MS4yNSIgeTI9IjExMS4yNSIvPjxwb2x5Z29uIGZpbGw9IiMxODE4MTgiIHBvaW50cz0iMTM5LDEwMS4yNSwxNDMsMTExLjI1LDE0NywxMDEuMjUsMTQzLDEwNS4yNSIgc3R5bGU9InN0cm9rZTojMTgxODE4O3N0cm9rZS13aWR0aDoxLjA7Ii8+PGxpbmUgc3R5bGU9InN0cm9rZTojMTgxODE4O3N0cm9rZS13aWR0aDoxLjA7IiB4MT0iMTQzIiB4Mj0iMTQzIiB5MT0iMTQ0LjA5MzgiIHkyPSIxNjQuMDkzOCIvPjxwb2x5Z29uIGZpbGw9IiMxODE4MTgiIHBvaW50cz0iMTM5LDE1NC4wOTM4LDE0MywxNjQuMDkzOCwxNDcsMTU0LjA5MzgsMTQzLDE1OC4wOTM4IiBzdHlsZT0ic3Ryb2tlOiMxODE4MTg7c3Ryb2tlLXdpZHRoOjEuMDsiLz48bGluZSBzdHlsZT0ic3Ryb2tlOiMxODE4MTg7c3Ryb2tlLXdpZHRoOjEuMDsiIHgxPSIxNDMiIHgyPSIxNDMiIHkxPSIxOTYuOTM3NSIgeTI9IjIxNi45Mzc1Ii8+PHBvbHlnb24gZmlsbD0iIzE4MTgxOCIgcG9pbnRzPSIxMzksMjA2LjkzNzUsMTQzLDIxNi45Mzc1LDE0NywyMDYuOTM3NSwxNDMsMjEwLjkzNzUiIHN0eWxlPSJzdHJva2U6IzE4MTgxODtzdHJva2Utd2lkdGg6MS4wOyIvPjxsaW5lIHN0eWxlPSJzdHJva2U6IzE4MTgxODtzdHJva2Utd2lkdGg6MS4wOyIgeDE9IjM5MyIgeDI9IjM5MyIgeTE9IjMwMi42MjUiIHkyPSIzMjIuNjI1Ii8+PHBvbHlnb24gZmlsbD0iIzE4MTgxOCIgcG9pbnRzPSIzODksMzEyLjYyNSwzOTMsMzIyLjYyNSwzOTcsMzEyLjYyNSwzOTMsMzE2LjYyNSIgc3R5bGU9InN0cm9rZTojMTgxODE4O3N0cm9rZS13aWR0aDoxLjA7Ii8+PGxpbmUgc3R5bGU9InN0cm9rZTojMTgxODE4O3N0cm9rZS13aWR0aDoxLjA7IiB4MT0iMzkzIiB4Mj0iMzkzIiB5MT0iMzU1LjQ2ODgiIHkyPSIzNzUuNDY4OCIvPjxwb2x5Z29uIGZpbGw9IiMxODE4MTgiIHBvaW50cz0iMzg5LDM2NS40Njg4LDM5MywzNzUuNDY4OCwzOTcsMzY1LjQ2ODgsMzkzLDM2OS40Njg4IiBzdHlsZT0ic3Ryb2tlOiMxODE4MTg7c3Ryb2tlLXdpZHRoOjEuMDsiLz48bGluZSBzdHlsZT0ic3Ryb2tlOiMxODE4MTg7c3Ryb2tlLXdpZHRoOjEuMDsiIHgxPSIzOTMiIHgyPSIzOTMiIHkxPSI0MDguMzEyNSIgeTI9IjQyOC4zMTI1Ii8+PHBvbHlnb24gZmlsbD0iIzE4MTgxOCIgcG9pbnRzPSIzODksNDE4LjMxMjUsMzkzLDQyOC4zMTI1LDM5Nyw0MTguMzEyNSwzOTMsNDIyLjMxMjUiIHN0eWxlPSJzdHJva2U6IzE4MTgxODtzdHJva2Utd2lkdGg6MS4wOyIvPjxsaW5lIHN0eWxlPSJzdHJva2U6IzE4MTgxODtzdHJva2Utd2lkdGg6MS4wOyIgeDE9IjM5MyIgeDI9IjM5MyIgeTE9IjQ2MS4xNTYzIiB5Mj0iNDgxLjE1NjMiLz48cG9seWdvbiBmaWxsPSIjMTgxODE4IiBwb2ludHM9IjM4OSw0NzEuMTU2MywzOTMsNDgxLjE1NjMsMzk3LDQ3MS4xNTYzLDM5Myw0NzUuMTU2MyIgc3R5bGU9InN0cm9rZTojMTgxODE4O3N0cm9rZS13aWR0aDoxLjA7Ii8+PGxpbmUgc3R5bGU9InN0cm9rZTojMTgxODE4O3N0cm9rZS13aWR0aDoxLjA7IiB4MT0iMTQzIiB4Mj0iMTQzIiB5MT0iMjQ5Ljc4MTMiIHkyPSIyNTQuNzgxMyIvPjxsaW5lIHN0eWxlPSJzdHJva2U6IzE4MTgxODtzdHJva2Utd2lkdGg6MS4wOyIgeDE9IjE0MyIgeDI9IjM5MyIgeTE9IjI1NC43ODEzIiB5Mj0iMjU0Ljc4MTMiLz48bGluZSBzdHlsZT0ic3Ryb2tlOiMxODE4MTg7c3Ryb2tlLXdpZHRoOjEuMDsiIHgxPSIzOTMiIHgyPSIzOTMiIHkxPSIyNTQuNzgxMyIgeTI9IjI2OS43ODEzIi8+PHBvbHlnb24gZmlsbD0iIzE4MTgxOCIgcG9pbnRzPSIzODksMjU5Ljc4MTMsMzkzLDI2OS43ODEzLDM5NywyNTkuNzgxMywzOTMsMjYzLjc4MTMiIHN0eWxlPSJzdHJva2U6IzE4MTgxODtzdHJva2Utd2lkdGg6MS4wOyIvPjx0ZXh0IGZpbGw9IiMwMDAwMDAiIGZvbnQtZmFtaWx5PSJzYW5zLXNlcmlmIiBmb250LXNpemU9IjE4IiBsZW5ndGhBZGp1c3Q9InNwYWNpbmciIHRleHRMZW5ndGg9IjcyIiB4PSIxMDYiIHk9IjY0Ij5DdXN0b21lcjwvdGV4dD48dGV4dCBmaWxsPSIjMDAwMDAwIiBmb250LWZhbWlseT0ic2Fucy1zZXJpZiIgZm9udC1zaXplPSIxOCIgbGVuZ3RoQWRqdXN0PSJzcGFjaW5nIiB0ZXh0TGVuZ3RoPSI0NSIgeD0iMzY5LjUiIHk9IjY0Ij5BZG1pbjwvdGV4dD48IS0tU1JDPVtMSy16M2U4bTREeGxBVXU1NzVyV0tZTzdaVDcwVmhQN1E4MnNRT3lPNFh4VVdjMW1rdHB0X09nSFpoN1lPRWVIeHBKc1IwTWxQMFZna1g0Rk0xUDdXQWFPZWhZVW1tSEhBMFhhNXNsNGFGMGNvSTZ4RVBhekpoZXQ1YnN6LXBwUFFab0pSTnkxV0hLUkJvWmtveXlYWElwTjE1ZEhpNmhudFAxNHlkeGNVOUF6QkR5dVktVTNiR2l3OWwxX0hHOUFoLVVFUWNzRno3QTM5QlZyZHlPdV9tNDBdLS0+PC9nPjwvc3ZnPg==;" parent="1" vertex="1">
            <mxGeometry x="100" y="1340" width="536" height="515" as="geometry" />
          </mxCell>
        </UserObject>
        <UserObject label="" plantUmlData="{&quot;data&quot;:&quot;@startuml\ntitle Review Return Requests and Inquiries - UC8\n|Customer|\nstart\n:Send Return Request via WhatsApp;\n\n|Admin|\n:Receive Return Request;\n:Review Return Reason and Photos;\n:Approve or Reject Return Request;\n:Notify Customer of Decision;\n\nnote right: If Approved\n|Admin|\n:Arrange for Return Shipment;\n:Verify Returned Item;\n:Initiate Refund or Replacement;\n\nstop\n@enduml\n&quot;,&quot;format&quot;:&quot;svg&quot;}" id="IBJdU9s1SxhIxIOT5llA-8">
          <mxCell style="shape=image;noLabel=1;verticalAlign=top;aspect=fixed;imageAspect=0;image=data:image/svg+xml,PD94bWwgdmVyc2lvbj0iMS4wIiBlbmNvZGluZz0idXMtYXNjaWkiIHN0YW5kYWxvbmU9Im5vIj8+PHN2ZyB4bWxucz0iaHR0cDovL3d3dy53My5vcmcvMjAwMC9zdmciIHhtbG5zOnhsaW5rPSJodHRwOi8vd3d3LnczLm9yZy8xOTk5L3hsaW5rIiBjb250ZW50U3R5bGVUeXBlPSJ0ZXh0L2NzcyIgaGVpZ2h0PSI1NjhweCIgcHJlc2VydmVBc3BlY3RSYXRpbz0ibm9uZSIgc3R5bGU9IndpZHRoOjYyNXB4O2hlaWdodDo1NjhweDtiYWNrZ3JvdW5kOiNGRkZGRkY7IiB2ZXJzaW9uPSIxLjEiIHZpZXdCb3g9IjAgMCA2MjUgNTY4IiB3aWR0aD0iNjI1cHgiIHpvb21BbmRQYW49Im1hZ25pZnkiPjxkZWZzLz48Zz48dGV4dCBmaWxsPSIjMDAwMDAwIiBmb250LWZhbWlseT0ic2Fucy1zZXJpZiIgZm9udC1zaXplPSIxNCIgZm9udC13ZWlnaHQ9ImJvbGQiIGxlbmd0aEFkanVzdD0ic3BhY2luZyIgdGV4dExlbmd0aD0iMjk1IiB4PSIxNjMuNzUiIHk9IjMzLjIzNDQiPlJldmlldyBSZXR1cm4gUmVxdWVzdHMgYW5kIElucXVpcmllcyAtIFVDODwvdGV4dD48cmVjdCBmaWxsPSJub25lIiBoZWlnaHQ9IjE5LjI2NTYiIHN0eWxlPSJzdHJva2U6bm9uZTtzdHJva2Utd2lkdGg6MS4wOyIgd2lkdGg9IjU5Mi41IiB4PSIxNSIgeT0iNDYuOTg0NCIvPjxlbGxpcHNlIGN4PSIxMzkiIGN5PSI4MS4yNSIgZmlsbD0iIzIyMjIyMiIgcng9IjEwIiByeT0iMTAiIHN0eWxlPSJzdHJva2U6IzIyMjIyMjtzdHJva2Utd2lkdGg6MS4wOyIvPjxyZWN0IGZpbGw9IiNGMUYxRjEiIGhlaWdodD0iMzIuODQzOCIgcng9IjEyLjUiIHJ5PSIxMi41IiBzdHlsZT0ic3Ryb2tlOiMxODE4MTg7c3Ryb2tlLXdpZHRoOjAuNTsiIHdpZHRoPSIyMzYiIHg9IjIxIiB5PSIxMTEuMjUiLz48dGV4dCBmaWxsPSIjMDAwMDAwIiBmb250LWZhbWlseT0ic2Fucy1zZXJpZiIgZm9udC1zaXplPSIxMiIgbGVuZ3RoQWRqdXN0PSJzcGFjaW5nIiB0ZXh0TGVuZ3RoPSIyMTYiIHg9IjMxIiB5PSIxMzIuNTkzOCI+U2VuZCBSZXR1cm4gUmVxdWVzdCB2aWEgV2hhdHNBcHA8L3RleHQ+PGxpbmUgc3R5bGU9InN0cm9rZTojMDAwMDAwO3N0cm9rZS13aWR0aDoxLjU7IiB4MT0iMTUiIHgyPSIxNSIgeTE9IjQ2Ljk4NDQiIHkyPSI1NTYiLz48cmVjdCBmaWxsPSIjRjFGMUYxIiBoZWlnaHQ9IjMyLjg0MzgiIHJ4PSIxMi41IiByeT0iMTIuNSIgc3R5bGU9InN0cm9rZTojMTgxODE4O3N0cm9rZS13aWR0aDowLjU7IiB3aWR0aD0iMTY4IiB4PSIzMDAuNSIgeT0iMTY0LjA5MzgiLz48dGV4dCBmaWxsPSIjMDAwMDAwIiBmb250LWZhbWlseT0ic2Fucy1zZXJpZiIgZm9udC1zaXplPSIxMiIgbGVuZ3RoQWRqdXN0PSJzcGFjaW5nIiB0ZXh0TGVuZ3RoPSIxNDgiIHg9IjMxMC41IiB5PSIxODUuNDM3NSI+UmVjZWl2ZSBSZXR1cm4gUmVxdWVzdDwvdGV4dD48cmVjdCBmaWxsPSIjRjFGMUYxIiBoZWlnaHQ9IjMyLjg0MzgiIHJ4PSIxMi41IiByeT0iMTIuNSIgc3R5bGU9InN0cm9rZTojMTgxODE4O3N0cm9rZS13aWR0aDowLjU7IiB3aWR0aD0iMjI5IiB4PSIyNzAiIHk9IjIxNi45Mzc1Ii8+PHRleHQgZmlsbD0iIzAwMDAwMCIgZm9udC1mYW1pbHk9InNhbnMtc2VyaWYiIGZvbnQtc2l6ZT0iMTIiIGxlbmd0aEFkanVzdD0ic3BhY2luZyIgdGV4dExlbmd0aD0iMjA5IiB4PSIyODAiIHk9IjIzOC4yODEzIj5SZXZpZXcgUmV0dXJuIFJlYXNvbiBhbmQgUGhvdG9zPC90ZXh0PjxyZWN0IGZpbGw9IiNGMUYxRjEiIGhlaWdodD0iMzIuODQzOCIgcng9IjEyLjUiIHJ5PSIxMi41IiBzdHlsZT0ic3Ryb2tlOiMxODE4MTg7c3Ryb2tlLXdpZHRoOjAuNTsiIHdpZHRoPSIyMzUiIHg9IjI2NyIgeT0iMjY5Ljc4MTMiLz48dGV4dCBmaWxsPSIjMDAwMDAwIiBmb250LWZhbWlseT0ic2Fucy1zZXJpZiIgZm9udC1zaXplPSIxMiIgbGVuZ3RoQWRqdXN0PSJzcGFjaW5nIiB0ZXh0TGVuZ3RoPSIyMTUiIHg9IjI3NyIgeT0iMjkxLjEyNSI+QXBwcm92ZSBvciBSZWplY3QgUmV0dXJuIFJlcXVlc3Q8L3RleHQ+PHBhdGggZD0iTTUwMywzMjcuMDg5OCBMNTAzLDMzNS4wNDY5IEw0ODMsMzM5LjA0NjkgTDUwMywzNDMuMDQ2OSBMNTAzLDM1MS4wMDM5IEEwLDAgMCAwIDAgNTAzLDM1MS4wMDM5IEw1OTksMzUxLjAwMzkgQTAsMCAwIDAgMCA1OTksMzUxLjAwMzkgTDU5OSwzMzcuMDg5OCBMNTg5LDMyNy4wODk4IEw1MDMsMzI3LjA4OTggQTAsMCAwIDAgMCA1MDMsMzI3LjA4OTggIiBmaWxsPSIjRkVGRkREIiBzdHlsZT0ic3Ryb2tlOiMxODE4MTg7c3Ryb2tlLXdpZHRoOjAuNTsiLz48cGF0aCBkPSJNNTg5LDMyNy4wODk4IEw1ODksMzM3LjA4OTggTDU5OSwzMzcuMDg5OCBMNTg5LDMyNy4wODk4ICIgZmlsbD0iI0ZFRkZERCIgc3R5bGU9InN0cm9rZTojMTgxODE4O3N0cm9rZS13aWR0aDowLjU7Ii8+PHRleHQgZmlsbD0iIzAwMDAwMCIgZm9udC1mYW1pbHk9InNhbnMtc2VyaWYiIGZvbnQtc2l6ZT0iMTMiIGxlbmd0aEFkanVzdD0ic3BhY2luZyIgdGV4dExlbmd0aD0iNzUiIHg9IjUwOSIgeT0iMzQ0LjM3ODkiPklmIEFwcHJvdmVkPC90ZXh0PjxyZWN0IGZpbGw9IiNGMUYxRjEiIGhlaWdodD0iMzIuODQzOCIgcng9IjEyLjUiIHJ5PSIxMi41IiBzdHlsZT0ic3Ryb2tlOiMxODE4MTg7c3Ryb2tlLXdpZHRoOjAuNTsiIHdpZHRoPSIxOTciIHg9IjI4NiIgeT0iMzIyLjYyNSIvPjx0ZXh0IGZpbGw9IiMwMDAwMDAiIGZvbnQtZmFtaWx5PSJzYW5zLXNlcmlmIiBmb250LXNpemU9IjEyIiBsZW5ndGhBZGp1c3Q9InNwYWNpbmciIHRleHRMZW5ndGg9IjE3NyIgeD0iMjk2IiB5PSIzNDMuOTY4OCI+Tm90aWZ5IEN1c3RvbWVyIG9mIERlY2lzaW9uPC90ZXh0PjxyZWN0IGZpbGw9IiNGMUYxRjEiIGhlaWdodD0iMzIuODQzOCIgcng9IjEyLjUiIHJ5PSIxMi41IiBzdHlsZT0ic3Ryb2tlOiMxODE4MTg7c3Ryb2tlLXdpZHRoOjAuNTsiIHdpZHRoPSIyMDEiIHg9IjI4NCIgeT0iMzc1LjQ2ODgiLz48dGV4dCBmaWxsPSIjMDAwMDAwIiBmb250LWZhbWlseT0ic2Fucy1zZXJpZiIgZm9udC1zaXplPSIxMiIgbGVuZ3RoQWRqdXN0PSJzcGFjaW5nIiB0ZXh0TGVuZ3RoPSIxODEiIHg9IjI5NCIgeT0iMzk2LjgxMjUiPkFycmFuZ2UgZm9yIFJldHVybiBTaGlwbWVudDwvdGV4dD48cmVjdCBmaWxsPSIjRjFGMUYxIiBoZWlnaHQ9IjMyLjg0MzgiIHJ4PSIxMi41IiByeT0iMTIuNSIgc3R5bGU9InN0cm9rZTojMTgxODE4O3N0cm9rZS13aWR0aDowLjU7IiB3aWR0aD0iMTUyIiB4PSIzMDguNSIgeT0iNDI4LjMxMjUiLz48dGV4dCBmaWxsPSIjMDAwMDAwIiBmb250LWZhbWlseT0ic2Fucy1zZXJpZiIgZm9udC1zaXplPSIxMiIgbGVuZ3RoQWRqdXN0PSJzcGFjaW5nIiB0ZXh0TGVuZ3RoPSIxMzIiIHg9IjMxOC41IiB5PSI0NDkuNjU2MyI+VmVyaWZ5IFJldHVybmVkIEl0ZW08L3RleHQ+PHJlY3QgZmlsbD0iI0YxRjFGMSIgaGVpZ2h0PSIzMi44NDM4IiByeD0iMTIuNSIgcnk9IjEyLjUiIHN0eWxlPSJzdHJva2U6IzE4MTgxODtzdHJva2Utd2lkdGg6MC41OyIgd2lkdGg9IjIxNyIgeD0iMjc2IiB5PSI0ODEuMTU2MyIvPjx0ZXh0IGZpbGw9IiMwMDAwMDAiIGZvbnQtZmFtaWx5PSJzYW5zLXNlcmlmIiBmb250LXNpemU9IjEyIiBsZW5ndGhBZGp1c3Q9InNwYWNpbmciIHRleHRMZW5ndGg9IjE5NyIgeD0iMjg2IiB5PSI1MDIuNSI+SW5pdGlhdGUgUmVmdW5kIG9yIFJlcGxhY2VtZW50PC90ZXh0PjxlbGxpcHNlIGN4PSIzODQuNSIgY3k9IjU0NSIgZmlsbD0ibm9uZSIgcng9IjExIiByeT0iMTEiIHN0eWxlPSJzdHJva2U6IzIyMjIyMjtzdHJva2Utd2lkdGg6MS4wOyIvPjxlbGxpcHNlIGN4PSIzODQuNSIgY3k9IjU0NSIgZmlsbD0iIzIyMjIyMiIgcng9IjYiIHJ5PSI2IiBzdHlsZT0ic3Ryb2tlOiMyMjIyMjI7c3Ryb2tlLXdpZHRoOjEuMDsiLz48bGluZSBzdHlsZT0ic3Ryb2tlOiMwMDAwMDA7c3Ryb2tlLXdpZHRoOjEuNTsiIHgxPSIyNjEiIHgyPSIyNjEiIHkxPSI0Ni45ODQ0IiB5Mj0iNTU2Ii8+PGxpbmUgc3R5bGU9InN0cm9rZTojMDAwMDAwO3N0cm9rZS13aWR0aDoxLjU7IiB4MT0iNjA0IiB4Mj0iNjA0IiB5MT0iNDYuOTg0NCIgeTI9IjU1NiIvPjxsaW5lIHN0eWxlPSJzdHJva2U6IzE4MTgxODtzdHJva2Utd2lkdGg6MS4wOyIgeDE9IjEzOSIgeDI9IjEzOSIgeTE9IjkxLjI1IiB5Mj0iMTExLjI1Ii8+PHBvbHlnb24gZmlsbD0iIzE4MTgxOCIgcG9pbnRzPSIxMzUsMTAxLjI1LDEzOSwxMTEuMjUsMTQzLDEwMS4yNSwxMzksMTA1LjI1IiBzdHlsZT0ic3Ryb2tlOiMxODE4MTg7c3Ryb2tlLXdpZHRoOjEuMDsiLz48bGluZSBzdHlsZT0ic3Ryb2tlOiMxODE4MTg7c3Ryb2tlLXdpZHRoOjEuMDsiIHgxPSIzODQuNSIgeDI9IjM4NC41IiB5MT0iMTk2LjkzNzUiIHkyPSIyMTYuOTM3NSIvPjxwb2x5Z29uIGZpbGw9IiMxODE4MTgiIHBvaW50cz0iMzgwLjUsMjA2LjkzNzUsMzg0LjUsMjE2LjkzNzUsMzg4LjUsMjA2LjkzNzUsMzg0LjUsMjEwLjkzNzUiIHN0eWxlPSJzdHJva2U6IzE4MTgxODtzdHJva2Utd2lkdGg6MS4wOyIvPjxsaW5lIHN0eWxlPSJzdHJva2U6IzE4MTgxODtzdHJva2Utd2lkdGg6MS4wOyIgeDE9IjM4NC41IiB4Mj0iMzg0LjUiIHkxPSIyNDkuNzgxMyIgeTI9IjI2OS43ODEzIi8+PHBvbHlnb24gZmlsbD0iIzE4MTgxOCIgcG9pbnRzPSIzODAuNSwyNTkuNzgxMywzODQuNSwyNjkuNzgxMywzODguNSwyNTkuNzgxMywzODQuNSwyNjMuNzgxMyIgc3R5bGU9InN0cm9rZTojMTgxODE4O3N0cm9rZS13aWR0aDoxLjA7Ii8+PGxpbmUgc3R5bGU9InN0cm9rZTojMTgxODE4O3N0cm9rZS13aWR0aDoxLjA7IiB4MT0iMzg0LjUiIHgyPSIzODQuNSIgeTE9IjMwMi42MjUiIHkyPSIzMjIuNjI1Ii8+PHBvbHlnb24gZmlsbD0iIzE4MTgxOCIgcG9pbnRzPSIzODAuNSwzMTIuNjI1LDM4NC41LDMyMi42MjUsMzg4LjUsMzEyLjYyNSwzODQuNSwzMTYuNjI1IiBzdHlsZT0ic3Ryb2tlOiMxODE4MTg7c3Ryb2tlLXdpZHRoOjEuMDsiLz48bGluZSBzdHlsZT0ic3Ryb2tlOiMxODE4MTg7c3Ryb2tlLXdpZHRoOjEuMDsiIHgxPSIzODQuNSIgeDI9IjM4NC41IiB5MT0iMzU1LjQ2ODgiIHkyPSIzNzUuNDY4OCIvPjxwb2x5Z29uIGZpbGw9IiMxODE4MTgiIHBvaW50cz0iMzgwLjUsMzY1LjQ2ODgsMzg0LjUsMzc1LjQ2ODgsMzg4LjUsMzY1LjQ2ODgsMzg0LjUsMzY5LjQ2ODgiIHN0eWxlPSJzdHJva2U6IzE4MTgxODtzdHJva2Utd2lkdGg6MS4wOyIvPjxsaW5lIHN0eWxlPSJzdHJva2U6IzE4MTgxODtzdHJva2Utd2lkdGg6MS4wOyIgeDE9IjM4NC41IiB4Mj0iMzg0LjUiIHkxPSI0MDguMzEyNSIgeTI9IjQyOC4zMTI1Ii8+PHBvbHlnb24gZmlsbD0iIzE4MTgxOCIgcG9pbnRzPSIzODAuNSw0MTguMzEyNSwzODQuNSw0MjguMzEyNSwzODguNSw0MTguMzEyNSwzODQuNSw0MjIuMzEyNSIgc3R5bGU9InN0cm9rZTojMTgxODE4O3N0cm9rZS13aWR0aDoxLjA7Ii8+PGxpbmUgc3R5bGU9InN0cm9rZTojMTgxODE4O3N0cm9rZS13aWR0aDoxLjA7IiB4MT0iMzg0LjUiIHgyPSIzODQuNSIgeTE9IjQ2MS4xNTYzIiB5Mj0iNDgxLjE1NjMiLz48cG9seWdvbiBmaWxsPSIjMTgxODE4IiBwb2ludHM9IjM4MC41LDQ3MS4xNTYzLDM4NC41LDQ4MS4xNTYzLDM4OC41LDQ3MS4xNTYzLDM4NC41LDQ3NS4xNTYzIiBzdHlsZT0ic3Ryb2tlOiMxODE4MTg7c3Ryb2tlLXdpZHRoOjEuMDsiLz48bGluZSBzdHlsZT0ic3Ryb2tlOiMxODE4MTg7c3Ryb2tlLXdpZHRoOjEuMDsiIHgxPSIzODQuNSIgeDI9IjM4NC41IiB5MT0iNTE0IiB5Mj0iNTM0Ii8+PHBvbHlnb24gZmlsbD0iIzE4MTgxOCIgcG9pbnRzPSIzODAuNSw1MjQsMzg0LjUsNTM0LDM4OC41LDUyNCwzODQuNSw1MjgiIHN0eWxlPSJzdHJva2U6IzE4MTgxODtzdHJva2Utd2lkdGg6MS4wOyIvPjxsaW5lIHN0eWxlPSJzdHJva2U6IzE4MTgxODtzdHJva2Utd2lkdGg6MS4wOyIgeDE9IjEzOSIgeDI9IjEzOSIgeTE9IjE0NC4wOTM4IiB5Mj0iMTQ5LjA5MzgiLz48bGluZSBzdHlsZT0ic3Ryb2tlOiMxODE4MTg7c3Ryb2tlLXdpZHRoOjEuMDsiIHgxPSIxMzkiIHgyPSIzODQuNSIgeTE9IjE0OS4wOTM4IiB5Mj0iMTQ5LjA5MzgiLz48bGluZSBzdHlsZT0ic3Ryb2tlOiMxODE4MTg7c3Ryb2tlLXdpZHRoOjEuMDsiIHgxPSIzODQuNSIgeDI9IjM4NC41IiB5MT0iMTQ5LjA5MzgiIHkyPSIxNjQuMDkzOCIvPjxwb2x5Z29uIGZpbGw9IiMxODE4MTgiIHBvaW50cz0iMzgwLjUsMTU0LjA5MzgsMzg0LjUsMTY0LjA5MzgsMzg4LjUsMTU0LjA5MzgsMzg0LjUsMTU4LjA5MzgiIHN0eWxlPSJzdHJva2U6IzE4MTgxODtzdHJva2Utd2lkdGg6MS4wOyIvPjx0ZXh0IGZpbGw9IiMwMDAwMDAiIGZvbnQtZmFtaWx5PSJzYW5zLXNlcmlmIiBmb250LXNpemU9IjE4IiBsZW5ndGhBZGp1c3Q9InNwYWNpbmciIHRleHRMZW5ndGg9IjcyIiB4PSIxMDIiIHk9IjY0Ij5DdXN0b21lcjwvdGV4dD48dGV4dCBmaWxsPSIjMDAwMDAwIiBmb250LWZhbWlseT0ic2Fucy1zZXJpZiIgZm9udC1zaXplPSIxOCIgbGVuZ3RoQWRqdXN0PSJzcGFjaW5nIiB0ZXh0TGVuZ3RoPSI0NSIgeD0iNDEwIiB5PSI2NCI+QWRtaW48L3RleHQ+PCEtLVNSQz1bUFAzMUppRDAzNEpsLW5OLTBVdWVGS05iYVdqMmhJWmRMVTlqWjFmeHdfSzY4VU5aU0w4R0FmbWl4U215cHpoOEJXVzdkMGFfVjVYTHpkNmpNQW4wdjA0d2xiUEltVzhGeUJmXzNDay01ZkM5VEdkNWViZmVaa1lzLW9aQzVFNWpaNVJRZDdTWEJFcW00SS1YRU0yRkRFQ1Ytc3VMeFhsNDhocGpWbmQ1ZkJaM0lJZVU1Tk52N05seDN0YU1lX0c5Rm1yMTRablhKdU00bEdJQjhJWVRIc2tXSV8zRDZ0eEJqUWdIcG1YZk14Nm5ab0ZiMk5jNWRyMU4tNHIwRnVwWHZDeVRhcjZxektrZlVqeWpjby1ubnJsRWhvSnYybTAwXS0tPjwvZz48L3N2Zz4=;" parent="1" vertex="1">
            <mxGeometry x="1800" y="1273.5" width="625" height="568" as="geometry" />
          </mxCell>
        </UserObject>
        <UserObject label="" plantUmlData="{&quot;data&quot;:&quot;@startuml\ntitle Decide on Return - UC9\n|Customer|\nstart\n:Submit Return Request via WhatsApp;\n\n|Admin|\n:Receive Return Request;\n:Review Return Details;\n:Approve or Reject Return;\n:Communicate Decision to Customer;\n\nstop\n@enduml\n&quot;,&quot;format&quot;:&quot;svg&quot;}" id="IBJdU9s1SxhIxIOT5llA-9">
          <mxCell style="shape=image;noLabel=1;verticalAlign=top;aspect=fixed;imageAspect=0;image=data:image/svg+xml,PD94bWwgdmVyc2lvbj0iMS4wIiBlbmNvZGluZz0idXMtYXNjaWkiIHN0YW5kYWxvbmU9Im5vIj8+PHN2ZyB4bWxucz0iaHR0cDovL3d3dy53My5vcmcvMjAwMC9zdmciIHhtbG5zOnhsaW5rPSJodHRwOi8vd3d3LnczLm9yZy8xOTk5L3hsaW5rIiBjb250ZW50U3R5bGVUeXBlPSJ0ZXh0L2NzcyIgaGVpZ2h0PSI0MDlweCIgcHJlc2VydmVBc3BlY3RSYXRpbz0ibm9uZSIgc3R5bGU9IndpZHRoOjUzM3B4O2hlaWdodDo0MDlweDtiYWNrZ3JvdW5kOiNGRkZGRkY7IiB2ZXJzaW9uPSIxLjEiIHZpZXdCb3g9IjAgMCA1MzMgNDA5IiB3aWR0aD0iNTMzcHgiIHpvb21BbmRQYW49Im1hZ25pZnkiPjxkZWZzLz48Zz48dGV4dCBmaWxsPSIjMDAwMDAwIiBmb250LWZhbWlseT0ic2Fucy1zZXJpZiIgZm9udC1zaXplPSIxNCIgZm9udC13ZWlnaHQ9ImJvbGQiIGxlbmd0aEFkanVzdD0ic3BhY2luZyIgdGV4dExlbmd0aD0iMTU0IiB4PSIxODguMjUiIHk9IjMzLjIzNDQiPkRlY2lkZSBvbiBSZXR1cm4gLSBVQzk8L3RleHQ+PHJlY3QgZmlsbD0ibm9uZSIgaGVpZ2h0PSIxOS4yNjU2IiBzdHlsZT0ic3Ryb2tlOm5vbmU7c3Ryb2tlLXdpZHRoOjEuMDsiIHdpZHRoPSI1MDAuNSIgeD0iMTUiIHk9IjQ2Ljk4NDQiLz48ZWxsaXBzZSBjeD0iMTQ0LjUiIGN5PSI4MS4yNSIgZmlsbD0iIzIyMjIyMiIgcng9IjEwIiByeT0iMTAiIHN0eWxlPSJzdHJva2U6IzIyMjIyMjtzdHJva2Utd2lkdGg6MS4wOyIvPjxyZWN0IGZpbGw9IiNGMUYxRjEiIGhlaWdodD0iMzIuODQzOCIgcng9IjEyLjUiIHJ5PSIxMi41IiBzdHlsZT0ic3Ryb2tlOiMxODE4MTg7c3Ryb2tlLXdpZHRoOjAuNTsiIHdpZHRoPSIyNDciIHg9IjIxIiB5PSIxMTEuMjUiLz48dGV4dCBmaWxsPSIjMDAwMDAwIiBmb250LWZhbWlseT0ic2Fucy1zZXJpZiIgZm9udC1zaXplPSIxMiIgbGVuZ3RoQWRqdXN0PSJzcGFjaW5nIiB0ZXh0TGVuZ3RoPSIyMjciIHg9IjMxIiB5PSIxMzIuNTkzOCI+U3VibWl0IFJldHVybiBSZXF1ZXN0IHZpYSBXaGF0c0FwcDwvdGV4dD48bGluZSBzdHlsZT0ic3Ryb2tlOiMwMDAwMDA7c3Ryb2tlLXdpZHRoOjEuNTsiIHgxPSIxNSIgeDI9IjE1IiB5MT0iNDYuOTg0NCIgeTI9IjM5Ny40Njg4Ii8+PHJlY3QgZmlsbD0iI0YxRjFGMSIgaGVpZ2h0PSIzMi44NDM4IiByeD0iMTIuNSIgcnk9IjEyLjUiIHN0eWxlPSJzdHJva2U6IzE4MTgxODtzdHJva2Utd2lkdGg6MC41OyIgd2lkdGg9IjE2OCIgeD0iMzA5IiB5PSIxNjQuMDkzOCIvPjx0ZXh0IGZpbGw9IiMwMDAwMDAiIGZvbnQtZmFtaWx5PSJzYW5zLXNlcmlmIiBmb250LXNpemU9IjEyIiBsZW5ndGhBZGp1c3Q9InNwYWNpbmciIHRleHRMZW5ndGg9IjE0OCIgeD0iMzE5IiB5PSIxODUuNDM3NSI+UmVjZWl2ZSBSZXR1cm4gUmVxdWVzdDwvdGV4dD48cmVjdCBmaWxsPSIjRjFGMUYxIiBoZWlnaHQ9IjMyLjg0MzgiIHJ4PSIxMi41IiByeT0iMTIuNSIgc3R5bGU9InN0cm9rZTojMTgxODE4O3N0cm9rZS13aWR0aDowLjU7IiB3aWR0aD0iMTU5IiB4PSIzMTMuNSIgeT0iMjE2LjkzNzUiLz48dGV4dCBmaWxsPSIjMDAwMDAwIiBmb250LWZhbWlseT0ic2Fucy1zZXJpZiIgZm9udC1zaXplPSIxMiIgbGVuZ3RoQWRqdXN0PSJzcGFjaW5nIiB0ZXh0TGVuZ3RoPSIxMzkiIHg9IjMyMy41IiB5PSIyMzguMjgxMyI+UmV2aWV3IFJldHVybiBEZXRhaWxzPC90ZXh0PjxyZWN0IGZpbGw9IiNGMUYxRjEiIGhlaWdodD0iMzIuODQzOCIgcng9IjEyLjUiIHJ5PSIxMi41IiBzdHlsZT0ic3Ryb2tlOiMxODE4MTg7c3Ryb2tlLXdpZHRoOjAuNTsiIHdpZHRoPSIxODEiIHg9IjMwMi41IiB5PSIyNjkuNzgxMyIvPjx0ZXh0IGZpbGw9IiMwMDAwMDAiIGZvbnQtZmFtaWx5PSJzYW5zLXNlcmlmIiBmb250LXNpemU9IjEyIiBsZW5ndGhBZGp1c3Q9InNwYWNpbmciIHRleHRMZW5ndGg9IjE2MSIgeD0iMzEyLjUiIHk9IjI5MS4xMjUiPkFwcHJvdmUgb3IgUmVqZWN0IFJldHVybjwvdGV4dD48cmVjdCBmaWxsPSIjRjFGMUYxIiBoZWlnaHQ9IjMyLjg0MzgiIHJ4PSIxMi41IiByeT0iMTIuNSIgc3R5bGU9InN0cm9rZTojMTgxODE4O3N0cm9rZS13aWR0aDowLjU7IiB3aWR0aD0iMjMwIiB4PSIyNzgiIHk9IjMyMi42MjUiLz48dGV4dCBmaWxsPSIjMDAwMDAwIiBmb250LWZhbWlseT0ic2Fucy1zZXJpZiIgZm9udC1zaXplPSIxMiIgbGVuZ3RoQWRqdXN0PSJzcGFjaW5nIiB0ZXh0TGVuZ3RoPSIyMTAiIHg9IjI4OCIgeT0iMzQzLjk2ODgiPkNvbW11bmljYXRlIERlY2lzaW9uIHRvIEN1c3RvbWVyPC90ZXh0PjxlbGxpcHNlIGN4PSIzOTMiIGN5PSIzODYuNDY4OCIgZmlsbD0ibm9uZSIgcng9IjExIiByeT0iMTEiIHN0eWxlPSJzdHJva2U6IzIyMjIyMjtzdHJva2Utd2lkdGg6MS4wOyIvPjxlbGxpcHNlIGN4PSIzOTMiIGN5PSIzODYuNDY4OCIgZmlsbD0iIzIyMjIyMiIgcng9IjYiIHJ5PSI2IiBzdHlsZT0ic3Ryb2tlOiMyMjIyMjI7c3Ryb2tlLXdpZHRoOjEuMDsiLz48bGluZSBzdHlsZT0ic3Ryb2tlOiMwMDAwMDA7c3Ryb2tlLXdpZHRoOjEuNTsiIHgxPSIyNzIiIHgyPSIyNzIiIHkxPSI0Ni45ODQ0IiB5Mj0iMzk3LjQ2ODgiLz48bGluZSBzdHlsZT0ic3Ryb2tlOiMwMDAwMDA7c3Ryb2tlLXdpZHRoOjEuNTsiIHgxPSI1MTIiIHgyPSI1MTIiIHkxPSI0Ni45ODQ0IiB5Mj0iMzk3LjQ2ODgiLz48bGluZSBzdHlsZT0ic3Ryb2tlOiMxODE4MTg7c3Ryb2tlLXdpZHRoOjEuMDsiIHgxPSIxNDQuNSIgeDI9IjE0NC41IiB5MT0iOTEuMjUiIHkyPSIxMTEuMjUiLz48cG9seWdvbiBmaWxsPSIjMTgxODE4IiBwb2ludHM9IjE0MC41LDEwMS4yNSwxNDQuNSwxMTEuMjUsMTQ4LjUsMTAxLjI1LDE0NC41LDEwNS4yNSIgc3R5bGU9InN0cm9rZTojMTgxODE4O3N0cm9rZS13aWR0aDoxLjA7Ii8+PGxpbmUgc3R5bGU9InN0cm9rZTojMTgxODE4O3N0cm9rZS13aWR0aDoxLjA7IiB4MT0iMzkzIiB4Mj0iMzkzIiB5MT0iMTk2LjkzNzUiIHkyPSIyMTYuOTM3NSIvPjxwb2x5Z29uIGZpbGw9IiMxODE4MTgiIHBvaW50cz0iMzg5LDIwNi45Mzc1LDM5MywyMTYuOTM3NSwzOTcsMjA2LjkzNzUsMzkzLDIxMC45Mzc1IiBzdHlsZT0ic3Ryb2tlOiMxODE4MTg7c3Ryb2tlLXdpZHRoOjEuMDsiLz48bGluZSBzdHlsZT0ic3Ryb2tlOiMxODE4MTg7c3Ryb2tlLXdpZHRoOjEuMDsiIHgxPSIzOTMiIHgyPSIzOTMiIHkxPSIyNDkuNzgxMyIgeTI9IjI2OS43ODEzIi8+PHBvbHlnb24gZmlsbD0iIzE4MTgxOCIgcG9pbnRzPSIzODksMjU5Ljc4MTMsMzkzLDI2OS43ODEzLDM5NywyNTkuNzgxMywzOTMsMjYzLjc4MTMiIHN0eWxlPSJzdHJva2U6IzE4MTgxODtzdHJva2Utd2lkdGg6MS4wOyIvPjxsaW5lIHN0eWxlPSJzdHJva2U6IzE4MTgxODtzdHJva2Utd2lkdGg6MS4wOyIgeDE9IjM5MyIgeDI9IjM5MyIgeTE9IjMwMi42MjUiIHkyPSIzMjIuNjI1Ii8+PHBvbHlnb24gZmlsbD0iIzE4MTgxOCIgcG9pbnRzPSIzODksMzEyLjYyNSwzOTMsMzIyLjYyNSwzOTcsMzEyLjYyNSwzOTMsMzE2LjYyNSIgc3R5bGU9InN0cm9rZTojMTgxODE4O3N0cm9rZS13aWR0aDoxLjA7Ii8+PGxpbmUgc3R5bGU9InN0cm9rZTojMTgxODE4O3N0cm9rZS13aWR0aDoxLjA7IiB4MT0iMzkzIiB4Mj0iMzkzIiB5MT0iMzU1LjQ2ODgiIHkyPSIzNzUuNDY4OCIvPjxwb2x5Z29uIGZpbGw9IiMxODE4MTgiIHBvaW50cz0iMzg5LDM2NS40Njg4LDM5MywzNzUuNDY4OCwzOTcsMzY1LjQ2ODgsMzkzLDM2OS40Njg4IiBzdHlsZT0ic3Ryb2tlOiMxODE4MTg7c3Ryb2tlLXdpZHRoOjEuMDsiLz48bGluZSBzdHlsZT0ic3Ryb2tlOiMxODE4MTg7c3Ryb2tlLXdpZHRoOjEuMDsiIHgxPSIxNDQuNSIgeDI9IjE0NC41IiB5MT0iMTQ0LjA5MzgiIHkyPSIxNDkuMDkzOCIvPjxsaW5lIHN0eWxlPSJzdHJva2U6IzE4MTgxODtzdHJva2Utd2lkdGg6MS4wOyIgeDE9IjE0NC41IiB4Mj0iMzkzIiB5MT0iMTQ5LjA5MzgiIHkyPSIxNDkuMDkzOCIvPjxsaW5lIHN0eWxlPSJzdHJva2U6IzE4MTgxODtzdHJva2Utd2lkdGg6MS4wOyIgeDE9IjM5MyIgeDI9IjM5MyIgeTE9IjE0OS4wOTM4IiB5Mj0iMTY0LjA5MzgiLz48cG9seWdvbiBmaWxsPSIjMTgxODE4IiBwb2ludHM9IjM4OSwxNTQuMDkzOCwzOTMsMTY0LjA5MzgsMzk3LDE1NC4wOTM4LDM5MywxNTguMDkzOCIgc3R5bGU9InN0cm9rZTojMTgxODE4O3N0cm9rZS13aWR0aDoxLjA7Ii8+PHRleHQgZmlsbD0iIzAwMDAwMCIgZm9udC1mYW1pbHk9InNhbnMtc2VyaWYiIGZvbnQtc2l6ZT0iMTgiIGxlbmd0aEFkanVzdD0ic3BhY2luZyIgdGV4dExlbmd0aD0iNzIiIHg9IjEwNy41IiB5PSI2NCI+Q3VzdG9tZXI8L3RleHQ+PHRleHQgZmlsbD0iIzAwMDAwMCIgZm9udC1mYW1pbHk9InNhbnMtc2VyaWYiIGZvbnQtc2l6ZT0iMTgiIGxlbmd0aEFkanVzdD0ic3BhY2luZyIgdGV4dExlbmd0aD0iNDUiIHg9IjM2OS41IiB5PSI2NCI+QWRtaW48L3RleHQ+PCEtLVNSQz1bTk91bjNpOG01NEZ0ZEU5VlcwRkdKYkx3V1lCNDc1OUJWREdhOVZhZklteEZIb1dCYy1MZG9uUU0zSkozeW1mQWFIUDhwUDVFVEJMZHFzbWphVzlvQ3FMUzVaRFN3WnNtekRJMkxxS0hFalpIeFU2YUpGaS02akVjRE4xaVBiWldtR1YtdWtDTjc4bnR6c1U4dXdzZWhfc1NqOTJvaVlUeU5yOWFLbVdyaWRWb2tyak90cWdZVmI1dExVbVZdLS0+PC9nPjwvc3ZnPg==;" parent="1" vertex="1">
            <mxGeometry x="2442" y="1300" width="533" height="409" as="geometry" />
          </mxCell>
        </UserObject>
        <UserObject label="" plantUmlData="{&quot;data&quot;:&quot;@startuml\ntitle Negotiate Return Costs - UC10\n\n|Admin|\nstart\n:Receive Return Request via WhatsApp;\n:Review Return Details;\n:Communicate Return Costs to Customer;\n:Negotiate and Agree on Return Costs;\nend\n\n|Customer|\n@enduml\n&quot;,&quot;format&quot;:&quot;svg&quot;}" id="IBJdU9s1SxhIxIOT5llA-10">
          <mxCell style="shape=image;noLabel=1;verticalAlign=top;aspect=fixed;imageAspect=0;image=data:image/svg+xml,PD94bWwgdmVyc2lvbj0iMS4wIiBlbmNvZGluZz0idXMtYXNjaWkiIHN0YW5kYWxvbmU9Im5vIj8+PHN2ZyB4bWxucz0iaHR0cDovL3d3dy53My5vcmcvMjAwMC9zdmciIHhtbG5zOnhsaW5rPSJodHRwOi8vd3d3LnczLm9yZy8xOTk5L3hsaW5rIiBjb250ZW50U3R5bGVUeXBlPSJ0ZXh0L2NzcyIgaGVpZ2h0PSIzNTRweCIgcHJlc2VydmVBc3BlY3RSYXRpbz0ibm9uZSIgc3R5bGU9IndpZHRoOjM4NnB4O2hlaWdodDozNTRweDtiYWNrZ3JvdW5kOiNGRkZGRkY7IiB2ZXJzaW9uPSIxLjEiIHZpZXdCb3g9IjAgMCAzODYgMzU0IiB3aWR0aD0iMzg2cHgiIHpvb21BbmRQYW49Im1hZ25pZnkiPjxkZWZzLz48Zz48dGV4dCBmaWxsPSIjMDAwMDAwIiBmb250LWZhbWlseT0ic2Fucy1zZXJpZiIgZm9udC1zaXplPSIxNCIgZm9udC13ZWlnaHQ9ImJvbGQiIGxlbmd0aEFkanVzdD0ic3BhY2luZyIgdGV4dExlbmd0aD0iMjAzIiB4PSI5MC4yNSIgeT0iMzMuMjM0NCI+TmVnb3RpYXRlIFJldHVybiBDb3N0cyAtIFVDMTA8L3RleHQ+PHJlY3QgZmlsbD0ibm9uZSIgaGVpZ2h0PSIxOS4yNjU2IiBzdHlsZT0ic3Ryb2tlOm5vbmU7c3Ryb2tlLXdpZHRoOjEuMDsiIHdpZHRoPSIzNTMuNSIgeD0iMTUiIHk9IjQ2Ljk4NDQiLz48ZWxsaXBzZSBjeD0iMTUwIiBjeT0iODEuMjUiIGZpbGw9IiMyMjIyMjIiIHJ4PSIxMCIgcnk9IjEwIiBzdHlsZT0ic3Ryb2tlOiMyMjIyMjI7c3Ryb2tlLXdpZHRoOjEuMDsiLz48cmVjdCBmaWxsPSIjRjFGMUYxIiBoZWlnaHQ9IjMyLjg0MzgiIHJ4PSIxMi41IiByeT0iMTIuNSIgc3R5bGU9InN0cm9rZTojMTgxODE4O3N0cm9rZS13aWR0aDowLjU7IiB3aWR0aD0iMjU1IiB4PSIyMi41IiB5PSIxMTEuMjUiLz48dGV4dCBmaWxsPSIjMDAwMDAwIiBmb250LWZhbWlseT0ic2Fucy1zZXJpZiIgZm9udC1zaXplPSIxMiIgbGVuZ3RoQWRqdXN0PSJzcGFjaW5nIiB0ZXh0TGVuZ3RoPSIyMzUiIHg9IjMyLjUiIHk9IjEzMi41OTM4Ij5SZWNlaXZlIFJldHVybiBSZXF1ZXN0IHZpYSBXaGF0c0FwcDwvdGV4dD48cmVjdCBmaWxsPSIjRjFGMUYxIiBoZWlnaHQ9IjMyLjg0MzgiIHJ4PSIxMi41IiByeT0iMTIuNSIgc3R5bGU9InN0cm9rZTojMTgxODE4O3N0cm9rZS13aWR0aDowLjU7IiB3aWR0aD0iMTU5IiB4PSI3MC41IiB5PSIxNjQuMDkzOCIvPjx0ZXh0IGZpbGw9IiMwMDAwMDAiIGZvbnQtZmFtaWx5PSJzYW5zLXNlcmlmIiBmb250LXNpemU9IjEyIiBsZW5ndGhBZGp1c3Q9InNwYWNpbmciIHRleHRMZW5ndGg9IjEzOSIgeD0iODAuNSIgeT0iMTg1LjQzNzUiPlJldmlldyBSZXR1cm4gRGV0YWlsczwvdGV4dD48cmVjdCBmaWxsPSIjRjFGMUYxIiBoZWlnaHQ9IjMyLjg0MzgiIHJ4PSIxMi41IiByeT0iMTIuNSIgc3R5bGU9InN0cm9rZTojMTgxODE4O3N0cm9rZS13aWR0aDowLjU7IiB3aWR0aD0iMjU4IiB4PSIyMSIgeT0iMjE2LjkzNzUiLz48dGV4dCBmaWxsPSIjMDAwMDAwIiBmb250LWZhbWlseT0ic2Fucy1zZXJpZiIgZm9udC1zaXplPSIxMiIgbGVuZ3RoQWRqdXN0PSJzcGFjaW5nIiB0ZXh0TGVuZ3RoPSIyMzgiIHg9IjMxIiB5PSIyMzguMjgxMyI+Q29tbXVuaWNhdGUgUmV0dXJuIENvc3RzIHRvIEN1c3RvbWVyPC90ZXh0PjxyZWN0IGZpbGw9IiNGMUYxRjEiIGhlaWdodD0iMzIuODQzOCIgcng9IjEyLjUiIHJ5PSIxMi41IiBzdHlsZT0ic3Ryb2tlOiMxODE4MTg7c3Ryb2tlLXdpZHRoOjAuNTsiIHdpZHRoPSIyNTUiIHg9IjIyLjUiIHk9IjI2OS43ODEzIi8+PHRleHQgZmlsbD0iIzAwMDAwMCIgZm9udC1mYW1pbHk9InNhbnMtc2VyaWYiIGZvbnQtc2l6ZT0iMTIiIGxlbmd0aEFkanVzdD0ic3BhY2luZyIgdGV4dExlbmd0aD0iMjM1IiB4PSIzMi41IiB5PSIyOTEuMTI1Ij5OZWdvdGlhdGUgYW5kIEFncmVlIG9uIFJldHVybiBDb3N0czwvdGV4dD48ZWxsaXBzZSBjeD0iMTUwIiBjeT0iMzMyLjYyNSIgZmlsbD0ibm9uZSIgcng9IjEwIiByeT0iMTAiIHN0eWxlPSJzdHJva2U6IzIyMjIyMjtzdHJva2Utd2lkdGg6MS41OyIvPjxsaW5lIHN0eWxlPSJzdHJva2U6IzIyMjIyMjtzdHJva2Utd2lkdGg6Mi41OyIgeDE9IjE0My44MTI4IiB4Mj0iMTU2LjE4NzIiIHkxPSIzMjYuNDM3OCIgeTI9IjMzOC44MTIyIi8+PGxpbmUgc3R5bGU9InN0cm9rZTojMjIyMjIyO3N0cm9rZS13aWR0aDoyLjU7IiB4MT0iMTU2LjE4NzIiIHgyPSIxNDMuODEyOCIgeTE9IjMyNi40Mzc4IiB5Mj0iMzM4LjgxMjIiLz48bGluZSBzdHlsZT0ic3Ryb2tlOiMwMDAwMDA7c3Ryb2tlLXdpZHRoOjEuNTsiIHgxPSIxNSIgeDI9IjE1IiB5MT0iNDYuOTg0NCIgeTI9IjM0Mi42MjUiLz48bGluZSBzdHlsZT0ic3Ryb2tlOiMwMDAwMDA7c3Ryb2tlLXdpZHRoOjEuNTsiIHgxPSIyODMiIHgyPSIyODMiIHkxPSI0Ni45ODQ0IiB5Mj0iMzQyLjYyNSIvPjxsaW5lIHN0eWxlPSJzdHJva2U6IzAwMDAwMDtzdHJva2Utd2lkdGg6MS41OyIgeDE9IjM2NSIgeDI9IjM2NSIgeTE9IjQ2Ljk4NDQiIHkyPSIzNDIuNjI1Ii8+PGxpbmUgc3R5bGU9InN0cm9rZTojMTgxODE4O3N0cm9rZS13aWR0aDoxLjA7IiB4MT0iMTUwIiB4Mj0iMTUwIiB5MT0iOTEuMjUiIHkyPSIxMTEuMjUiLz48cG9seWdvbiBmaWxsPSIjMTgxODE4IiBwb2ludHM9IjE0NiwxMDEuMjUsMTUwLDExMS4yNSwxNTQsMTAxLjI1LDE1MCwxMDUuMjUiIHN0eWxlPSJzdHJva2U6IzE4MTgxODtzdHJva2Utd2lkdGg6MS4wOyIvPjxsaW5lIHN0eWxlPSJzdHJva2U6IzE4MTgxODtzdHJva2Utd2lkdGg6MS4wOyIgeDE9IjE1MCIgeDI9IjE1MCIgeTE9IjE0NC4wOTM4IiB5Mj0iMTY0LjA5MzgiLz48cG9seWdvbiBmaWxsPSIjMTgxODE4IiBwb2ludHM9IjE0NiwxNTQuMDkzOCwxNTAsMTY0LjA5MzgsMTU0LDE1NC4wOTM4LDE1MCwxNTguMDkzOCIgc3R5bGU9InN0cm9rZTojMTgxODE4O3N0cm9rZS13aWR0aDoxLjA7Ii8+PGxpbmUgc3R5bGU9InN0cm9rZTojMTgxODE4O3N0cm9rZS13aWR0aDoxLjA7IiB4MT0iMTUwIiB4Mj0iMTUwIiB5MT0iMTk2LjkzNzUiIHkyPSIyMTYuOTM3NSIvPjxwb2x5Z29uIGZpbGw9IiMxODE4MTgiIHBvaW50cz0iMTQ2LDIwNi45Mzc1LDE1MCwyMTYuOTM3NSwxNTQsMjA2LjkzNzUsMTUwLDIxMC45Mzc1IiBzdHlsZT0ic3Ryb2tlOiMxODE4MTg7c3Ryb2tlLXdpZHRoOjEuMDsiLz48bGluZSBzdHlsZT0ic3Ryb2tlOiMxODE4MTg7c3Ryb2tlLXdpZHRoOjEuMDsiIHgxPSIxNTAiIHgyPSIxNTAiIHkxPSIyNDkuNzgxMyIgeTI9IjI2OS43ODEzIi8+PHBvbHlnb24gZmlsbD0iIzE4MTgxOCIgcG9pbnRzPSIxNDYsMjU5Ljc4MTMsMTUwLDI2OS43ODEzLDE1NCwyNTkuNzgxMywxNTAsMjYzLjc4MTMiIHN0eWxlPSJzdHJva2U6IzE4MTgxODtzdHJva2Utd2lkdGg6MS4wOyIvPjxsaW5lIHN0eWxlPSJzdHJva2U6IzE4MTgxODtzdHJva2Utd2lkdGg6MS4wOyIgeDE9IjE1MCIgeDI9IjE1MCIgeTE9IjMwMi42MjUiIHkyPSIzMjIuNjI1Ii8+PHBvbHlnb24gZmlsbD0iIzE4MTgxOCIgcG9pbnRzPSIxNDYsMzEyLjYyNSwxNTAsMzIyLjYyNSwxNTQsMzEyLjYyNSwxNTAsMzE2LjYyNSIgc3R5bGU9InN0cm9rZTojMTgxODE4O3N0cm9rZS13aWR0aDoxLjA7Ii8+PHRleHQgZmlsbD0iIzAwMDAwMCIgZm9udC1mYW1pbHk9InNhbnMtc2VyaWYiIGZvbnQtc2l6ZT0iMTgiIGxlbmd0aEFkanVzdD0ic3BhY2luZyIgdGV4dExlbmd0aD0iNDUiIHg9IjEyNi41IiB5PSI2NCI+QWRtaW48L3RleHQ+PHRleHQgZmlsbD0iIzAwMDAwMCIgZm9udC1mYW1pbHk9InNhbnMtc2VyaWYiIGZvbnQtc2l6ZT0iMTgiIGxlbmd0aEFkanVzdD0ic3BhY2luZyIgdGV4dExlbmd0aD0iNzIiIHg9IjI4OCIgeT0iNjQiPkN1c3RvbWVyPC90ZXh0PjwhLS1TUkM9W1BPd24yaThtNTROdFZDTngwSzVOZEtnUzdHaFk3RGZCVlQwYURVLWNCbHJ1d3IxNU4yX2RTMC1MOC1JMjhMQzM4SXJPSW5BVlpJT3hrVmgzdGhjYndRRWNuSGIzZUprc3dBM3BYc3RuZzMzQWg0NWt6cTFoZmtkcWZjUjVTdUZFT0QzSHJqdGQ2NmxJeGstRE1ObXJ2ZVlvT2otYWE3ZmZYVzk4SlpfNm9JN3JRenJjQkl5MF0tLT48L2c+PC9zdmc+;" parent="1" vertex="1">
            <mxGeometry x="2975" y="1340" width="386" height="354" as="geometry" />
          </mxCell>
        </UserObject>
        <UserObject label="" plantUmlData="{&quot;data&quot;:&quot;@startuml\ntitle Manage Other Expenses - UC12\n\n|Admin|\nstart\n:Receive Expense Receipts from Employees and and himself;\n:Record Expenses Manually;\n:Track Total Expenses Manually;\nend\n\n|Customer|\n@enduml\n&quot;,&quot;format&quot;:&quot;svg&quot;}" id="IBJdU9s1SxhIxIOT5llA-12">
          <mxCell style="shape=image;noLabel=1;verticalAlign=top;aspect=fixed;imageAspect=0;image=data:image/svg+xml,PD94bWwgdmVyc2lvbj0iMS4wIiBlbmNvZGluZz0idXMtYXNjaWkiIHN0YW5kYWxvbmU9Im5vIj8+PHN2ZyB4bWxucz0iaHR0cDovL3d3dy53My5vcmcvMjAwMC9zdmciIHhtbG5zOnhsaW5rPSJodHRwOi8vd3d3LnczLm9yZy8xOTk5L3hsaW5rIiBjb250ZW50U3R5bGVUeXBlPSJ0ZXh0L2NzcyIgaGVpZ2h0PSIzMDFweCIgcHJlc2VydmVBc3BlY3RSYXRpbz0ibm9uZSIgc3R5bGU9IndpZHRoOjUxMXB4O2hlaWdodDozMDFweDtiYWNrZ3JvdW5kOiNGRkZGRkY7IiB2ZXJzaW9uPSIxLjEiIHZpZXdCb3g9IjAgMCA1MTEgMzAxIiB3aWR0aD0iNTExcHgiIHpvb21BbmRQYW49Im1hZ25pZnkiPjxkZWZzLz48Zz48dGV4dCBmaWxsPSIjMDAwMDAwIiBmb250LWZhbWlseT0ic2Fucy1zZXJpZiIgZm9udC1zaXplPSIxNCIgZm9udC13ZWlnaHQ9ImJvbGQiIGxlbmd0aEFkanVzdD0ic3BhY2luZyIgdGV4dExlbmd0aD0iMTk2IiB4PSIxNTYuMjUiIHk9IjMzLjIzNDQiPk1hbmFnZSBPdGhlciBFeHBlbnNlcyAtIFVDMTI8L3RleHQ+PHJlY3QgZmlsbD0ibm9uZSIgaGVpZ2h0PSIxOS4yNjU2IiBzdHlsZT0ic3Ryb2tlOm5vbmU7c3Ryb2tlLXdpZHRoOjEuMDsiIHdpZHRoPSI0NzguNSIgeD0iMTUiIHk9IjQ2Ljk4NDQiLz48ZWxsaXBzZSBjeD0iMjEyLjUiIGN5PSI4MS4yNSIgZmlsbD0iIzIyMjIyMiIgcng9IjEwIiByeT0iMTAiIHN0eWxlPSJzdHJva2U6IzIyMjIyMjtzdHJva2Utd2lkdGg6MS4wOyIvPjxyZWN0IGZpbGw9IiNGMUYxRjEiIGhlaWdodD0iMzIuODQzOCIgcng9IjEyLjUiIHJ5PSIxMi41IiBzdHlsZT0ic3Ryb2tlOiMxODE4MTg7c3Ryb2tlLXdpZHRoOjAuNTsiIHdpZHRoPSIzODMiIHg9IjIxIiB5PSIxMTEuMjUiLz48dGV4dCBmaWxsPSIjMDAwMDAwIiBmb250LWZhbWlseT0ic2Fucy1zZXJpZiIgZm9udC1zaXplPSIxMiIgbGVuZ3RoQWRqdXN0PSJzcGFjaW5nIiB0ZXh0TGVuZ3RoPSIzNjMiIHg9IjMxIiB5PSIxMzIuNTkzOCI+UmVjZWl2ZSBFeHBlbnNlIFJlY2VpcHRzIGZyb20gRW1wbG95ZWVzIGFuZCBhbmQgaGltc2VsZjwvdGV4dD48cmVjdCBmaWxsPSIjRjFGMUYxIiBoZWlnaHQ9IjMyLjg0MzgiIHJ4PSIxMi41IiByeT0iMTIuNSIgc3R5bGU9InN0cm9rZTojMTgxODE4O3N0cm9rZS13aWR0aDowLjU7IiB3aWR0aD0iMTgyIiB4PSIxMjEuNSIgeT0iMTY0LjA5MzgiLz48dGV4dCBmaWxsPSIjMDAwMDAwIiBmb250LWZhbWlseT0ic2Fucy1zZXJpZiIgZm9udC1zaXplPSIxMiIgbGVuZ3RoQWRqdXN0PSJzcGFjaW5nIiB0ZXh0TGVuZ3RoPSIxNjIiIHg9IjEzMS41IiB5PSIxODUuNDM3NSI+UmVjb3JkIEV4cGVuc2VzIE1hbnVhbGx5PC90ZXh0PjxyZWN0IGZpbGw9IiNGMUYxRjEiIGhlaWdodD0iMzIuODQzOCIgcng9IjEyLjUiIHJ5PSIxMi41IiBzdHlsZT0ic3Ryb2tlOiMxODE4MTg7c3Ryb2tlLXdpZHRoOjAuNTsiIHdpZHRoPSIyMTEiIHg9IjEwNyIgeT0iMjE2LjkzNzUiLz48dGV4dCBmaWxsPSIjMDAwMDAwIiBmb250LWZhbWlseT0ic2Fucy1zZXJpZiIgZm9udC1zaXplPSIxMiIgbGVuZ3RoQWRqdXN0PSJzcGFjaW5nIiB0ZXh0TGVuZ3RoPSIxOTEiIHg9IjExNyIgeT0iMjM4LjI4MTMiPlRyYWNrIFRvdGFsIEV4cGVuc2VzIE1hbnVhbGx5PC90ZXh0PjxlbGxpcHNlIGN4PSIyMTIuNSIgY3k9IjI3OS43ODEzIiBmaWxsPSJub25lIiByeD0iMTAiIHJ5PSIxMCIgc3R5bGU9InN0cm9rZTojMjIyMjIyO3N0cm9rZS13aWR0aDoxLjU7Ii8+PGxpbmUgc3R5bGU9InN0cm9rZTojMjIyMjIyO3N0cm9rZS13aWR0aDoyLjU7IiB4MT0iMjA2LjMxMjgiIHgyPSIyMTguNjg3MiIgeTE9IjI3My41OTQxIiB5Mj0iMjg1Ljk2ODQiLz48bGluZSBzdHlsZT0ic3Ryb2tlOiMyMjIyMjI7c3Ryb2tlLXdpZHRoOjIuNTsiIHgxPSIyMTguNjg3MiIgeDI9IjIwNi4zMTI4IiB5MT0iMjczLjU5NDEiIHkyPSIyODUuOTY4NCIvPjxsaW5lIHN0eWxlPSJzdHJva2U6IzAwMDAwMDtzdHJva2Utd2lkdGg6MS41OyIgeDE9IjE1IiB4Mj0iMTUiIHkxPSI0Ni45ODQ0IiB5Mj0iMjg5Ljc4MTMiLz48bGluZSBzdHlsZT0ic3Ryb2tlOiMwMDAwMDA7c3Ryb2tlLXdpZHRoOjEuNTsiIHgxPSI0MDgiIHgyPSI0MDgiIHkxPSI0Ni45ODQ0IiB5Mj0iMjg5Ljc4MTMiLz48bGluZSBzdHlsZT0ic3Ryb2tlOiMwMDAwMDA7c3Ryb2tlLXdpZHRoOjEuNTsiIHgxPSI0OTAiIHgyPSI0OTAiIHkxPSI0Ni45ODQ0IiB5Mj0iMjg5Ljc4MTMiLz48bGluZSBzdHlsZT0ic3Ryb2tlOiMxODE4MTg7c3Ryb2tlLXdpZHRoOjEuMDsiIHgxPSIyMTIuNSIgeDI9IjIxMi41IiB5MT0iOTEuMjUiIHkyPSIxMTEuMjUiLz48cG9seWdvbiBmaWxsPSIjMTgxODE4IiBwb2ludHM9IjIwOC41LDEwMS4yNSwyMTIuNSwxMTEuMjUsMjE2LjUsMTAxLjI1LDIxMi41LDEwNS4yNSIgc3R5bGU9InN0cm9rZTojMTgxODE4O3N0cm9rZS13aWR0aDoxLjA7Ii8+PGxpbmUgc3R5bGU9InN0cm9rZTojMTgxODE4O3N0cm9rZS13aWR0aDoxLjA7IiB4MT0iMjEyLjUiIHgyPSIyMTIuNSIgeTE9IjE0NC4wOTM4IiB5Mj0iMTY0LjA5MzgiLz48cG9seWdvbiBmaWxsPSIjMTgxODE4IiBwb2ludHM9IjIwOC41LDE1NC4wOTM4LDIxMi41LDE2NC4wOTM4LDIxNi41LDE1NC4wOTM4LDIxMi41LDE1OC4wOTM4IiBzdHlsZT0ic3Ryb2tlOiMxODE4MTg7c3Ryb2tlLXdpZHRoOjEuMDsiLz48bGluZSBzdHlsZT0ic3Ryb2tlOiMxODE4MTg7c3Ryb2tlLXdpZHRoOjEuMDsiIHgxPSIyMTIuNSIgeDI9IjIxMi41IiB5MT0iMTk2LjkzNzUiIHkyPSIyMTYuOTM3NSIvPjxwb2x5Z29uIGZpbGw9IiMxODE4MTgiIHBvaW50cz0iMjA4LjUsMjA2LjkzNzUsMjEyLjUsMjE2LjkzNzUsMjE2LjUsMjA2LjkzNzUsMjEyLjUsMjEwLjkzNzUiIHN0eWxlPSJzdHJva2U6IzE4MTgxODtzdHJva2Utd2lkdGg6MS4wOyIvPjxsaW5lIHN0eWxlPSJzdHJva2U6IzE4MTgxODtzdHJva2Utd2lkdGg6MS4wOyIgeDE9IjIxMi41IiB4Mj0iMjEyLjUiIHkxPSIyNDkuNzgxMyIgeTI9IjI2OS43ODEzIi8+PHBvbHlnb24gZmlsbD0iIzE4MTgxOCIgcG9pbnRzPSIyMDguNSwyNTkuNzgxMywyMTIuNSwyNjkuNzgxMywyMTYuNSwyNTkuNzgxMywyMTIuNSwyNjMuNzgxMyIgc3R5bGU9InN0cm9rZTojMTgxODE4O3N0cm9rZS13aWR0aDoxLjA7Ii8+PHRleHQgZmlsbD0iIzAwMDAwMCIgZm9udC1mYW1pbHk9InNhbnMtc2VyaWYiIGZvbnQtc2l6ZT0iMTgiIGxlbmd0aEFkanVzdD0ic3BhY2luZyIgdGV4dExlbmd0aD0iNDUiIHg9IjE4OSIgeT0iNjQiPkFkbWluPC90ZXh0Pjx0ZXh0IGZpbGw9IiMwMDAwMDAiIGZvbnQtZmFtaWx5PSJzYW5zLXNlcmlmIiBmb250LXNpemU9IjE4IiBsZW5ndGhBZGp1c3Q9InNwYWNpbmciIHRleHRMZW5ndGg9IjcyIiB4PSI0MTMiIHk9IjY0Ij5DdXN0b21lcjwvdGV4dD48IS0tU1JDPVtST3d6Mmk5MDQ4SnhVdWZ6MEdpampQQUdLV0k5M3gzYURrUG14dVZUWkhZdVhfUzhZOHQ1NUNGQ3k4cTVPdThCOWRtR042cWNXVnZUQTJhZnhFM1V4R19FclJFRjhMTWRYY0JrVUFFSG1lay1GVFh5Q09MOVNlRy01aXVoakphY2xzYUVLT2NkcXhSQ3VkLTBYYnNHVU10SDgzVy1PU1k2XzItZHZEa0ZSYjdCYVFILTAwMDBdLS0+PC9nPjwvc3ZnPg==;" parent="1" vertex="1">
            <mxGeometry x="-1091" y="1750" width="511" height="301" as="geometry" />
          </mxCell>
        </UserObject>
        <UserObject label="" plantUmlData="{&quot;data&quot;:&quot;@startuml\ntitle Post Product Images - UC1\n\n|Customer|\nstart\n:Receive New Product Images from Garment;\n:Post Images to WhatsApp Group;\n:Provide Product Details;\nstop\n|admin|\n@enduml\n&quot;,&quot;format&quot;:&quot;svg&quot;}" id="IBJdU9s1SxhIxIOT5llA-13">
          <mxCell style="shape=image;noLabel=1;verticalAlign=top;aspect=fixed;imageAspect=0;image=data:image/svg+xml,PD94bWwgdmVyc2lvbj0iMS4wIiBlbmNvZGluZz0idXMtYXNjaWkiIHN0YW5kYWxvbmU9Im5vIj8+PHN2ZyB4bWxucz0iaHR0cDovL3d3dy53My5vcmcvMjAwMC9zdmciIHhtbG5zOnhsaW5rPSJodHRwOi8vd3d3LnczLm9yZy8xOTk5L3hsaW5rIiBjb250ZW50U3R5bGVUeXBlPSJ0ZXh0L2NzcyIgaGVpZ2h0PSIzMDNweCIgcHJlc2VydmVBc3BlY3RSYXRpbz0ibm9uZSIgc3R5bGU9IndpZHRoOjM3OHB4O2hlaWdodDozMDNweDtiYWNrZ3JvdW5kOiNGRkZGRkY7IiB2ZXJzaW9uPSIxLjEiIHZpZXdCb3g9IjAgMCAzNzggMzAzIiB3aWR0aD0iMzc4cHgiIHpvb21BbmRQYW49Im1hZ25pZnkiPjxkZWZzLz48Zz48dGV4dCBmaWxsPSIjMDAwMDAwIiBmb250LWZhbWlseT0ic2Fucy1zZXJpZiIgZm9udC1zaXplPSIxNCIgZm9udC13ZWlnaHQ9ImJvbGQiIGxlbmd0aEFkanVzdD0ic3BhY2luZyIgdGV4dExlbmd0aD0iMTc2IiB4PSI5OS43NSIgeT0iMzMuMjM0NCI+UG9zdCBQcm9kdWN0IEltYWdlcyAtIFVDMTwvdGV4dD48cmVjdCBmaWxsPSJub25lIiBoZWlnaHQ9IjE5LjI2NTYiIHN0eWxlPSJzdHJva2U6bm9uZTtzdHJva2Utd2lkdGg6MS4wOyIgd2lkdGg9IjM0NS41IiB4PSIxNSIgeT0iNDYuOTg0NCIvPjxlbGxpcHNlIGN4PSIxNTkuNSIgY3k9IjgxLjI1IiBmaWxsPSIjMjIyMjIyIiByeD0iMTAiIHJ5PSIxMCIgc3R5bGU9InN0cm9rZTojMjIyMjIyO3N0cm9rZS13aWR0aDoxLjA7Ii8+PHJlY3QgZmlsbD0iI0YxRjFGMSIgaGVpZ2h0PSIzMi44NDM4IiByeD0iMTIuNSIgcnk9IjEyLjUiIHN0eWxlPSJzdHJva2U6IzE4MTgxODtzdHJva2Utd2lkdGg6MC41OyIgd2lkdGg9IjI3NyIgeD0iMjEiIHk9IjExMS4yNSIvPjx0ZXh0IGZpbGw9IiMwMDAwMDAiIGZvbnQtZmFtaWx5PSJzYW5zLXNlcmlmIiBmb250LXNpemU9IjEyIiBsZW5ndGhBZGp1c3Q9InNwYWNpbmciIHRleHRMZW5ndGg9IjI1NyIgeD0iMzEiIHk9IjEzMi41OTM4Ij5SZWNlaXZlIE5ldyBQcm9kdWN0IEltYWdlcyBmcm9tIEdhcm1lbnQ8L3RleHQ+PHJlY3QgZmlsbD0iI0YxRjFGMSIgaGVpZ2h0PSIzMi44NDM4IiByeD0iMTIuNSIgcnk9IjEyLjUiIHN0eWxlPSJzdHJva2U6IzE4MTgxODtzdHJva2Utd2lkdGg6MC41OyIgd2lkdGg9IjIxNCIgeD0iNTIuNSIgeT0iMTY0LjA5MzgiLz48dGV4dCBmaWxsPSIjMDAwMDAwIiBmb250LWZhbWlseT0ic2Fucy1zZXJpZiIgZm9udC1zaXplPSIxMiIgbGVuZ3RoQWRqdXN0PSJzcGFjaW5nIiB0ZXh0TGVuZ3RoPSIxOTQiIHg9IjYyLjUiIHk9IjE4NS40Mzc1Ij5Qb3N0IEltYWdlcyB0byBXaGF0c0FwcCBHcm91cDwvdGV4dD48cmVjdCBmaWxsPSIjRjFGMUYxIiBoZWlnaHQ9IjMyLjg0MzgiIHJ4PSIxMi41IiByeT0iMTIuNSIgc3R5bGU9InN0cm9rZTojMTgxODE4O3N0cm9rZS13aWR0aDowLjU7IiB3aWR0aD0iMTczIiB4PSI3MyIgeT0iMjE2LjkzNzUiLz48dGV4dCBmaWxsPSIjMDAwMDAwIiBmb250LWZhbWlseT0ic2Fucy1zZXJpZiIgZm9udC1zaXplPSIxMiIgbGVuZ3RoQWRqdXN0PSJzcGFjaW5nIiB0ZXh0TGVuZ3RoPSIxNTMiIHg9IjgzIiB5PSIyMzguMjgxMyI+UHJvdmlkZSBQcm9kdWN0IERldGFpbHM8L3RleHQ+PGVsbGlwc2UgY3g9IjE1OS41IiBjeT0iMjgwLjc4MTMiIGZpbGw9Im5vbmUiIHJ4PSIxMSIgcnk9IjExIiBzdHlsZT0ic3Ryb2tlOiMyMjIyMjI7c3Ryb2tlLXdpZHRoOjEuMDsiLz48ZWxsaXBzZSBjeD0iMTU5LjUiIGN5PSIyODAuNzgxMyIgZmlsbD0iIzIyMjIyMiIgcng9IjYiIHJ5PSI2IiBzdHlsZT0ic3Ryb2tlOiMyMjIyMjI7c3Ryb2tlLXdpZHRoOjEuMDsiLz48bGluZSBzdHlsZT0ic3Ryb2tlOiMwMDAwMDA7c3Ryb2tlLXdpZHRoOjEuNTsiIHgxPSIxNSIgeDI9IjE1IiB5MT0iNDYuOTg0NCIgeTI9IjI5MS43ODEzIi8+PGxpbmUgc3R5bGU9InN0cm9rZTojMDAwMDAwO3N0cm9rZS13aWR0aDoxLjU7IiB4MT0iMzAyIiB4Mj0iMzAyIiB5MT0iNDYuOTg0NCIgeTI9IjI5MS43ODEzIi8+PGxpbmUgc3R5bGU9InN0cm9rZTojMDAwMDAwO3N0cm9rZS13aWR0aDoxLjU7IiB4MT0iMzU3IiB4Mj0iMzU3IiB5MT0iNDYuOTg0NCIgeTI9IjI5MS43ODEzIi8+PGxpbmUgc3R5bGU9InN0cm9rZTojMTgxODE4O3N0cm9rZS13aWR0aDoxLjA7IiB4MT0iMTU5LjUiIHgyPSIxNTkuNSIgeTE9IjkxLjI1IiB5Mj0iMTExLjI1Ii8+PHBvbHlnb24gZmlsbD0iIzE4MTgxOCIgcG9pbnRzPSIxNTUuNSwxMDEuMjUsMTU5LjUsMTExLjI1LDE2My41LDEwMS4yNSwxNTkuNSwxMDUuMjUiIHN0eWxlPSJzdHJva2U6IzE4MTgxODtzdHJva2Utd2lkdGg6MS4wOyIvPjxsaW5lIHN0eWxlPSJzdHJva2U6IzE4MTgxODtzdHJva2Utd2lkdGg6MS4wOyIgeDE9IjE1OS41IiB4Mj0iMTU5LjUiIHkxPSIxNDQuMDkzOCIgeTI9IjE2NC4wOTM4Ii8+PHBvbHlnb24gZmlsbD0iIzE4MTgxOCIgcG9pbnRzPSIxNTUuNSwxNTQuMDkzOCwxNTkuNSwxNjQuMDkzOCwxNjMuNSwxNTQuMDkzOCwxNTkuNSwxNTguMDkzOCIgc3R5bGU9InN0cm9rZTojMTgxODE4O3N0cm9rZS13aWR0aDoxLjA7Ii8+PGxpbmUgc3R5bGU9InN0cm9rZTojMTgxODE4O3N0cm9rZS13aWR0aDoxLjA7IiB4MT0iMTU5LjUiIHgyPSIxNTkuNSIgeTE9IjE5Ni45Mzc1IiB5Mj0iMjE2LjkzNzUiLz48cG9seWdvbiBmaWxsPSIjMTgxODE4IiBwb2ludHM9IjE1NS41LDIwNi45Mzc1LDE1OS41LDIxNi45Mzc1LDE2My41LDIwNi45Mzc1LDE1OS41LDIxMC45Mzc1IiBzdHlsZT0ic3Ryb2tlOiMxODE4MTg7c3Ryb2tlLXdpZHRoOjEuMDsiLz48bGluZSBzdHlsZT0ic3Ryb2tlOiMxODE4MTg7c3Ryb2tlLXdpZHRoOjEuMDsiIHgxPSIxNTkuNSIgeDI9IjE1OS41IiB5MT0iMjQ5Ljc4MTMiIHkyPSIyNjkuNzgxMyIvPjxwb2x5Z29uIGZpbGw9IiMxODE4MTgiIHBvaW50cz0iMTU1LjUsMjU5Ljc4MTMsMTU5LjUsMjY5Ljc4MTMsMTYzLjUsMjU5Ljc4MTMsMTU5LjUsMjYzLjc4MTMiIHN0eWxlPSJzdHJva2U6IzE4MTgxODtzdHJva2Utd2lkdGg6MS4wOyIvPjx0ZXh0IGZpbGw9IiMwMDAwMDAiIGZvbnQtZmFtaWx5PSJzYW5zLXNlcmlmIiBmb250LXNpemU9IjE4IiBsZW5ndGhBZGp1c3Q9InNwYWNpbmciIHRleHRMZW5ndGg9IjcyIiB4PSIxMjIuNSIgeT0iNjQiPkN1c3RvbWVyPC90ZXh0Pjx0ZXh0IGZpbGw9IiMwMDAwMDAiIGZvbnQtZmFtaWx5PSJzYW5zLXNlcmlmIiBmb250LXNpemU9IjE4IiBsZW5ndGhBZGp1c3Q9InNwYWNpbmciIHRleHRMZW5ndGg9IjQ1IiB4PSIzMDciIHk9IjY0Ij5hZG1pbjwvdGV4dD48IS0tU1JDPVtOT3N4Mmk5MDQwM3hfT2h6ME9rcUlJSzkxMWk5V2JXbGtMS0ZTamJaVG95c3pfNC00MGxoT01PeS1pOHVZSmJFQWc3Q1plVDREcFJTdVJibDA2ZlZwMk1uTFowZFRNWEZGN0ZTNjhfeS03VWtBV2I3cWlJaFR6MS1pYl9hV2ZTeGtVcnBuYjZidjNUTnNNQldOc0xXZnhYT3pwZjlYYWVYblJLLTBHMDBdLS0+PC9nPjwvc3ZnPg==;" parent="1" vertex="1">
            <mxGeometry x="-1550" y="1340" width="378" height="303" as="geometry" />
          </mxCell>
        </UserObject>
        <UserObject label="" plantUmlData="{&quot;data&quot;:&quot;@startuml\ntitle Send Bank Details for Payment - UC4\n\n|Customer|\nstart\n:Place Order Confirmation;\n\n|Admin|\n:Confirm Order;\n:Send Bank Details;\n:Provide Payment Instructions;\n\n|Customer|\n:Receive Bank Details;\n:Review Payment Instructions;\n\n:Proceed with Payment;\n\nstop\n@enduml\n&quot;,&quot;format&quot;:&quot;svg&quot;}" id="IBJdU9s1SxhIxIOT5llA-14">
          <mxCell style="shape=image;noLabel=1;verticalAlign=top;aspect=fixed;imageAspect=0;image=data:image/svg+xml,PD94bWwgdmVyc2lvbj0iMS4wIiBlbmNvZGluZz0idXMtYXNjaWkiIHN0YW5kYWxvbmU9Im5vIj8+PHN2ZyB4bWxucz0iaHR0cDovL3d3dy53My5vcmcvMjAwMC9zdmciIHhtbG5zOnhsaW5rPSJodHRwOi8vd3d3LnczLm9yZy8xOTk5L3hsaW5rIiBjb250ZW50U3R5bGVUeXBlPSJ0ZXh0L2NzcyIgaGVpZ2h0PSI1MTVweCIgcHJlc2VydmVBc3BlY3RSYXRpbz0ibm9uZSIgc3R5bGU9IndpZHRoOjQ2MHB4O2hlaWdodDo1MTVweDtiYWNrZ3JvdW5kOiNGRkZGRkY7IiB2ZXJzaW9uPSIxLjEiIHZpZXdCb3g9IjAgMCA0NjAgNTE1IiB3aWR0aD0iNDYwcHgiIHpvb21BbmRQYW49Im1hZ25pZnkiPjxkZWZzLz48Zz48dGV4dCBmaWxsPSIjMDAwMDAwIiBmb250LWZhbWlseT0ic2Fucy1zZXJpZiIgZm9udC1zaXplPSIxNCIgZm9udC13ZWlnaHQ9ImJvbGQiIGxlbmd0aEFkanVzdD0ic3BhY2luZyIgdGV4dExlbmd0aD0iMjQ2IiB4PSIxMDUuNzUiIHk9IjMzLjIzNDQiPlNlbmQgQmFuayBEZXRhaWxzIGZvciBQYXltZW50IC0gVUM0PC90ZXh0PjxyZWN0IGZpbGw9Im5vbmUiIGhlaWdodD0iMTkuMjY1NiIgc3R5bGU9InN0cm9rZTpub25lO3N0cm9rZS13aWR0aDoxLjA7IiB3aWR0aD0iNDI3LjUiIHg9IjE1IiB5PSI0Ni45ODQ0Ii8+PGVsbGlwc2UgY3g9IjEyMCIgY3k9IjgxLjI1IiBmaWxsPSIjMjIyMjIyIiByeD0iMTAiIHJ5PSIxMCIgc3R5bGU9InN0cm9rZTojMjIyMjIyO3N0cm9rZS13aWR0aDoxLjA7Ii8+PHJlY3QgZmlsbD0iI0YxRjFGMSIgaGVpZ2h0PSIzMi44NDM4IiByeD0iMTIuNSIgcnk9IjEyLjUiIHN0eWxlPSJzdHJva2U6IzE4MTgxODtzdHJva2Utd2lkdGg6MC41OyIgd2lkdGg9IjE3OSIgeD0iMzAuNSIgeT0iMTExLjI1Ii8+PHRleHQgZmlsbD0iIzAwMDAwMCIgZm9udC1mYW1pbHk9InNhbnMtc2VyaWYiIGZvbnQtc2l6ZT0iMTIiIGxlbmd0aEFkanVzdD0ic3BhY2luZyIgdGV4dExlbmd0aD0iMTU5IiB4PSI0MC41IiB5PSIxMzIuNTkzOCI+UGxhY2UgT3JkZXIgQ29uZmlybWF0aW9uPC90ZXh0PjxyZWN0IGZpbGw9IiNGMUYxRjEiIGhlaWdodD0iMzIuODQzOCIgcng9IjEyLjUiIHJ5PSIxMi41IiBzdHlsZT0ic3Ryb2tlOiMxODE4MTg7c3Ryb2tlLXdpZHRoOjAuNTsiIHdpZHRoPSIxNTIiIHg9IjQ0IiB5PSIzMjIuNjI1Ii8+PHRleHQgZmlsbD0iIzAwMDAwMCIgZm9udC1mYW1pbHk9InNhbnMtc2VyaWYiIGZvbnQtc2l6ZT0iMTIiIGxlbmd0aEFkanVzdD0ic3BhY2luZyIgdGV4dExlbmd0aD0iMTMyIiB4PSI1NCIgeT0iMzQzLjk2ODgiPlJlY2VpdmUgQmFuayBEZXRhaWxzPC90ZXh0PjxyZWN0IGZpbGw9IiNGMUYxRjEiIGhlaWdodD0iMzIuODQzOCIgcng9IjEyLjUiIHJ5PSIxMi41IiBzdHlsZT0ic3Ryb2tlOiMxODE4MTg7c3Ryb2tlLXdpZHRoOjAuNTsiIHdpZHRoPSIxOTgiIHg9IjIxIiB5PSIzNzUuNDY4OCIvPjx0ZXh0IGZpbGw9IiMwMDAwMDAiIGZvbnQtZmFtaWx5PSJzYW5zLXNlcmlmIiBmb250LXNpemU9IjEyIiBsZW5ndGhBZGp1c3Q9InNwYWNpbmciIHRleHRMZW5ndGg9IjE3OCIgeD0iMzEiIHk9IjM5Ni44MTI1Ij5SZXZpZXcgUGF5bWVudCBJbnN0cnVjdGlvbnM8L3RleHQ+PHJlY3QgZmlsbD0iI0YxRjFGMSIgaGVpZ2h0PSIzMi44NDM4IiByeD0iMTIuNSIgcnk9IjEyLjUiIHN0eWxlPSJzdHJva2U6IzE4MTgxODtzdHJva2Utd2lkdGg6MC41OyIgd2lkdGg9IjE1MiIgeD0iNDQiIHk9IjQyOC4zMTI1Ii8+PHRleHQgZmlsbD0iIzAwMDAwMCIgZm9udC1mYW1pbHk9InNhbnMtc2VyaWYiIGZvbnQtc2l6ZT0iMTIiIGxlbmd0aEFkanVzdD0ic3BhY2luZyIgdGV4dExlbmd0aD0iMTMyIiB4PSI1NCIgeT0iNDQ5LjY1NjMiPlByb2NlZWQgd2l0aCBQYXltZW50PC90ZXh0PjxlbGxpcHNlIGN4PSIxMjAiIGN5PSI0OTIuMTU2MyIgZmlsbD0ibm9uZSIgcng9IjExIiByeT0iMTEiIHN0eWxlPSJzdHJva2U6IzIyMjIyMjtzdHJva2Utd2lkdGg6MS4wOyIvPjxlbGxpcHNlIGN4PSIxMjAiIGN5PSI0OTIuMTU2MyIgZmlsbD0iIzIyMjIyMiIgcng9IjYiIHJ5PSI2IiBzdHlsZT0ic3Ryb2tlOiMyMjIyMjI7c3Ryb2tlLXdpZHRoOjEuMDsiLz48bGluZSBzdHlsZT0ic3Ryb2tlOiMwMDAwMDA7c3Ryb2tlLXdpZHRoOjEuNTsiIHgxPSIxNSIgeDI9IjE1IiB5MT0iNDYuOTg0NCIgeTI9IjUwMy4xNTYzIi8+PHJlY3QgZmlsbD0iI0YxRjFGMSIgaGVpZ2h0PSIzMi44NDM4IiByeD0iMTIuNSIgcnk9IjEyLjUiIHN0eWxlPSJzdHJva2U6IzE4MTgxODtzdHJva2Utd2lkdGg6MC41OyIgd2lkdGg9IjEwNyIgeD0iMjc4LjUiIHk9IjE2NC4wOTM4Ii8+PHRleHQgZmlsbD0iIzAwMDAwMCIgZm9udC1mYW1pbHk9InNhbnMtc2VyaWYiIGZvbnQtc2l6ZT0iMTIiIGxlbmd0aEFkanVzdD0ic3BhY2luZyIgdGV4dExlbmd0aD0iODciIHg9IjI4OC41IiB5PSIxODUuNDM3NSI+Q29uZmlybSBPcmRlcjwvdGV4dD48cmVjdCBmaWxsPSIjRjFGMUYxIiBoZWlnaHQ9IjMyLjg0MzgiIHJ4PSIxMi41IiByeT0iMTIuNSIgc3R5bGU9InN0cm9rZTojMTgxODE4O3N0cm9rZS13aWR0aDowLjU7IiB3aWR0aD0iMTMzIiB4PSIyNjUuNSIgeT0iMjE2LjkzNzUiLz48dGV4dCBmaWxsPSIjMDAwMDAwIiBmb250LWZhbWlseT0ic2Fucy1zZXJpZiIgZm9udC1zaXplPSIxMiIgbGVuZ3RoQWRqdXN0PSJzcGFjaW5nIiB0ZXh0TGVuZ3RoPSIxMTMiIHg9IjI3NS41IiB5PSIyMzguMjgxMyI+U2VuZCBCYW5rIERldGFpbHM8L3RleHQ+PHJlY3QgZmlsbD0iI0YxRjFGMSIgaGVpZ2h0PSIzMi44NDM4IiByeD0iMTIuNSIgcnk9IjEyLjUiIHN0eWxlPSJzdHJva2U6IzE4MTgxODtzdHJva2Utd2lkdGg6MC41OyIgd2lkdGg9IjIwNiIgeD0iMjI5IiB5PSIyNjkuNzgxMyIvPjx0ZXh0IGZpbGw9IiMwMDAwMDAiIGZvbnQtZmFtaWx5PSJzYW5zLXNlcmlmIiBmb250LXNpemU9IjEyIiBsZW5ndGhBZGp1c3Q9InNwYWNpbmciIHRleHRMZW5ndGg9IjE4NiIgeD0iMjM5IiB5PSIyOTEuMTI1Ij5Qcm92aWRlIFBheW1lbnQgSW5zdHJ1Y3Rpb25zPC90ZXh0PjxsaW5lIHN0eWxlPSJzdHJva2U6IzAwMDAwMDtzdHJva2Utd2lkdGg6MS41OyIgeDE9IjIyMyIgeDI9IjIyMyIgeTE9IjQ2Ljk4NDQiIHkyPSI1MDMuMTU2MyIvPjxsaW5lIHN0eWxlPSJzdHJva2U6IzAwMDAwMDtzdHJva2Utd2lkdGg6MS41OyIgeDE9IjQzOSIgeDI9IjQzOSIgeTE9IjQ2Ljk4NDQiIHkyPSI1MDMuMTU2MyIvPjxsaW5lIHN0eWxlPSJzdHJva2U6IzE4MTgxODtzdHJva2Utd2lkdGg6MS4wOyIgeDE9IjEyMCIgeDI9IjEyMCIgeTE9IjkxLjI1IiB5Mj0iMTExLjI1Ii8+PHBvbHlnb24gZmlsbD0iIzE4MTgxOCIgcG9pbnRzPSIxMTYsMTAxLjI1LDEyMCwxMTEuMjUsMTI0LDEwMS4yNSwxMjAsMTA1LjI1IiBzdHlsZT0ic3Ryb2tlOiMxODE4MTg7c3Ryb2tlLXdpZHRoOjEuMDsiLz48bGluZSBzdHlsZT0ic3Ryb2tlOiMxODE4MTg7c3Ryb2tlLXdpZHRoOjEuMDsiIHgxPSIxMjAiIHgyPSIxMjAiIHkxPSIzNTUuNDY4OCIgeTI9IjM3NS40Njg4Ii8+PHBvbHlnb24gZmlsbD0iIzE4MTgxOCIgcG9pbnRzPSIxMTYsMzY1LjQ2ODgsMTIwLDM3NS40Njg4LDEyNCwzNjUuNDY4OCwxMjAsMzY5LjQ2ODgiIHN0eWxlPSJzdHJva2U6IzE4MTgxODtzdHJva2Utd2lkdGg6MS4wOyIvPjxsaW5lIHN0eWxlPSJzdHJva2U6IzE4MTgxODtzdHJva2Utd2lkdGg6MS4wOyIgeDE9IjEyMCIgeDI9IjEyMCIgeTE9IjQwOC4zMTI1IiB5Mj0iNDI4LjMxMjUiLz48cG9seWdvbiBmaWxsPSIjMTgxODE4IiBwb2ludHM9IjExNiw0MTguMzEyNSwxMjAsNDI4LjMxMjUsMTI0LDQxOC4zMTI1LDEyMCw0MjIuMzEyNSIgc3R5bGU9InN0cm9rZTojMTgxODE4O3N0cm9rZS13aWR0aDoxLjA7Ii8+PGxpbmUgc3R5bGU9InN0cm9rZTojMTgxODE4O3N0cm9rZS13aWR0aDoxLjA7IiB4MT0iMTIwIiB4Mj0iMTIwIiB5MT0iNDYxLjE1NjMiIHkyPSI0ODEuMTU2MyIvPjxwb2x5Z29uIGZpbGw9IiMxODE4MTgiIHBvaW50cz0iMTE2LDQ3MS4xNTYzLDEyMCw0ODEuMTU2MywxMjQsNDcxLjE1NjMsMTIwLDQ3NS4xNTYzIiBzdHlsZT0ic3Ryb2tlOiMxODE4MTg7c3Ryb2tlLXdpZHRoOjEuMDsiLz48bGluZSBzdHlsZT0ic3Ryb2tlOiMxODE4MTg7c3Ryb2tlLXdpZHRoOjEuMDsiIHgxPSIzMzIiIHgyPSIzMzIiIHkxPSIxOTYuOTM3NSIgeTI9IjIxNi45Mzc1Ii8+PHBvbHlnb24gZmlsbD0iIzE4MTgxOCIgcG9pbnRzPSIzMjgsMjA2LjkzNzUsMzMyLDIxNi45Mzc1LDMzNiwyMDYuOTM3NSwzMzIsMjEwLjkzNzUiIHN0eWxlPSJzdHJva2U6IzE4MTgxODtzdHJva2Utd2lkdGg6MS4wOyIvPjxsaW5lIHN0eWxlPSJzdHJva2U6IzE4MTgxODtzdHJva2Utd2lkdGg6MS4wOyIgeDE9IjMzMiIgeDI9IjMzMiIgeTE9IjI0OS43ODEzIiB5Mj0iMjY5Ljc4MTMiLz48cG9seWdvbiBmaWxsPSIjMTgxODE4IiBwb2ludHM9IjMyOCwyNTkuNzgxMywzMzIsMjY5Ljc4MTMsMzM2LDI1OS43ODEzLDMzMiwyNjMuNzgxMyIgc3R5bGU9InN0cm9rZTojMTgxODE4O3N0cm9rZS13aWR0aDoxLjA7Ii8+PGxpbmUgc3R5bGU9InN0cm9rZTojMTgxODE4O3N0cm9rZS13aWR0aDoxLjA7IiB4MT0iMTIwIiB4Mj0iMTIwIiB5MT0iMTQ0LjA5MzgiIHkyPSIxNDkuMDkzOCIvPjxsaW5lIHN0eWxlPSJzdHJva2U6IzE4MTgxODtzdHJva2Utd2lkdGg6MS4wOyIgeDE9IjEyMCIgeDI9IjMzMiIgeTE9IjE0OS4wOTM4IiB5Mj0iMTQ5LjA5MzgiLz48bGluZSBzdHlsZT0ic3Ryb2tlOiMxODE4MTg7c3Ryb2tlLXdpZHRoOjEuMDsiIHgxPSIzMzIiIHgyPSIzMzIiIHkxPSIxNDkuMDkzOCIgeTI9IjE2NC4wOTM4Ii8+PHBvbHlnb24gZmlsbD0iIzE4MTgxOCIgcG9pbnRzPSIzMjgsMTU0LjA5MzgsMzMyLDE2NC4wOTM4LDMzNiwxNTQuMDkzOCwzMzIsMTU4LjA5MzgiIHN0eWxlPSJzdHJva2U6IzE4MTgxODtzdHJva2Utd2lkdGg6MS4wOyIvPjxsaW5lIHN0eWxlPSJzdHJva2U6IzE4MTgxODtzdHJva2Utd2lkdGg6MS4wOyIgeDE9IjMzMiIgeDI9IjMzMiIgeTE9IjMwMi42MjUiIHkyPSIzMDcuNjI1Ii8+PGxpbmUgc3R5bGU9InN0cm9rZTojMTgxODE4O3N0cm9rZS13aWR0aDoxLjA7IiB4MT0iMzMyIiB4Mj0iMTIwIiB5MT0iMzA3LjYyNSIgeTI9IjMwNy42MjUiLz48bGluZSBzdHlsZT0ic3Ryb2tlOiMxODE4MTg7c3Ryb2tlLXdpZHRoOjEuMDsiIHgxPSIxMjAiIHgyPSIxMjAiIHkxPSIzMDcuNjI1IiB5Mj0iMzIyLjYyNSIvPjxwb2x5Z29uIGZpbGw9IiMxODE4MTgiIHBvaW50cz0iMTE2LDMxMi42MjUsMTIwLDMyMi42MjUsMTI0LDMxMi42MjUsMTIwLDMxNi42MjUiIHN0eWxlPSJzdHJva2U6IzE4MTgxODtzdHJva2Utd2lkdGg6MS4wOyIvPjx0ZXh0IGZpbGw9IiMwMDAwMDAiIGZvbnQtZmFtaWx5PSJzYW5zLXNlcmlmIiBmb250LXNpemU9IjE4IiBsZW5ndGhBZGp1c3Q9InNwYWNpbmciIHRleHRMZW5ndGg9IjcyIiB4PSI4MyIgeT0iNjQiPkN1c3RvbWVyPC90ZXh0Pjx0ZXh0IGZpbGw9IiMwMDAwMDAiIGZvbnQtZmFtaWx5PSJzYW5zLXNlcmlmIiBmb250LXNpemU9IjE4IiBsZW5ndGhBZGp1c3Q9InNwYWNpbmciIHRleHRMZW5ndGg9IjQ1IiB4PSIzMDguNSIgeT0iNjQiPkFkbWluPC90ZXh0PjwhLS1TUkM9W1RPckIyaThtNDQzdEVTTFNtOXNoVEFMcnV5Zkl5RzBYY1U5V0N2NzlqNE5ldUt0bjBvZms3dV90YkJIN0UyODdzM2ctbTB4TEtQLVhJbUFEa3FMYVhITVN3aEtuU3ByYUpINWJEYmNUZ0I1RHhwcDJHRzhBcjhheGFrWUs0YlQ1dGVIOEYxbHh2MC1oQ2xQZExMV1pRUUkweC02VWl5aFdicklrRmlRc0hPeXF1ZFVYblA1bS1YVE8xWHVubTRId1ZhYzViLWhyM1cwMF0tLT48L2c+PC9zdmc+;" parent="1" vertex="1">
            <mxGeometry x="-171" y="730" width="460" height="515" as="geometry" />
          </mxCell>
        </UserObject>
        <mxCell id="IBJdU9s1SxhIxIOT5llA-16" value="&lt;font style=&quot;font-size: 48px;&quot;&gt;&lt;b&gt;Shop Owner/Admin&lt;/b&gt;&lt;/font&gt;" style="text;html=1;align=center;verticalAlign=middle;resizable=0;points=[];autosize=1;strokeColor=none;fillColor=none;" parent="1" vertex="1">
          <mxGeometry x="2490" y="385" width="470" height="70" as="geometry" />
        </mxCell>
        <UserObject label="" plantUmlData="{&quot;data&quot;:&quot;@startuml\ntitle Pack and Ship Product - UC6\n|Employee|\nstart\n:Receive Order Details;\n:Locate Product in Inventory;\n:Pack Product for Shipment;\n:Coordinate with Courier Service;\n:Ship Product;\n:Update Order Status to Shipped;\n:Notify Customer of Shipment;\nend\n\n|Customer|\n@enduml\n&quot;,&quot;format&quot;:&quot;svg&quot;}" id="IBJdU9s1SxhIxIOT5llA-18">
          <mxCell style="shape=image;noLabel=1;verticalAlign=top;aspect=fixed;imageAspect=0;image=data:image/svg+xml,PD94bWwgdmVyc2lvbj0iMS4wIiBlbmNvZGluZz0idXMtYXNjaWkiIHN0YW5kYWxvbmU9Im5vIj8+PHN2ZyB4bWxucz0iaHR0cDovL3d3dy53My5vcmcvMjAwMC9zdmciIHhtbG5zOnhsaW5rPSJodHRwOi8vd3d3LnczLm9yZy8xOTk5L3hsaW5rIiBjb250ZW50U3R5bGVUeXBlPSJ0ZXh0L2NzcyIgaGVpZ2h0PSI1MTNweCIgcHJlc2VydmVBc3BlY3RSYXRpbz0ibm9uZSIgc3R5bGU9IndpZHRoOjM1NHB4O2hlaWdodDo1MTNweDtiYWNrZ3JvdW5kOiNGRkZGRkY7IiB2ZXJzaW9uPSIxLjEiIHZpZXdCb3g9IjAgMCAzNTQgNTEzIiB3aWR0aD0iMzU0cHgiIHpvb21BbmRQYW49Im1hZ25pZnkiPjxkZWZzLz48Zz48dGV4dCBmaWxsPSIjMDAwMDAwIiBmb250LWZhbWlseT0ic2Fucy1zZXJpZiIgZm9udC1zaXplPSIxNCIgZm9udC13ZWlnaHQ9ImJvbGQiIGxlbmd0aEFkanVzdD0ic3BhY2luZyIgdGV4dExlbmd0aD0iMTg5IiB4PSI4MS4yNSIgeT0iMzMuMjM0NCI+UGFjayBhbmQgU2hpcCBQcm9kdWN0IC0gVUM2PC90ZXh0PjxyZWN0IGZpbGw9Im5vbmUiIGhlaWdodD0iMTkuMjY1NiIgc3R5bGU9InN0cm9rZTpub25lO3N0cm9rZS13aWR0aDoxLjA7IiB3aWR0aD0iMzIxLjUiIHg9IjE1IiB5PSI0Ni45ODQ0Ii8+PGVsbGlwc2UgY3g9IjEzNCIgY3k9IjgxLjI1IiBmaWxsPSIjMjIyMjIyIiByeD0iMTAiIHJ5PSIxMCIgc3R5bGU9InN0cm9rZTojMjIyMjIyO3N0cm9rZS13aWR0aDoxLjA7Ii8+PHJlY3QgZmlsbD0iI0YxRjFGMSIgaGVpZ2h0PSIzMi44NDM4IiByeD0iMTIuNSIgcnk9IjEyLjUiIHN0eWxlPSJzdHJva2U6IzE4MTgxODtzdHJva2Utd2lkdGg6MC41OyIgd2lkdGg9IjE2MCIgeD0iNTQiIHk9IjExMS4yNSIvPjx0ZXh0IGZpbGw9IiMwMDAwMDAiIGZvbnQtZmFtaWx5PSJzYW5zLXNlcmlmIiBmb250LXNpemU9IjEyIiBsZW5ndGhBZGp1c3Q9InNwYWNpbmciIHRleHRMZW5ndGg9IjE0MCIgeD0iNjQiIHk9IjEzMi41OTM4Ij5SZWNlaXZlIE9yZGVyIERldGFpbHM8L3RleHQ+PHJlY3QgZmlsbD0iI0YxRjFGMSIgaGVpZ2h0PSIzMi44NDM4IiByeD0iMTIuNSIgcnk9IjEyLjUiIHN0eWxlPSJzdHJva2U6IzE4MTgxODtzdHJva2Utd2lkdGg6MC41OyIgd2lkdGg9IjE5OCIgeD0iMzUiIHk9IjE2NC4wOTM4Ii8+PHRleHQgZmlsbD0iIzAwMDAwMCIgZm9udC1mYW1pbHk9InNhbnMtc2VyaWYiIGZvbnQtc2l6ZT0iMTIiIGxlbmd0aEFkanVzdD0ic3BhY2luZyIgdGV4dExlbmd0aD0iMTc4IiB4PSI0NSIgeT0iMTg1LjQzNzUiPkxvY2F0ZSBQcm9kdWN0IGluIEludmVudG9yeTwvdGV4dD48cmVjdCBmaWxsPSIjRjFGMUYxIiBoZWlnaHQ9IjMyLjg0MzgiIHJ4PSIxMi41IiByeT0iMTIuNSIgc3R5bGU9InN0cm9rZTojMTgxODE4O3N0cm9rZS13aWR0aDowLjU7IiB3aWR0aD0iMTg0IiB4PSI0MiIgeT0iMjE2LjkzNzUiLz48dGV4dCBmaWxsPSIjMDAwMDAwIiBmb250LWZhbWlseT0ic2Fucy1zZXJpZiIgZm9udC1zaXplPSIxMiIgbGVuZ3RoQWRqdXN0PSJzcGFjaW5nIiB0ZXh0TGVuZ3RoPSIxNjQiIHg9IjUyIiB5PSIyMzguMjgxMyI+UGFjayBQcm9kdWN0IGZvciBTaGlwbWVudDwvdGV4dD48cmVjdCBmaWxsPSIjRjFGMUYxIiBoZWlnaHQ9IjMyLjg0MzgiIHJ4PSIxMi41IiByeT0iMTIuNSIgc3R5bGU9InN0cm9rZTojMTgxODE4O3N0cm9rZS13aWR0aDowLjU7IiB3aWR0aD0iMjI2IiB4PSIyMSIgeT0iMjY5Ljc4MTMiLz48dGV4dCBmaWxsPSIjMDAwMDAwIiBmb250LWZhbWlseT0ic2Fucy1zZXJpZiIgZm9udC1zaXplPSIxMiIgbGVuZ3RoQWRqdXN0PSJzcGFjaW5nIiB0ZXh0TGVuZ3RoPSIyMDYiIHg9IjMxIiB5PSIyOTEuMTI1Ij5Db29yZGluYXRlIHdpdGggQ291cmllciBTZXJ2aWNlPC90ZXh0PjxyZWN0IGZpbGw9IiNGMUYxRjEiIGhlaWdodD0iMzIuODQzOCIgcng9IjEyLjUiIHJ5PSIxMi41IiBzdHlsZT0ic3Ryb2tlOiMxODE4MTg7c3Ryb2tlLXdpZHRoOjAuNTsiIHdpZHRoPSIxMDAiIHg9Ijg0IiB5PSIzMjIuNjI1Ii8+PHRleHQgZmlsbD0iIzAwMDAwMCIgZm9udC1mYW1pbHk9InNhbnMtc2VyaWYiIGZvbnQtc2l6ZT0iMTIiIGxlbmd0aEFkanVzdD0ic3BhY2luZyIgdGV4dExlbmd0aD0iODAiIHg9Ijk0IiB5PSIzNDMuOTY4OCI+U2hpcCBQcm9kdWN0PC90ZXh0PjxyZWN0IGZpbGw9IiNGMUYxRjEiIGhlaWdodD0iMzIuODQzOCIgcng9IjEyLjUiIHJ5PSIxMi41IiBzdHlsZT0ic3Ryb2tlOiMxODE4MTg7c3Ryb2tlLXdpZHRoOjAuNTsiIHdpZHRoPSIyMjEiIHg9IjIzLjUiIHk9IjM3NS40Njg4Ii8+PHRleHQgZmlsbD0iIzAwMDAwMCIgZm9udC1mYW1pbHk9InNhbnMtc2VyaWYiIGZvbnQtc2l6ZT0iMTIiIGxlbmd0aEFkanVzdD0ic3BhY2luZyIgdGV4dExlbmd0aD0iMjAxIiB4PSIzMy41IiB5PSIzOTYuODEyNSI+VXBkYXRlIE9yZGVyIFN0YXR1cyB0byBTaGlwcGVkPC90ZXh0PjxyZWN0IGZpbGw9IiNGMUYxRjEiIGhlaWdodD0iMzIuODQzOCIgcng9IjEyLjUiIHJ5PSIxMi41IiBzdHlsZT0ic3Ryb2tlOiMxODE4MTg7c3Ryb2tlLXdpZHRoOjAuNTsiIHdpZHRoPSIxOTciIHg9IjM1LjUiIHk9IjQyOC4zMTI1Ii8+PHRleHQgZmlsbD0iIzAwMDAwMCIgZm9udC1mYW1pbHk9InNhbnMtc2VyaWYiIGZvbnQtc2l6ZT0iMTIiIGxlbmd0aEFkanVzdD0ic3BhY2luZyIgdGV4dExlbmd0aD0iMTc3IiB4PSI0NS41IiB5PSI0NDkuNjU2MyI+Tm90aWZ5IEN1c3RvbWVyIG9mIFNoaXBtZW50PC90ZXh0PjxlbGxpcHNlIGN4PSIxMzQiIGN5PSI0OTEuMTU2MyIgZmlsbD0ibm9uZSIgcng9IjEwIiByeT0iMTAiIHN0eWxlPSJzdHJva2U6IzIyMjIyMjtzdHJva2Utd2lkdGg6MS41OyIvPjxsaW5lIHN0eWxlPSJzdHJva2U6IzIyMjIyMjtzdHJva2Utd2lkdGg6Mi41OyIgeDE9IjEyNy44MTI4IiB4Mj0iMTQwLjE4NzIiIHkxPSI0ODQuOTY5MSIgeTI9IjQ5Ny4zNDM0Ii8+PGxpbmUgc3R5bGU9InN0cm9rZTojMjIyMjIyO3N0cm9rZS13aWR0aDoyLjU7IiB4MT0iMTQwLjE4NzIiIHgyPSIxMjcuODEyOCIgeTE9IjQ4NC45NjkxIiB5Mj0iNDk3LjM0MzQiLz48bGluZSBzdHlsZT0ic3Ryb2tlOiMwMDAwMDA7c3Ryb2tlLXdpZHRoOjEuNTsiIHgxPSIxNSIgeDI9IjE1IiB5MT0iNDYuOTg0NCIgeTI9IjUwMS4xNTYzIi8+PGxpbmUgc3R5bGU9InN0cm9rZTojMDAwMDAwO3N0cm9rZS13aWR0aDoxLjU7IiB4MT0iMjUxIiB4Mj0iMjUxIiB5MT0iNDYuOTg0NCIgeTI9IjUwMS4xNTYzIi8+PGxpbmUgc3R5bGU9InN0cm9rZTojMDAwMDAwO3N0cm9rZS13aWR0aDoxLjU7IiB4MT0iMzMzIiB4Mj0iMzMzIiB5MT0iNDYuOTg0NCIgeTI9IjUwMS4xNTYzIi8+PGxpbmUgc3R5bGU9InN0cm9rZTojMTgxODE4O3N0cm9rZS13aWR0aDoxLjA7IiB4MT0iMTM0IiB4Mj0iMTM0IiB5MT0iOTEuMjUiIHkyPSIxMTEuMjUiLz48cG9seWdvbiBmaWxsPSIjMTgxODE4IiBwb2ludHM9IjEzMCwxMDEuMjUsMTM0LDExMS4yNSwxMzgsMTAxLjI1LDEzNCwxMDUuMjUiIHN0eWxlPSJzdHJva2U6IzE4MTgxODtzdHJva2Utd2lkdGg6MS4wOyIvPjxsaW5lIHN0eWxlPSJzdHJva2U6IzE4MTgxODtzdHJva2Utd2lkdGg6MS4wOyIgeDE9IjEzNCIgeDI9IjEzNCIgeTE9IjE0NC4wOTM4IiB5Mj0iMTY0LjA5MzgiLz48cG9seWdvbiBmaWxsPSIjMTgxODE4IiBwb2ludHM9IjEzMCwxNTQuMDkzOCwxMzQsMTY0LjA5MzgsMTM4LDE1NC4wOTM4LDEzNCwxNTguMDkzOCIgc3R5bGU9InN0cm9rZTojMTgxODE4O3N0cm9rZS13aWR0aDoxLjA7Ii8+PGxpbmUgc3R5bGU9InN0cm9rZTojMTgxODE4O3N0cm9rZS13aWR0aDoxLjA7IiB4MT0iMTM0IiB4Mj0iMTM0IiB5MT0iMTk2LjkzNzUiIHkyPSIyMTYuOTM3NSIvPjxwb2x5Z29uIGZpbGw9IiMxODE4MTgiIHBvaW50cz0iMTMwLDIwNi45Mzc1LDEzNCwyMTYuOTM3NSwxMzgsMjA2LjkzNzUsMTM0LDIxMC45Mzc1IiBzdHlsZT0ic3Ryb2tlOiMxODE4MTg7c3Ryb2tlLXdpZHRoOjEuMDsiLz48bGluZSBzdHlsZT0ic3Ryb2tlOiMxODE4MTg7c3Ryb2tlLXdpZHRoOjEuMDsiIHgxPSIxMzQiIHgyPSIxMzQiIHkxPSIyNDkuNzgxMyIgeTI9IjI2OS43ODEzIi8+PHBvbHlnb24gZmlsbD0iIzE4MTgxOCIgcG9pbnRzPSIxMzAsMjU5Ljc4MTMsMTM0LDI2OS43ODEzLDEzOCwyNTkuNzgxMywxMzQsMjYzLjc4MTMiIHN0eWxlPSJzdHJva2U6IzE4MTgxODtzdHJva2Utd2lkdGg6MS4wOyIvPjxsaW5lIHN0eWxlPSJzdHJva2U6IzE4MTgxODtzdHJva2Utd2lkdGg6MS4wOyIgeDE9IjEzNCIgeDI9IjEzNCIgeTE9IjMwMi42MjUiIHkyPSIzMjIuNjI1Ii8+PHBvbHlnb24gZmlsbD0iIzE4MTgxOCIgcG9pbnRzPSIxMzAsMzEyLjYyNSwxMzQsMzIyLjYyNSwxMzgsMzEyLjYyNSwxMzQsMzE2LjYyNSIgc3R5bGU9InN0cm9rZTojMTgxODE4O3N0cm9rZS13aWR0aDoxLjA7Ii8+PGxpbmUgc3R5bGU9InN0cm9rZTojMTgxODE4O3N0cm9rZS13aWR0aDoxLjA7IiB4MT0iMTM0IiB4Mj0iMTM0IiB5MT0iMzU1LjQ2ODgiIHkyPSIzNzUuNDY4OCIvPjxwb2x5Z29uIGZpbGw9IiMxODE4MTgiIHBvaW50cz0iMTMwLDM2NS40Njg4LDEzNCwzNzUuNDY4OCwxMzgsMzY1LjQ2ODgsMTM0LDM2OS40Njg4IiBzdHlsZT0ic3Ryb2tlOiMxODE4MTg7c3Ryb2tlLXdpZHRoOjEuMDsiLz48bGluZSBzdHlsZT0ic3Ryb2tlOiMxODE4MTg7c3Ryb2tlLXdpZHRoOjEuMDsiIHgxPSIxMzQiIHgyPSIxMzQiIHkxPSI0MDguMzEyNSIgeTI9IjQyOC4zMTI1Ii8+PHBvbHlnb24gZmlsbD0iIzE4MTgxOCIgcG9pbnRzPSIxMzAsNDE4LjMxMjUsMTM0LDQyOC4zMTI1LDEzOCw0MTguMzEyNSwxMzQsNDIyLjMxMjUiIHN0eWxlPSJzdHJva2U6IzE4MTgxODtzdHJva2Utd2lkdGg6MS4wOyIvPjxsaW5lIHN0eWxlPSJzdHJva2U6IzE4MTgxODtzdHJva2Utd2lkdGg6MS4wOyIgeDE9IjEzNCIgeDI9IjEzNCIgeTE9IjQ2MS4xNTYzIiB5Mj0iNDgxLjE1NjMiLz48cG9seWdvbiBmaWxsPSIjMTgxODE4IiBwb2ludHM9IjEzMCw0NzEuMTU2MywxMzQsNDgxLjE1NjMsMTM4LDQ3MS4xNTYzLDEzNCw0NzUuMTU2MyIgc3R5bGU9InN0cm9rZTojMTgxODE4O3N0cm9rZS13aWR0aDoxLjA7Ii8+PHRleHQgZmlsbD0iIzAwMDAwMCIgZm9udC1mYW1pbHk9InNhbnMtc2VyaWYiIGZvbnQtc2l6ZT0iMTgiIGxlbmd0aEFkanVzdD0ic3BhY2luZyIgdGV4dExlbmd0aD0iNzIiIHg9Ijk3IiB5PSI2NCI+RW1wbG95ZWU8L3RleHQ+PHRleHQgZmlsbD0iIzAwMDAwMCIgZm9udC1mYW1pbHk9InNhbnMtc2VyaWYiIGZvbnQtc2l6ZT0iMTgiIGxlbmd0aEFkanVzdD0ic3BhY2luZyIgdGV4dExlbmd0aD0iNzIiIHg9IjI1NiIgeT0iNjQiPkN1c3RvbWVyPC90ZXh0PjwhLS1TUkM9W0pPdjEzZThtNDROdEZTTFNtQXFCTkE4QjR3RDRtVzZRVFdXSmVLRTZBT1FhWHhUV0QybWR4X3RfSHFieFhDZ3c1elpXZVV2ZVg0aE9Id1RtV0FPeWNkR1BuZnVObjZHY2pRQWNVQTkzY1g0VXViN1daNmdmZHF3Y2tCNnBZbHl1MVJZNjZPRW9COWJrNnBfTWljblJHeVFQYlNwWUFRcGZEc2E3OUtVWHQ1c1pwRUdtNl9sN3lqY0NWZk1fN3pIZ0RLd1dsNU1Fd0JEbVB3THNXSjlFb2FEc2tEdGpPVjM2ZjF6QjdtMDBdLS0+PC9nPjwvc3ZnPg==;" parent="1" vertex="1">
            <mxGeometry x="790" y="1280" width="354" height="513" as="geometry" />
          </mxCell>
        </UserObject>
        <UserObject label="" plantUmlData="{&quot;data&quot;:&quot;@startuml\ntitle Receive Orders - UC3\n\n|Customer|\nstart\n:Contacts via WhatsApp;\n:Send Product Request;\n\n|Admin|\n:Receives Product Request;\n:Reviews Product Request;\n:Responds to Customer;\n\n|Customer|\n:Receives Admin&#39;s Response;\n\n|Admin|\n:Confirms Order with Customer;\n\nstop\n@enduml\n&quot;,&quot;format&quot;:&quot;svg&quot;}" id="OlcV61gdzetprrhdvR_Y-5">
          <mxCell style="shape=image;noLabel=1;verticalAlign=top;aspect=fixed;imageAspect=0;image=data:image/svg+xml,PD94bWwgdmVyc2lvbj0iMS4wIiBlbmNvZGluZz0idXMtYXNjaWkiIHN0YW5kYWxvbmU9Im5vIj8+PHN2ZyB4bWxucz0iaHR0cDovL3d3dy53My5vcmcvMjAwMC9zdmciIHhtbG5zOnhsaW5rPSJodHRwOi8vd3d3LnczLm9yZy8xOTk5L3hsaW5rIiBjb250ZW50U3R5bGVUeXBlPSJ0ZXh0L2NzcyIgaGVpZ2h0PSI1MTVweCIgcHJlc2VydmVBc3BlY3RSYXRpbz0ibm9uZSIgc3R5bGU9IndpZHRoOjQ0OXB4O2hlaWdodDo1MTVweDtiYWNrZ3JvdW5kOiNGRkZGRkY7IiB2ZXJzaW9uPSIxLjEiIHZpZXdCb3g9IjAgMCA0NDkgNTE1IiB3aWR0aD0iNDQ5cHgiIHpvb21BbmRQYW49Im1hZ25pZnkiPjxkZWZzLz48Zz48dGV4dCBmaWxsPSIjMDAwMDAwIiBmb250LWZhbWlseT0ic2Fucy1zZXJpZiIgZm9udC1zaXplPSIxNCIgZm9udC13ZWlnaHQ9ImJvbGQiIGxlbmd0aEFkanVzdD0ic3BhY2luZyIgdGV4dExlbmd0aD0iMTQwIiB4PSIxNTMuMjUiIHk9IjMzLjIzNDQiPlJlY2VpdmUgT3JkZXJzIC0gVUMzPC90ZXh0PjxyZWN0IGZpbGw9Im5vbmUiIGhlaWdodD0iMTkuMjY1NiIgc3R5bGU9InN0cm9rZTpub25lO3N0cm9rZS13aWR0aDoxLjA7IiB3aWR0aD0iNDE2LjUiIHg9IjE1IiB5PSI0Ni45ODQ0Ii8+PGVsbGlwc2UgY3g9IjExNSIgY3k9IjgxLjI1IiBmaWxsPSIjMjIyMjIyIiByeD0iMTAiIHJ5PSIxMCIgc3R5bGU9InN0cm9rZTojMjIyMjIyO3N0cm9rZS13aWR0aDoxLjA7Ii8+PHJlY3QgZmlsbD0iI0YxRjFGMSIgaGVpZ2h0PSIzMi44NDM4IiByeD0iMTIuNSIgcnk9IjEyLjUiIHN0eWxlPSJzdHJva2U6IzE4MTgxODtzdHJva2Utd2lkdGg6MC41OyIgd2lkdGg9IjE2MCIgeD0iMzUiIHk9IjExMS4yNSIvPjx0ZXh0IGZpbGw9IiMwMDAwMDAiIGZvbnQtZmFtaWx5PSJzYW5zLXNlcmlmIiBmb250LXNpemU9IjEyIiBsZW5ndGhBZGp1c3Q9InNwYWNpbmciIHRleHRMZW5ndGg9IjE0MCIgeD0iNDUiIHk9IjEzMi41OTM4Ij5Db250YWN0cyB2aWEgV2hhdHNBcHA8L3RleHQ+PHJlY3QgZmlsbD0iI0YxRjFGMSIgaGVpZ2h0PSIzMi44NDM4IiByeD0iMTIuNSIgcnk9IjEyLjUiIHN0eWxlPSJzdHJva2U6IzE4MTgxODtzdHJva2Utd2lkdGg6MC41OyIgd2lkdGg9IjE1NSIgeD0iMzcuNSIgeT0iMTY0LjA5MzgiLz48dGV4dCBmaWxsPSIjMDAwMDAwIiBmb250LWZhbWlseT0ic2Fucy1zZXJpZiIgZm9udC1zaXplPSIxMiIgbGVuZ3RoQWRqdXN0PSJzcGFjaW5nIiB0ZXh0TGVuZ3RoPSIxMzUiIHg9IjQ3LjUiIHk9IjE4NS40Mzc1Ij5TZW5kIFByb2R1Y3QgUmVxdWVzdDwvdGV4dD48cmVjdCBmaWxsPSIjRjFGMUYxIiBoZWlnaHQ9IjMyLjg0MzgiIHJ4PSIxMi41IiByeT0iMTIuNSIgc3R5bGU9InN0cm9rZTojMTgxODE4O3N0cm9rZS13aWR0aDowLjU7IiB3aWR0aD0iMTg4IiB4PSIyMSIgeT0iMzc1LjQ2ODgiLz48dGV4dCBmaWxsPSIjMDAwMDAwIiBmb250LWZhbWlseT0ic2Fucy1zZXJpZiIgZm9udC1zaXplPSIxMiIgbGVuZ3RoQWRqdXN0PSJzcGFjaW5nIiB0ZXh0TGVuZ3RoPSIxNjgiIHg9IjMxIiB5PSIzOTYuODEyNSI+UmVjZWl2ZXMgQWRtaW4ncyBSZXNwb25zZTwvdGV4dD48bGluZSBzdHlsZT0ic3Ryb2tlOiMwMDAwMDA7c3Ryb2tlLXdpZHRoOjEuNTsiIHgxPSIxNSIgeDI9IjE1IiB5MT0iNDYuOTg0NCIgeTI9IjUwMy4xNTYzIi8+PHJlY3QgZmlsbD0iI0YxRjFGMSIgaGVpZ2h0PSIzMi44NDM4IiByeD0iMTIuNSIgcnk9IjEyLjUiIHN0eWxlPSJzdHJva2U6IzE4MTgxODtzdHJva2Utd2lkdGg6MC41OyIgd2lkdGg9IjE4MSIgeD0iMjMxIiB5PSIyMTYuOTM3NSIvPjx0ZXh0IGZpbGw9IiMwMDAwMDAiIGZvbnQtZmFtaWx5PSJzYW5zLXNlcmlmIiBmb250LXNpemU9IjEyIiBsZW5ndGhBZGp1c3Q9InNwYWNpbmciIHRleHRMZW5ndGg9IjE2MSIgeD0iMjQxIiB5PSIyMzguMjgxMyI+UmVjZWl2ZXMgUHJvZHVjdCBSZXF1ZXN0PC90ZXh0PjxyZWN0IGZpbGw9IiNGMUYxRjEiIGhlaWdodD0iMzIuODQzOCIgcng9IjEyLjUiIHJ5PSIxMi41IiBzdHlsZT0ic3Ryb2tlOiMxODE4MTg7c3Ryb2tlLXdpZHRoOjAuNTsiIHdpZHRoPSIxNzQiIHg9IjIzNC41IiB5PSIyNjkuNzgxMyIvPjx0ZXh0IGZpbGw9IiMwMDAwMDAiIGZvbnQtZmFtaWx5PSJzYW5zLXNlcmlmIiBmb250LXNpemU9IjEyIiBsZW5ndGhBZGp1c3Q9InNwYWNpbmciIHRleHRMZW5ndGg9IjE1NCIgeD0iMjQ0LjUiIHk9IjI5MS4xMjUiPlJldmlld3MgUHJvZHVjdCBSZXF1ZXN0PC90ZXh0PjxyZWN0IGZpbGw9IiNGMUYxRjEiIGhlaWdodD0iMzIuODQzOCIgcng9IjEyLjUiIHJ5PSIxMi41IiBzdHlsZT0ic3Ryb2tlOiMxODE4MTg7c3Ryb2tlLXdpZHRoOjAuNTsiIHdpZHRoPSIxNTUiIHg9IjI0NCIgeT0iMzIyLjYyNSIvPjx0ZXh0IGZpbGw9IiMwMDAwMDAiIGZvbnQtZmFtaWx5PSJzYW5zLXNlcmlmIiBmb250LXNpemU9IjEyIiBsZW5ndGhBZGp1c3Q9InNwYWNpbmciIHRleHRMZW5ndGg9IjEzNSIgeD0iMjU0IiB5PSIzNDMuOTY4OCI+UmVzcG9uZHMgdG8gQ3VzdG9tZXI8L3RleHQ+PHJlY3QgZmlsbD0iI0YxRjFGMSIgaGVpZ2h0PSIzMi44NDM4IiByeD0iMTIuNSIgcnk9IjEyLjUiIHN0eWxlPSJzdHJva2U6IzE4MTgxODtzdHJva2Utd2lkdGg6MC41OyIgd2lkdGg9IjIwNSIgeD0iMjE5IiB5PSI0MjguMzEyNSIvPjx0ZXh0IGZpbGw9IiMwMDAwMDAiIGZvbnQtZmFtaWx5PSJzYW5zLXNlcmlmIiBmb250LXNpemU9IjEyIiBsZW5ndGhBZGp1c3Q9InNwYWNpbmciIHRleHRMZW5ndGg9IjE4NSIgeD0iMjI5IiB5PSI0NDkuNjU2MyI+Q29uZmlybXMgT3JkZXIgd2l0aCBDdXN0b21lcjwvdGV4dD48ZWxsaXBzZSBjeD0iMzIxLjUiIGN5PSI0OTIuMTU2MyIgZmlsbD0ibm9uZSIgcng9IjExIiByeT0iMTEiIHN0eWxlPSJzdHJva2U6IzIyMjIyMjtzdHJva2Utd2lkdGg6MS4wOyIvPjxlbGxpcHNlIGN4PSIzMjEuNSIgY3k9IjQ5Mi4xNTYzIiBmaWxsPSIjMjIyMjIyIiByeD0iNiIgcnk9IjYiIHN0eWxlPSJzdHJva2U6IzIyMjIyMjtzdHJva2Utd2lkdGg6MS4wOyIvPjxsaW5lIHN0eWxlPSJzdHJva2U6IzAwMDAwMDtzdHJva2Utd2lkdGg6MS41OyIgeDE9IjIxMyIgeDI9IjIxMyIgeTE9IjQ2Ljk4NDQiIHkyPSI1MDMuMTU2MyIvPjxsaW5lIHN0eWxlPSJzdHJva2U6IzAwMDAwMDtzdHJva2Utd2lkdGg6MS41OyIgeDE9IjQyOCIgeDI9IjQyOCIgeTE9IjQ2Ljk4NDQiIHkyPSI1MDMuMTU2MyIvPjxsaW5lIHN0eWxlPSJzdHJva2U6IzE4MTgxODtzdHJva2Utd2lkdGg6MS4wOyIgeDE9IjExNSIgeDI9IjExNSIgeTE9IjkxLjI1IiB5Mj0iMTExLjI1Ii8+PHBvbHlnb24gZmlsbD0iIzE4MTgxOCIgcG9pbnRzPSIxMTEsMTAxLjI1LDExNSwxMTEuMjUsMTE5LDEwMS4yNSwxMTUsMTA1LjI1IiBzdHlsZT0ic3Ryb2tlOiMxODE4MTg7c3Ryb2tlLXdpZHRoOjEuMDsiLz48bGluZSBzdHlsZT0ic3Ryb2tlOiMxODE4MTg7c3Ryb2tlLXdpZHRoOjEuMDsiIHgxPSIxMTUiIHgyPSIxMTUiIHkxPSIxNDQuMDkzOCIgeTI9IjE2NC4wOTM4Ii8+PHBvbHlnb24gZmlsbD0iIzE4MTgxOCIgcG9pbnRzPSIxMTEsMTU0LjA5MzgsMTE1LDE2NC4wOTM4LDExOSwxNTQuMDkzOCwxMTUsMTU4LjA5MzgiIHN0eWxlPSJzdHJva2U6IzE4MTgxODtzdHJva2Utd2lkdGg6MS4wOyIvPjxsaW5lIHN0eWxlPSJzdHJva2U6IzE4MTgxODtzdHJva2Utd2lkdGg6MS4wOyIgeDE9IjMyMS41IiB4Mj0iMzIxLjUiIHkxPSIyNDkuNzgxMyIgeTI9IjI2OS43ODEzIi8+PHBvbHlnb24gZmlsbD0iIzE4MTgxOCIgcG9pbnRzPSIzMTcuNSwyNTkuNzgxMywzMjEuNSwyNjkuNzgxMywzMjUuNSwyNTkuNzgxMywzMjEuNSwyNjMuNzgxMyIgc3R5bGU9InN0cm9rZTojMTgxODE4O3N0cm9rZS13aWR0aDoxLjA7Ii8+PGxpbmUgc3R5bGU9InN0cm9rZTojMTgxODE4O3N0cm9rZS13aWR0aDoxLjA7IiB4MT0iMzIxLjUiIHgyPSIzMjEuNSIgeTE9IjMwMi42MjUiIHkyPSIzMjIuNjI1Ii8+PHBvbHlnb24gZmlsbD0iIzE4MTgxOCIgcG9pbnRzPSIzMTcuNSwzMTIuNjI1LDMyMS41LDMyMi42MjUsMzI1LjUsMzEyLjYyNSwzMjEuNSwzMTYuNjI1IiBzdHlsZT0ic3Ryb2tlOiMxODE4MTg7c3Ryb2tlLXdpZHRoOjEuMDsiLz48bGluZSBzdHlsZT0ic3Ryb2tlOiMxODE4MTg7c3Ryb2tlLXdpZHRoOjEuMDsiIHgxPSIzMjEuNSIgeDI9IjMyMS41IiB5MT0iNDYxLjE1NjMiIHkyPSI0ODEuMTU2MyIvPjxwb2x5Z29uIGZpbGw9IiMxODE4MTgiIHBvaW50cz0iMzE3LjUsNDcxLjE1NjMsMzIxLjUsNDgxLjE1NjMsMzI1LjUsNDcxLjE1NjMsMzIxLjUsNDc1LjE1NjMiIHN0eWxlPSJzdHJva2U6IzE4MTgxODtzdHJva2Utd2lkdGg6MS4wOyIvPjxsaW5lIHN0eWxlPSJzdHJva2U6IzE4MTgxODtzdHJva2Utd2lkdGg6MS4wOyIgeDE9IjExNSIgeDI9IjExNSIgeTE9IjE5Ni45Mzc1IiB5Mj0iMjAxLjkzNzUiLz48bGluZSBzdHlsZT0ic3Ryb2tlOiMxODE4MTg7c3Ryb2tlLXdpZHRoOjEuMDsiIHgxPSIxMTUiIHgyPSIzMjEuNSIgeTE9IjIwMS45Mzc1IiB5Mj0iMjAxLjkzNzUiLz48bGluZSBzdHlsZT0ic3Ryb2tlOiMxODE4MTg7c3Ryb2tlLXdpZHRoOjEuMDsiIHgxPSIzMjEuNSIgeDI9IjMyMS41IiB5MT0iMjAxLjkzNzUiIHkyPSIyMTYuOTM3NSIvPjxwb2x5Z29uIGZpbGw9IiMxODE4MTgiIHBvaW50cz0iMzE3LjUsMjA2LjkzNzUsMzIxLjUsMjE2LjkzNzUsMzI1LjUsMjA2LjkzNzUsMzIxLjUsMjEwLjkzNzUiIHN0eWxlPSJzdHJva2U6IzE4MTgxODtzdHJva2Utd2lkdGg6MS4wOyIvPjxsaW5lIHN0eWxlPSJzdHJva2U6IzE4MTgxODtzdHJva2Utd2lkdGg6MS4wOyIgeDE9IjMyMS41IiB4Mj0iMzIxLjUiIHkxPSIzNTUuNDY4OCIgeTI9IjM2MC40Njg4Ii8+PGxpbmUgc3R5bGU9InN0cm9rZTojMTgxODE4O3N0cm9rZS13aWR0aDoxLjA7IiB4MT0iMzIxLjUiIHgyPSIxMTUiIHkxPSIzNjAuNDY4OCIgeTI9IjM2MC40Njg4Ii8+PGxpbmUgc3R5bGU9InN0cm9rZTojMTgxODE4O3N0cm9rZS13aWR0aDoxLjA7IiB4MT0iMTE1IiB4Mj0iMTE1IiB5MT0iMzYwLjQ2ODgiIHkyPSIzNzUuNDY4OCIvPjxwb2x5Z29uIGZpbGw9IiMxODE4MTgiIHBvaW50cz0iMTExLDM2NS40Njg4LDExNSwzNzUuNDY4OCwxMTksMzY1LjQ2ODgsMTE1LDM2OS40Njg4IiBzdHlsZT0ic3Ryb2tlOiMxODE4MTg7c3Ryb2tlLXdpZHRoOjEuMDsiLz48bGluZSBzdHlsZT0ic3Ryb2tlOiMxODE4MTg7c3Ryb2tlLXdpZHRoOjEuMDsiIHgxPSIxMTUiIHgyPSIxMTUiIHkxPSI0MDguMzEyNSIgeTI9IjQxMy4zMTI1Ii8+PGxpbmUgc3R5bGU9InN0cm9rZTojMTgxODE4O3N0cm9rZS13aWR0aDoxLjA7IiB4MT0iMTE1IiB4Mj0iMzIxLjUiIHkxPSI0MTMuMzEyNSIgeTI9IjQxMy4zMTI1Ii8+PGxpbmUgc3R5bGU9InN0cm9rZTojMTgxODE4O3N0cm9rZS13aWR0aDoxLjA7IiB4MT0iMzIxLjUiIHgyPSIzMjEuNSIgeTE9IjQxMy4zMTI1IiB5Mj0iNDI4LjMxMjUiLz48cG9seWdvbiBmaWxsPSIjMTgxODE4IiBwb2ludHM9IjMxNy41LDQxOC4zMTI1LDMyMS41LDQyOC4zMTI1LDMyNS41LDQxOC4zMTI1LDMyMS41LDQyMi4zMTI1IiBzdHlsZT0ic3Ryb2tlOiMxODE4MTg7c3Ryb2tlLXdpZHRoOjEuMDsiLz48dGV4dCBmaWxsPSIjMDAwMDAwIiBmb250LWZhbWlseT0ic2Fucy1zZXJpZiIgZm9udC1zaXplPSIxOCIgbGVuZ3RoQWRqdXN0PSJzcGFjaW5nIiB0ZXh0TGVuZ3RoPSI3MiIgeD0iNzgiIHk9IjY0Ij5DdXN0b21lcjwvdGV4dD48dGV4dCBmaWxsPSIjMDAwMDAwIiBmb250LWZhbWlseT0ic2Fucy1zZXJpZiIgZm9udC1zaXplPSIxOCIgbGVuZ3RoQWRqdXN0PSJzcGFjaW5nIiB0ZXh0TGVuZ3RoPSI0NSIgeD0iMjk4IiB5PSI2NCI+QWRtaW48L3RleHQ+PCEtLVNSQz1bUk95bjNpOG0zNE50ZEM4UjRuRFJFckt2MDBZNGNBRjRnOVBlNGM4ZE5OOXU4V2dZMjNQQnR0eF9NS1hrMjRVcUkwTFhkbm1jWFlzU3pLd2ZnWkRCYzMxTG5NQUlnNHU3QnlPQUdvNDNiejQ4M3A3c2daa1hUdDE4bU1LaDNOUkZvRDh0bUUwY3liTHJCcHhfeGhJZTRDeF80dXgxRW1POXkzUmZsd20tdDZWSFhjNnZPTG9ORC1haGZPY054czBjNlRVeURpRzddLS0+PC9nPjwvc3ZnPg==;" parent="1" vertex="1">
            <mxGeometry x="-620" y="1250" width="449" height="515" as="geometry" />
          </mxCell>
        </UserObject>
        <UserObject label="" plantUmlData="{&quot;data&quot;:&quot;@startuml\ntitle Update Inventory Process - UC11\n|Employee|\nstart\n:Receive Sales Updates from Customers;\n:Update Inventory Records for Normal Orders;\n\n|Admin|\n:Receive Shipment Confirmation for Big Orders;\nfork\n    :Release Stock for Own Clothing Shop;\nfork again\n    :Adjust Inventory Levels for Big Orders;\nend fork\n:Update Inventory Records;\n\nstop\n@enduml\n&quot;,&quot;format&quot;:&quot;svg&quot;}" id="IBJdU9s1SxhIxIOT5llA-11">
          <mxCell style="shape=image;noLabel=1;verticalAlign=top;aspect=fixed;imageAspect=0;image=data:image/svg+xml,PD94bWwgdmVyc2lvbj0iMS4wIiBlbmNvZGluZz0idXMtYXNjaWkiIHN0YW5kYWxvbmU9Im5vIj8+PHN2ZyB4bWxucz0iaHR0cDovL3d3dy53My5vcmcvMjAwMC9zdmciIHhtbG5zOnhsaW5rPSJodHRwOi8vd3d3LnczLm9yZy8xOTk5L3hsaW5rIiBjb250ZW50U3R5bGVUeXBlPSJ0ZXh0L2NzcyIgaGVpZ2h0PSI0NjFweCIgcHJlc2VydmVBc3BlY3RSYXRpbz0ibm9uZSIgc3R5bGU9IndpZHRoOjkzNHB4O2hlaWdodDo0NjFweDtiYWNrZ3JvdW5kOiNGRkZGRkY7IiB2ZXJzaW9uPSIxLjEiIHZpZXdCb3g9IjAgMCA5MzQgNDYxIiB3aWR0aD0iOTM0cHgiIHpvb21BbmRQYW49Im1hZ25pZnkiPjxkZWZzLz48Zz48dGV4dCBmaWxsPSIjMDAwMDAwIiBmb250LWZhbWlseT0ic2Fucy1zZXJpZiIgZm9udC1zaXplPSIxNCIgZm9udC13ZWlnaHQ9ImJvbGQiIGxlbmd0aEFkanVzdD0ic3BhY2luZyIgdGV4dExlbmd0aD0iMjE3IiB4PSIzNTcuMjUiIHk9IjMzLjIzNDQiPlVwZGF0ZSBJbnZlbnRvcnkgUHJvY2VzcyAtIFVDMTE8L3RleHQ+PHJlY3QgZmlsbD0ibm9uZSIgaGVpZ2h0PSIxOS4yNjU2IiBzdHlsZT0ic3Ryb2tlOm5vbmU7c3Ryb2tlLXdpZHRoOjEuMDsiIHdpZHRoPSI5MDEuNSIgeD0iMTUiIHk9IjQ2Ljk4NDQiLz48ZWxsaXBzZSBjeD0iMTcyIiBjeT0iODEuMjUiIGZpbGw9IiMyMjIyMjIiIHJ4PSIxMCIgcnk9IjEwIiBzdHlsZT0ic3Ryb2tlOiMyMjIyMjI7c3Ryb2tlLXdpZHRoOjEuMDsiLz48cmVjdCBmaWxsPSIjRjFGMUYxIiBoZWlnaHQ9IjMyLjg0MzgiIHJ4PSIxMi41IiByeT0iMTIuNSIgc3R5bGU9InN0cm9rZTojMTgxODE4O3N0cm9rZS13aWR0aDowLjU7IiB3aWR0aD0iMjYwIiB4PSI0MiIgeT0iMTExLjI1Ii8+PHRleHQgZmlsbD0iIzAwMDAwMCIgZm9udC1mYW1pbHk9InNhbnMtc2VyaWYiIGZvbnQtc2l6ZT0iMTIiIGxlbmd0aEFkanVzdD0ic3BhY2luZyIgdGV4dExlbmd0aD0iMjQwIiB4PSI1MiIgeT0iMTMyLjU5MzgiPlJlY2VpdmUgU2FsZXMgVXBkYXRlcyBmcm9tIEN1c3RvbWVyczwvdGV4dD48cmVjdCBmaWxsPSIjRjFGMUYxIiBoZWlnaHQ9IjMyLjg0MzgiIHJ4PSIxMi41IiByeT0iMTIuNSIgc3R5bGU9InN0cm9rZTojMTgxODE4O3N0cm9rZS13aWR0aDowLjU7IiB3aWR0aD0iMzAyIiB4PSIyMSIgeT0iMTY0LjA5MzgiLz48dGV4dCBmaWxsPSIjMDAwMDAwIiBmb250LWZhbWlseT0ic2Fucy1zZXJpZiIgZm9udC1zaXplPSIxMiIgbGVuZ3RoQWRqdXN0PSJzcGFjaW5nIiB0ZXh0TGVuZ3RoPSIyODIiIHg9IjMxIiB5PSIxODUuNDM3NSI+VXBkYXRlIEludmVudG9yeSBSZWNvcmRzIGZvciBOb3JtYWwgT3JkZXJzPC90ZXh0PjxsaW5lIHN0eWxlPSJzdHJva2U6IzAwMDAwMDtzdHJva2Utd2lkdGg6MS41OyIgeDE9IjE1IiB4Mj0iMTUiIHkxPSI0Ni45ODQ0IiB5Mj0iNDQ5LjQ2ODgiLz48cmVjdCBmaWxsPSIjRjFGMUYxIiBoZWlnaHQ9IjMyLjg0MzgiIHJ4PSIxMi41IiByeT0iMTIuNSIgc3R5bGU9InN0cm9rZTojMTgxODE4O3N0cm9rZS13aWR0aDowLjU7IiB3aWR0aD0iMzExIiB4PSI0NjUuNSIgeT0iMjE2LjkzNzUiLz48dGV4dCBmaWxsPSIjMDAwMDAwIiBmb250LWZhbWlseT0ic2Fucy1zZXJpZiIgZm9udC1zaXplPSIxMiIgbGVuZ3RoQWRqdXN0PSJzcGFjaW5nIiB0ZXh0TGVuZ3RoPSIyOTEiIHg9IjQ3NS41IiB5PSIyMzguMjgxMyI+UmVjZWl2ZSBTaGlwbWVudCBDb25maXJtYXRpb24gZm9yIEJpZyBPcmRlcnM8L3RleHQ+PHJlY3QgZmlsbD0iIzU1NTU1NSIgaGVpZ2h0PSI2IiByeD0iMi41IiByeT0iMi41IiBzdHlsZT0ic3Ryb2tlOiM1NTU1NTU7c3Ryb2tlLXdpZHRoOjEuMDsiIHdpZHRoPSI1NzYiIHg9IjMzMyIgeT0iMjY5Ljc4MTMiLz48cmVjdCBmaWxsPSIjRjFGMUYxIiBoZWlnaHQ9IjMyLjg0MzgiIHJ4PSIxMi41IiByeT0iMTIuNSIgc3R5bGU9InN0cm9rZTojMTgxODE4O3N0cm9rZS13aWR0aDowLjU7IiB3aWR0aD0iMjUxIiB4PSIzNDUiIHk9IjI5NS43ODEzIi8+PHRleHQgZmlsbD0iIzAwMDAwMCIgZm9udC1mYW1pbHk9InNhbnMtc2VyaWYiIGZvbnQtc2l6ZT0iMTIiIGxlbmd0aEFkanVzdD0ic3BhY2luZyIgdGV4dExlbmd0aD0iMjMxIiB4PSIzNTUiIHk9IjMxNy4xMjUiPlJlbGVhc2UgU3RvY2sgZm9yIE93biBDbG90aGluZyBTaG9wPC90ZXh0PjxyZWN0IGZpbGw9IiNGMUYxRjEiIGhlaWdodD0iMzIuODQzOCIgcng9IjEyLjUiIHJ5PSIxMi41IiBzdHlsZT0ic3Ryb2tlOiMxODE4MTg7c3Ryb2tlLXdpZHRoOjAuNTsiIHdpZHRoPSIyNzMiIHg9IjYyNCIgeT0iMjk1Ljc4MTMiLz48dGV4dCBmaWxsPSIjMDAwMDAwIiBmb250LWZhbWlseT0ic2Fucy1zZXJpZiIgZm9udC1zaXplPSIxMiIgbGVuZ3RoQWRqdXN0PSJzcGFjaW5nIiB0ZXh0TGVuZ3RoPSIyNTMiIHg9IjYzNCIgeT0iMzE3LjEyNSI+QWRqdXN0IEludmVudG9yeSBMZXZlbHMgZm9yIEJpZyBPcmRlcnM8L3RleHQ+PHJlY3QgZmlsbD0iIzU1NTU1NSIgaGVpZ2h0PSI2IiByeD0iMi41IiByeT0iMi41IiBzdHlsZT0ic3Ryb2tlOiM1NTU1NTU7c3Ryb2tlLXdpZHRoOjEuMDsiIHdpZHRoPSI1NzYiIHg9IjMzMyIgeT0iMzQ4LjYyNSIvPjxyZWN0IGZpbGw9IiNGMUYxRjEiIGhlaWdodD0iMzIuODQzOCIgcng9IjEyLjUiIHJ5PSIxMi41IiBzdHlsZT0ic3Ryb2tlOiMxODE4MTg7c3Ryb2tlLXdpZHRoOjAuNTsiIHdpZHRoPSIxODIiIHg9IjUzMCIgeT0iMzc0LjYyNSIvPjx0ZXh0IGZpbGw9IiMwMDAwMDAiIGZvbnQtZmFtaWx5PSJzYW5zLXNlcmlmIiBmb250LXNpemU9IjEyIiBsZW5ndGhBZGp1c3Q9InNwYWNpbmciIHRleHRMZW5ndGg9IjE2MiIgeD0iNTQwIiB5PSIzOTUuOTY4OCI+VXBkYXRlIEludmVudG9yeSBSZWNvcmRzPC90ZXh0PjxlbGxpcHNlIGN4PSI2MjEiIGN5PSI0MzguNDY4OCIgZmlsbD0ibm9uZSIgcng9IjExIiByeT0iMTEiIHN0eWxlPSJzdHJva2U6IzIyMjIyMjtzdHJva2Utd2lkdGg6MS4wOyIvPjxlbGxpcHNlIGN4PSI2MjEiIGN5PSI0MzguNDY4OCIgZmlsbD0iIzIyMjIyMiIgcng9IjYiIHJ5PSI2IiBzdHlsZT0ic3Ryb2tlOiMyMjIyMjI7c3Ryb2tlLXdpZHRoOjEuMDsiLz48bGluZSBzdHlsZT0ic3Ryb2tlOiMwMDAwMDA7c3Ryb2tlLXdpZHRoOjEuNTsiIHgxPSIzMjciIHgyPSIzMjciIHkxPSI0Ni45ODQ0IiB5Mj0iNDQ5LjQ2ODgiLz48bGluZSBzdHlsZT0ic3Ryb2tlOiMwMDAwMDA7c3Ryb2tlLXdpZHRoOjEuNTsiIHgxPSI5MTMiIHgyPSI5MTMiIHkxPSI0Ni45ODQ0IiB5Mj0iNDQ5LjQ2ODgiLz48bGluZSBzdHlsZT0ic3Ryb2tlOiMxODE4MTg7c3Ryb2tlLXdpZHRoOjEuMDsiIHgxPSIxNzIiIHgyPSIxNzIiIHkxPSI5MS4yNSIgeTI9IjExMS4yNSIvPjxwb2x5Z29uIGZpbGw9IiMxODE4MTgiIHBvaW50cz0iMTY4LDEwMS4yNSwxNzIsMTExLjI1LDE3NiwxMDEuMjUsMTcyLDEwNS4yNSIgc3R5bGU9InN0cm9rZTojMTgxODE4O3N0cm9rZS13aWR0aDoxLjA7Ii8+PGxpbmUgc3R5bGU9InN0cm9rZTojMTgxODE4O3N0cm9rZS13aWR0aDoxLjA7IiB4MT0iMTcyIiB4Mj0iMTcyIiB5MT0iMTQ0LjA5MzgiIHkyPSIxNjQuMDkzOCIvPjxwb2x5Z29uIGZpbGw9IiMxODE4MTgiIHBvaW50cz0iMTY4LDE1NC4wOTM4LDE3MiwxNjQuMDkzOCwxNzYsMTU0LjA5MzgsMTcyLDE1OC4wOTM4IiBzdHlsZT0ic3Ryb2tlOiMxODE4MTg7c3Ryb2tlLXdpZHRoOjEuMDsiLz48bGluZSBzdHlsZT0ic3Ryb2tlOiMxODE4MTg7c3Ryb2tlLXdpZHRoOjEuMDsiIHgxPSI0NzAuNSIgeDI9IjQ3MC41IiB5MT0iMjc1Ljc4MTMiIHkyPSIyOTUuNzgxMyIvPjxwb2x5Z29uIGZpbGw9IiMxODE4MTgiIHBvaW50cz0iNDY2LjUsMjg1Ljc4MTMsNDcwLjUsMjk1Ljc4MTMsNDc0LjUsMjg1Ljc4MTMsNDcwLjUsMjg5Ljc4MTMiIHN0eWxlPSJzdHJva2U6IzE4MTgxODtzdHJva2Utd2lkdGg6MS4wOyIvPjxsaW5lIHN0eWxlPSJzdHJva2U6IzE4MTgxODtzdHJva2Utd2lkdGg6MS4wOyIgeDE9Ijc2MC41IiB4Mj0iNzYwLjUiIHkxPSIyNzUuNzgxMyIgeTI9IjI5NS43ODEzIi8+PHBvbHlnb24gZmlsbD0iIzE4MTgxOCIgcG9pbnRzPSI3NTYuNSwyODUuNzgxMyw3NjAuNSwyOTUuNzgxMyw3NjQuNSwyODUuNzgxMyw3NjAuNSwyODkuNzgxMyIgc3R5bGU9InN0cm9rZTojMTgxODE4O3N0cm9rZS13aWR0aDoxLjA7Ii8+PGxpbmUgc3R5bGU9InN0cm9rZTojMTgxODE4O3N0cm9rZS13aWR0aDoxLjA7IiB4MT0iNDcwLjUiIHgyPSI0NzAuNSIgeTE9IjMyOC42MjUiIHkyPSIzNDguNjI1Ii8+PHBvbHlnb24gZmlsbD0iIzE4MTgxOCIgcG9pbnRzPSI0NjYuNSwzMzguNjI1LDQ3MC41LDM0OC42MjUsNDc0LjUsMzM4LjYyNSw0NzAuNSwzNDIuNjI1IiBzdHlsZT0ic3Ryb2tlOiMxODE4MTg7c3Ryb2tlLXdpZHRoOjEuMDsiLz48bGluZSBzdHlsZT0ic3Ryb2tlOiMxODE4MTg7c3Ryb2tlLXdpZHRoOjEuMDsiIHgxPSI3NjAuNSIgeDI9Ijc2MC41IiB5MT0iMzI4LjYyNSIgeTI9IjM0OC42MjUiLz48cG9seWdvbiBmaWxsPSIjMTgxODE4IiBwb2ludHM9Ijc1Ni41LDMzOC42MjUsNzYwLjUsMzQ4LjYyNSw3NjQuNSwzMzguNjI1LDc2MC41LDM0Mi42MjUiIHN0eWxlPSJzdHJva2U6IzE4MTgxODtzdHJva2Utd2lkdGg6MS4wOyIvPjxsaW5lIHN0eWxlPSJzdHJva2U6IzE4MTgxODtzdHJva2Utd2lkdGg6MS4wOyIgeDE9IjYyMSIgeDI9IjYyMSIgeTE9IjI0OS43ODEzIiB5Mj0iMjY5Ljc4MTMiLz48cG9seWdvbiBmaWxsPSIjMTgxODE4IiBwb2ludHM9IjYxNywyNTkuNzgxMyw2MjEsMjY5Ljc4MTMsNjI1LDI1OS43ODEzLDYyMSwyNjMuNzgxMyIgc3R5bGU9InN0cm9rZTojMTgxODE4O3N0cm9rZS13aWR0aDoxLjA7Ii8+PGxpbmUgc3R5bGU9InN0cm9rZTojMTgxODE4O3N0cm9rZS13aWR0aDoxLjA7IiB4MT0iNjIxIiB4Mj0iNjIxIiB5MT0iMzU0LjYyNSIgeTI9IjM3NC42MjUiLz48cG9seWdvbiBmaWxsPSIjMTgxODE4IiBwb2ludHM9IjYxNywzNjQuNjI1LDYyMSwzNzQuNjI1LDYyNSwzNjQuNjI1LDYyMSwzNjguNjI1IiBzdHlsZT0ic3Ryb2tlOiMxODE4MTg7c3Ryb2tlLXdpZHRoOjEuMDsiLz48bGluZSBzdHlsZT0ic3Ryb2tlOiMxODE4MTg7c3Ryb2tlLXdpZHRoOjEuMDsiIHgxPSI2MjEiIHgyPSI2MjEiIHkxPSI0MDcuNDY4OCIgeTI9IjQyNy40Njg4Ii8+PHBvbHlnb24gZmlsbD0iIzE4MTgxOCIgcG9pbnRzPSI2MTcsNDE3LjQ2ODgsNjIxLDQyNy40Njg4LDYyNSw0MTcuNDY4OCw2MjEsNDIxLjQ2ODgiIHN0eWxlPSJzdHJva2U6IzE4MTgxODtzdHJva2Utd2lkdGg6MS4wOyIvPjxsaW5lIHN0eWxlPSJzdHJva2U6IzE4MTgxODtzdHJva2Utd2lkdGg6MS4wOyIgeDE9IjE3MiIgeDI9IjE3MiIgeTE9IjE5Ni45Mzc1IiB5Mj0iMjAxLjkzNzUiLz48bGluZSBzdHlsZT0ic3Ryb2tlOiMxODE4MTg7c3Ryb2tlLXdpZHRoOjEuMDsiIHgxPSIxNzIiIHgyPSI2MjEiIHkxPSIyMDEuOTM3NSIgeTI9IjIwMS45Mzc1Ii8+PGxpbmUgc3R5bGU9InN0cm9rZTojMTgxODE4O3N0cm9rZS13aWR0aDoxLjA7IiB4MT0iNjIxIiB4Mj0iNjIxIiB5MT0iMjAxLjkzNzUiIHkyPSIyMTYuOTM3NSIvPjxwb2x5Z29uIGZpbGw9IiMxODE4MTgiIHBvaW50cz0iNjE3LDIwNi45Mzc1LDYyMSwyMTYuOTM3NSw2MjUsMjA2LjkzNzUsNjIxLDIxMC45Mzc1IiBzdHlsZT0ic3Ryb2tlOiMxODE4MTg7c3Ryb2tlLXdpZHRoOjEuMDsiLz48dGV4dCBmaWxsPSIjMDAwMDAwIiBmb250LWZhbWlseT0ic2Fucy1zZXJpZiIgZm9udC1zaXplPSIxOCIgbGVuZ3RoQWRqdXN0PSJzcGFjaW5nIiB0ZXh0TGVuZ3RoPSI3MiIgeD0iMTM1IiB5PSI2NCI+RW1wbG95ZWU8L3RleHQ+PHRleHQgZmlsbD0iIzAwMDAwMCIgZm9udC1mYW1pbHk9InNhbnMtc2VyaWYiIGZvbnQtc2l6ZT0iMTgiIGxlbmd0aEFkanVzdD0ic3BhY2luZyIgdGV4dExlbmd0aD0iNDUiIHg9IjU5Ny41IiB5PSI2NCI+QWRtaW48L3RleHQ+PCEtLVNSQz1bVE9fMVFXOTEzOFJseW5IdldId3lzZkNrN1dnYjVpSzc2N1JZRWRLYzZQOXFZeDBGUnJYNTE2YmtXVV94YXotbzVPSDNJejRHRmNYNENmT0JWMGx0ZzBmbFNFV01ZcDFqUVlqeUdQbzJNWEdCb250c2M0VTRWSW9lVHJfWEE1b1gtck5aWWdCbE9WYUl4MXZCU2Y4NWxiWGdCQjJMRENEWE1nTVFRTmVBRi1MTU5PSUV3UFdUamltcWctaXlGM3BWcG01eXQyaU9ySnRaX1pucHNwLTJoaDJUQ1dxVW4tczZHbm5ZZmZrcUlaXy15REVCZHBYWXFQU3BJMGRjS18tTXlXaFVsNXExXS0tPjwvZz48L3N2Zz4=;" parent="1" vertex="1">
            <mxGeometry x="3370" y="1276" width="934" height="461" as="geometry" />
          </mxCell>
        </UserObject>
      </root>
    </mxGraphModel>
  </diagram>
  <diagram id="aI3bg_mSAZtGnHobTYd7" name="Page-2">
    <mxGraphModel dx="2058" dy="921" grid="1" gridSize="10" guides="1" tooltips="1" connect="1" arrows="1" fold="1" page="1" pageScale="1" pageWidth="850" pageHeight="1100" math="0" shadow="0">
      <root>
        <mxCell id="0" />
        <mxCell id="1" parent="0" />
      </root>
    </mxGraphModel>
  </diagram>
</mxfile>
